<?xml version="1.0" encoding="utf-8"?>
<!-- Generator: Adobe Illustrator 27.5.0, SVG Export Plug-In . SVG Version: 6.00 Build 0)  -->
<svg version="1.1" xmlns="http://www.w3.org/2000/svg" xmlns:xlink="http://www.w3.org/1999/xlink" x="0px" y="0px"
	 viewBox="0 0 750 500" style="enable-background:new 0 0 750 500;" xml:space="preserve">
<g id="BACKGROUND">
	<g>
		<defs>
			<polygon id="SVGID_1_" points="0,0 0,426.932 0,453.325 0,500 750,500 750,453.325 750,426.932 750,0 			"/>
		</defs>
		<clipPath id="SVGID_00000165233920061369622020000008477683284307716737_">
			<use xlink:href="#SVGID_1_"  style="overflow:visible;"/>
		</clipPath>
		<g style="clip-path:url(#SVGID_00000165233920061369622020000008477683284307716737_);">
			<rect style="fill:#C4EBFF;" width="750" height="453.325"/>
			<g>
				<path style="fill:#FFFFFF;" d="M74.55,208.364c0,0,17.693-6.549,17.868-6.614c-0.024,0.009-4.149-7.266-0.932-12.255
					c1.327-2.058,3.646-3.673,6.317-4.047c4.257-0.596,8.296,1.622,11.868,3.742c-0.502-4.777,0.134-9.865,2.565-14.16
					c2.431-4.295,7.494-7.699,12.941-7.427c4.009,0.201,7.65,2.328,10.179,5.07c2.529,2.742,3.206,4.804,4.253,9.062
					c2.618-5.063,4.77-6.818,9.081-7.818c4.311-0.999,9.252,0.719,11.618,4.041c2.455,3.447,2.082,7.834,1.624,11.881
					c2.858-3.005,8.362-3.23,12.218-1.78c1.39,0.523,2.149,1.303,2.976,2.387c1.271,1.664,1.979,3.662,1.973,5.669
					c-0.008,2.649-1.264,5.279-3.409,7.139l8.896,5.11H74.55z"/>
				<path style="fill:#FFFFFF;" d="M115.11,129.171c0,0-13.314-4.928-13.446-4.977c0.018,0.007,3.122-5.468,0.701-9.222
					c-0.998-1.548-2.743-2.764-4.753-3.046c-3.203-0.449-6.243,1.221-8.931,2.816c0.377-3.595-0.101-7.424-1.931-10.656
					c-1.829-3.232-5.639-5.794-9.738-5.589c-3.017,0.151-5.757,1.752-7.66,3.815c-1.903,2.063-2.412,3.615-3.2,6.819
					c-1.97-3.81-3.59-5.131-6.834-5.883s-6.962,0.541-8.743,3.041c-1.847,2.594-1.567,5.895-1.222,8.94
					c-2.151-2.261-6.293-2.431-9.195-1.34c-1.046,0.393-1.617,0.981-2.24,1.796c-0.956,1.252-1.489,2.756-1.485,4.266
					c0.006,1.994,0.951,3.973,2.566,5.373l-6.694,3.845H115.11z"/>
				<path style="fill:#FFFFFF;" d="M280.416,66.218c0,0,17.693-6.549,17.868-6.614c-0.025,0.009-4.149-7.266-0.932-12.255
					c1.327-2.058,3.646-3.673,6.317-4.047c4.256-0.596,8.296,1.623,11.868,3.743c-0.501-4.777,0.135-9.865,2.566-14.16
					c2.431-4.295,7.493-7.699,12.941-7.427c4.009,0.201,7.65,2.328,10.179,5.07c2.529,2.742,3.206,4.804,4.253,9.062
					c2.618-5.063,4.77-6.818,9.081-7.818c4.311-0.999,9.252,0.719,11.618,4.041c2.455,3.447,2.082,7.834,1.624,11.881
					c2.858-3.005,8.362-3.23,12.218-1.78c1.39,0.523,2.149,1.303,2.976,2.387c1.271,1.664,1.979,3.662,1.973,5.669
					c-0.009,2.649-1.264,5.279-3.409,7.14l8.896,5.11H280.416z"/>
				<path style="fill:#FFFFFF;" d="M550.984,105.431c0,0,27.344-10.122,27.614-10.222c-0.038,0.014-6.411-11.229-1.44-18.939
					c2.05-3.18,5.635-5.677,9.762-6.255c6.578-0.922,12.821,2.507,18.342,5.784c-0.775-7.382,0.208-15.246,3.965-21.884
					c3.757-6.638,11.581-11.899,20-11.478c6.196,0.31,11.823,3.597,15.731,7.835c3.908,4.238,4.954,7.424,6.573,14.005
					c4.046-7.825,7.373-10.537,14.034-12.082c6.662-1.545,14.299,1.112,17.955,6.246c3.794,5.327,3.217,12.107,2.51,18.361
					c4.417-4.644,12.924-4.992,18.883-2.751c2.149,0.808,3.322,2.014,4.6,3.688c1.964,2.572,3.059,5.66,3.049,8.761
					c-0.013,4.094-1.954,8.159-5.269,11.034l13.749,7.897H550.984z"/>
			</g>
			<rect y="426.932" style="fill:#94A3B4;" width="750" height="73.068"/>
		</g>
	</g>
</g>
<g id="OBJECTS">
	<g>
		<defs>
			<polygon id="SVGID_00000014631777281023590300000006665023969928891530_" points="0,0 0,426.932 0,453.325 0,500 750,500 
				750,453.325 750,426.932 750,0 			"/>
		</defs>
		<clipPath id="SVGID_00000160895158807601525770000006391848610894581408_">
			<use xlink:href="#SVGID_00000014631777281023590300000006665023969928891530_"  style="overflow:visible;"/>
		</clipPath>
		<g style="clip-path:url(#SVGID_00000160895158807601525770000006391848610894581408_);">
			
				<linearGradient id="SVGID_00000106834468245770773210000003944558966518519227_" gradientUnits="userSpaceOnUse" x1="773.7" y1="547.2313" x2="773.7" y2="446.377">
				<stop  offset="0.1391" style="stop-color:#130C0E;stop-opacity:0"/>
				<stop  offset="0.6804" style="stop-color:#130C0E;stop-opacity:0.6512"/>
				<stop  offset="1" style="stop-color:#130C0E;stop-opacity:0.95"/>
			</linearGradient>
			<polyline style="opacity:0.34;fill:url(#SVGID_00000106834468245770773210000003944558966518519227_);" points="639.732,465.492 
				828.352,543.185 907.668,543.185 703.796,465.492 663.717,464.308 			"/>
			<g>
				<g>
					<rect x="663.717" y="329.767" style="fill:#D47046;" width="10.564" height="135.725"/>
					<rect x="674.282" y="329.767" style="fill:#B55D46;" width="5.282" height="135.725"/>
				</g>
				<g>
					<rect x="394.59" y="329.767" style="fill:#D47046;" width="10.564" height="135.725"/>
					<rect x="405.154" y="329.767" style="fill:#B55D46;" width="5.282" height="135.725"/>
				</g>
				<rect x="674.908" y="126.758" style="fill:#D47046;" width="15.655" height="213.909"/>
				<rect x="383.374" y="126.758" style="fill:#F09755;" width="299.194" height="213.909"/>
				<rect x="397.659" y="142.478" style="fill:#596B85;" width="270.624" height="182.47"/>
				<g>
					<path style="fill:#FFFFFF;" d="M568.855,178.66v2.865h-3.639v-2.736c-2.581-0.156-5.085-0.852-6.633-1.807l1.961-4.439
						c1.704,1.007,3.975,1.652,5.962,1.652c1.729,0,2.349-0.361,2.349-0.981c0-2.271-9.988-0.439-9.988-7.175
						c0-2.917,2.116-5.368,6.349-5.962v-2.813h3.639v2.762c1.909,0.181,3.768,0.671,5.239,1.497l-1.833,4.413
						c-1.781-0.903-3.458-1.342-5.033-1.342c-1.78,0-2.348,0.516-2.348,1.136c0,2.167,9.988,0.361,9.988,7.02
						C574.868,175.538,572.855,177.964,568.855,178.66z"/>
				</g>
				<g>
					<g>
						<path style="fill:#FFFFFF;" d="M525.941,172.876l-1.865,1.354l-0.381-2.273l-2.725,0.012l-0.361,2.276l-1.876-1.338
							l-1.918,1.935l1.354,1.865l-2.273,0.381l0.012,2.725l2.276,0.361l-1.338,1.876l1.935,1.919l1.865-1.354l0.381,2.273
							l2.725-0.012l0.361-2.276l1.876,1.338l1.918-1.935l-1.354-1.865l2.273-0.381l-0.012-2.725l-2.276-0.361l1.338-1.876
							L525.941,172.876z M524.158,179.157l-1.046,1.055l-1.486,0.006l-1.056-1.046l-0.006-1.486l1.046-1.055l1.486-0.006
							l1.055,1.046L524.158,179.157z"/>
						<g>
							<path style="fill:#79BAE2;" d="M519.277,175.365c-1.688,1.703-1.676,4.452,0.027,6.14c1.703,1.688,4.451,1.677,6.139-0.026
								c1.688-1.703,1.677-4.452-0.026-6.14C523.715,173.651,520.966,173.663,519.277,175.365z M523.161,179.216
								c-0.438,0.442-1.152,0.445-1.594,0.007s-0.445-1.152-0.007-1.594c0.438-0.442,1.153-0.446,1.595-0.008
								S523.6,178.774,523.161,179.216z"/>
							<path style="fill:#FFFFFF;" d="M520.276,176.356c-1.141,1.15-1.133,3.009,0.019,4.151c1.151,1.141,3.009,1.133,4.15-0.018
								c1.141-1.151,1.134-3.009-0.017-4.151C523.276,175.197,521.417,175.205,520.276,176.356z M523.161,179.216
								c-0.438,0.442-1.152,0.445-1.594,0.007s-0.445-1.152-0.007-1.594c0.438-0.442,1.153-0.446,1.595-0.008
								S523.6,178.774,523.161,179.216z"/>
						</g>
					</g>
					<g>
						<path style="fill:#FFFFFF;" d="M526.974,158.395l-1.864,1.354l-0.381-2.273l-2.725,0.012l-0.361,2.276l-1.876-1.338
							l-1.918,1.935l1.354,1.865l-2.273,0.381l0.012,2.725l2.276,0.361l-1.338,1.876l1.935,1.918l1.865-1.354l0.381,2.273
							l2.725-0.012l0.361-2.276l1.876,1.338l1.918-1.935l-1.354-1.865l2.273-0.381l-0.012-2.725l-2.276-0.361l1.338-1.876
							L526.974,158.395z M525.191,164.677l-1.046,1.055l-1.486,0.006l-1.055-1.046l-0.006-1.486l1.046-1.055l1.486-0.006
							l1.055,1.046L525.191,164.677z"/>
						<g>
							<path style="fill:#79BAE2;" d="M520.311,160.885c-1.688,1.703-1.676,4.452,0.027,6.14c1.703,1.688,4.451,1.676,6.139-0.026
								c1.688-1.703,1.677-4.452-0.026-6.14C524.749,159.17,521.999,159.182,520.311,160.885z M524.195,164.736
								c-0.438,0.442-1.152,0.445-1.594,0.007s-0.445-1.152-0.007-1.594c0.438-0.442,1.153-0.446,1.595-0.008
								S524.633,164.294,524.195,164.736z"/>
							<path style="fill:#FFFFFF;" d="M521.31,161.875c-1.141,1.15-1.133,3.009,0.019,4.151c1.151,1.141,3.009,1.133,4.15-0.018
								c1.141-1.151,1.134-3.009-0.017-4.151C524.31,160.716,522.451,160.724,521.31,161.875z M524.195,164.736
								c-0.438,0.442-1.152,0.445-1.594,0.007s-0.445-1.152-0.007-1.594c0.438-0.442,1.153-0.446,1.595-0.008
								S524.633,164.294,524.195,164.736z"/>
						</g>
					</g>
					<g>
						<path style="fill:#FFFFFF;" d="M538.529,166.159l-1.865,1.354l-0.381-2.273l-2.725,0.012l-0.361,2.276l-1.876-1.338
							l-1.918,1.935l1.354,1.865l-2.273,0.38l0.012,2.725l2.276,0.361l-1.338,1.876l1.935,1.919l1.865-1.354l0.381,2.273
							l2.725-0.012l0.361-2.276l1.876,1.338l1.919-1.935l-1.354-1.865l2.273-0.381l-0.012-2.725l-2.276-0.361l1.338-1.876
							L538.529,166.159z M536.746,172.441l-1.046,1.055l-1.486,0.006l-1.056-1.046l-0.006-1.486l1.046-1.055l1.486-0.006
							l1.056,1.046L536.746,172.441z"/>
						<g>
							<path style="fill:#79BAE2;" d="M531.865,168.649c-1.688,1.703-1.676,4.452,0.027,6.14c1.703,1.688,4.451,1.676,6.139-0.026
								c1.688-1.703,1.677-4.452-0.026-6.14C536.303,166.934,533.554,166.946,531.865,168.649z M535.749,172.5
								c-0.438,0.442-1.152,0.445-1.594,0.007s-0.445-1.152-0.007-1.594c0.439-0.442,1.153-0.446,1.595-0.008
								S536.188,172.057,535.749,172.5z"/>
							<path style="fill:#FFFFFF;" d="M532.864,169.639c-1.141,1.15-1.133,3.009,0.019,4.151c1.151,1.141,3.009,1.133,4.15-0.018
								c1.141-1.151,1.134-3.009-0.017-4.151C535.865,168.48,534.006,168.488,532.864,169.639z M535.749,172.5
								c-0.438,0.442-1.152,0.445-1.594,0.007s-0.445-1.152-0.007-1.594c0.439-0.442,1.153-0.446,1.595-0.008
								S536.188,172.057,535.749,172.5z"/>
						</g>
					</g>
				</g>
				<g>
					<rect x="426.111" y="166.68" style="fill:#FFFFFF;" width="2.457" height="64.382"/>
					
						<rect x="482.605" y="153.438" transform="matrix(-1.836970e-16 1 -1 -1.836970e-16 704.1747 -263.4494)" style="fill:#FFFFFF;" width="2.414" height="133.848"/>
					<polygon style="fill:#FFFFFF;" points="510.876,216.322 485.496,189.619 470.606,201.033 448.401,177.174 428.064,199.529 
						426.615,198.211 448.384,174.281 470.827,198.396 485.703,186.993 510.924,213.53 530.008,194.775 531.381,196.171 					"/>
					<polygon style="fill:#FFFFFF;" points="521.145,194.954 528.254,197.16 529.938,204.146 534.241,192.012 					"/>
				</g>
				<rect x="591.115" y="200.121" style="fill:#FFFFFF;" width="63.826" height="6.541"/>
				<rect x="591.115" y="214.076" style="fill:#FFFFFF;" width="63.826" height="6.541"/>
				<rect x="591.115" y="186.167" style="fill:#FFFFFF;" width="63.826" height="6.541"/>
				<rect x="591.115" y="172.213" style="fill:#FFFFFF;" width="63.826" height="6.541"/>
				<rect x="591.115" y="158.258" style="fill:#FFFFFF;" width="63.826" height="6.541"/>
				<g>
					<rect x="370.896" y="452.76" style="fill:#D47046;" width="58.782" height="12.732"/>
					<rect x="429.678" y="452.76" style="fill:#B55D46;" width="5.282" height="12.732"/>
				</g>
				<g>
					<rect x="639.732" y="452.76" style="fill:#D47046;" width="58.782" height="12.732"/>
					<rect x="698.514" y="452.76" style="fill:#B55D46;" width="5.282" height="12.732"/>
				</g>
			</g>
		</g>
		<g style="clip-path:url(#SVGID_00000160895158807601525770000006391848610894581408_);">
			<g>
				<path style="fill:#FFCC00;" d="M373.412,175.37c0,4.601-0.835,9.014-2.367,13.096c-0.426,1.144-0.911,2.261-1.448,3.348
					c-1.83,3.75-4.273,7.154-7.204,10.097c-4.97,4.985-9.225,12.135-9.225,19.111h-36.702c0-6.993-4.473-14.27-9.416-19.303
					c-2.629-2.676-4.864-5.731-6.6-9.075c-0.475-0.904-0.91-1.829-1.31-2.772c-2.025-4.802-3.074-10.101-2.905-15.658
					c0.595-19.604,16.572-35.694,36.502-36.72C354.997,136.346,373.412,153.745,373.412,175.37z"/>
				<path style="fill:#FFB300;" d="M324.262,223.701c0,0,1.435-12.843-3.804-20.362c-6.084-9.342-14.794-9.026-14.794-28.832
					c0-17.113,16.838-27.935,29.233-27.827c9.66,0.084,28.261,8.204,28.149,25.642c-0.19,29.522-17.492,22.322-17.301,51.197
					L324.262,223.701z"/>
				<path style="fill:#FFCC00;" d="M338.422,225.113l-3.108-0.057l0.533-28.099c0.091-4.844,2.285-9.437,6.017-12.6l2.132-1.806
					c1.347-1.142,1.392-2.696,0.986-3.77c-0.406-1.074-1.474-2.222-3.253-2.222h-14.504c-1.762,0-2.83,1.133-3.242,2.194
					c-0.412,1.061-0.384,2.605,0.93,3.759l1.514,1.329c3.682,3.233,5.794,7.87,5.794,12.722v28.522h-3.109v-28.522
					c0-3.983-1.734-7.79-4.757-10.443l-1.514-1.329c-2.052-1.802-2.745-4.6-1.764-7.127c0.982-2.527,3.394-4.16,6.147-4.16h14.504
					c2.778,0,5.199,1.654,6.167,4.213c0.968,2.559,0.234,5.365-1.87,7.149l-2.132,1.806c-3.064,2.597-4.865,6.367-4.94,10.344
					L338.422,225.113z"/>
				<path style="fill:#94A3B4;" d="M353.167,221.021l-0.737,25.065c-0.227,7.822-6.747,14.043-14.706,14.043h-5.814
					c-0.213,0-0.426-0.004-0.64-0.013c-7.671-0.323-13.845-6.417-14.071-14.03l-0.733-25.065H353.167z"/>
				<path style="fill:#8290A1;" d="M331.27,260.116c-7.671-0.323-13.845-6.417-14.071-14.03l-0.733-25.065h10.203v29.399
					C326.668,252.734,327.405,257.139,331.27,260.116z"/>
				<path style="fill:#596B85;" d="M355.659,233.567c0,1.297-0.533,2.466-1.395,3.313c-0.866,0.847-2.056,1.371-3.371,1.371H318.74
					c-2.634,0-4.766-2.095-4.766-4.684c0-1.292,0.533-2.462,1.395-3.313c0.862-0.847,2.056-1.371,3.371-1.371h32.153
					C353.522,228.883,355.659,230.983,355.659,233.567z"/>
				<path style="fill:#596B85;" d="M355.659,247.304v0.004c0,2.584-2.136,4.679-4.766,4.679H318.74
					c-2.634,0-4.766-2.095-4.766-4.679v-0.004c0-2.584,2.132-4.679,4.766-4.679h32.153
					C353.522,242.625,355.659,244.72,355.659,247.304z"/>
				<path style="fill:#48566B;" d="M327.206,238.251h-8.466c-2.634,0-4.766-2.095-4.766-4.684c0-1.292,0.533-2.462,1.395-3.313
					c0.862-0.847,2.056-1.371,3.371-1.371h8.466c-1.315,0-2.51,0.524-3.371,1.371c-0.862,0.851-1.395,2.021-1.395,3.313
					C322.439,236.156,324.572,238.251,327.206,238.251z"/>
				<path style="fill:#48566B;" d="M327.206,251.988h-8.466c-2.634,0-4.766-2.095-4.766-4.679v-0.004
					c0-2.584,2.132-4.679,4.766-4.679h8.466c-2.634,0-4.766,2.095-4.766,4.679v0.004
					C322.439,249.893,324.572,251.988,327.206,251.988z"/>
			</g>
			
				<radialGradient id="SVGID_00000024679768658156400930000011738234438949005491_" cx="326.1743" cy="182.5878" r="18.331" gradientTransform="matrix(0.9918 0 0 0.9748 2.0673 -7.0424)" gradientUnits="userSpaceOnUse">
				<stop  offset="0.5744" style="stop-color:#FFFFFF;stop-opacity:0"/>
				<stop  offset="0.7977" style="stop-color:#FFFFFF;stop-opacity:0.6512"/>
				<stop  offset="1" style="stop-color:#FFFFFF;stop-opacity:0.95"/>
			</radialGradient>
			<path style="opacity:0.73;fill:url(#SVGID_00000024679768658156400930000011738234438949005491_);" d="M320.277,148.705
				c-6.443,1.788-11.569,6.108-14.733,11.902c-1.785,3.269-3.096,6.854-3.505,10.56c-0.412,3.723-0.221,8.722,2.785,11.458
				c1.393,1.268,3.56,1.547,5.188,0.549c1.552-0.951,2.494-2.685,2.828-4.415c0.722-3.746,0.255-7.331,1.622-11.046
				c1.887-5.128,5.657-9.176,9.71-12.776C327.118,152.322,323.754,147.74,320.277,148.705z"/>
		</g>
		<g style="clip-path:url(#SVGID_00000160895158807601525770000006391848610894581408_);">
			<g>
				<g>
					<polygon style="fill:#80BCE0;" points="497.286,75.086 493.839,90.005 533.599,51.096 					"/>
					<polygon style="fill:#ABD2EF;" points="501.296,77.955 493.839,90.005 533.599,51.096 					"/>
					<polygon style="fill:#FFFFFF;" points="482.841,72.02 533.599,51.096 497.286,75.086 					"/>
					<polygon style="fill:#FFFFFF;" points="533.599,51.096 501.296,77.955 509.666,97.305 					"/>
				</g>
			</g>
			<path style="fill:#ABD2EF;" d="M360.807,124.978l-1.893-0.303c0.402-2.507,1.126-4.98,2.152-7.349l1.759,0.763
				C361.864,120.311,361.184,122.63,360.807,124.978z M479.015,96.749l-0.372-1.881c3.831-0.76,7.466-1.861,10.805-3.276
				l0.748,1.767C486.737,94.825,482.975,95.965,479.015,96.749z M467.448,98.076c-3.604,0.15-7.398,0.097-11.599-0.16l0.117-1.914
				c4.135,0.253,7.865,0.305,11.402,0.158L467.448,98.076z M368.955,108.797l-1.411-1.298c2.565-2.787,5.608-5.299,9.045-7.467
				l1.024,1.622C374.317,103.732,371.405,106.135,368.955,108.797z M444.336,96.835c-0.84-0.101-1.677-0.204-2.513-0.312
				c-1.643-0.209-3.291-0.426-4.942-0.644c-1.32-0.174-2.643-0.348-3.966-0.519l0.245-1.902c1.325,0.171,2.649,0.345,3.971,0.519
				c1.648,0.217,3.294,0.434,4.935,0.643c0.831,0.107,1.663,0.21,2.497,0.31L444.336,96.835z M421.517,94.068
				c-4.196-0.377-7.927-0.564-11.406-0.573l0.005-1.919c3.536,0.009,7.321,0.199,11.574,0.581L421.517,94.068z M387.767,96.768
				l-0.633-1.81c2.076-0.727,4.205-1.325,6.327-1.779c1.514-0.324,3.085-0.602,4.67-0.826l0.378-0.052l0.254,1.901l-0.371,0.051
				c-1.533,0.217-3.06,0.487-4.53,0.801C391.819,95.491,389.767,96.068,387.767,96.768z"/>
		</g>
		<g style="clip-path:url(#SVGID_00000160895158807601525770000006391848610894581408_);">
			
				<linearGradient id="SVGID_00000054251048111797175400000007109693393588081286_" gradientUnits="userSpaceOnUse" x1="814.2583" y1="535.7469" x2="612.9001" y2="432.6291">
				<stop  offset="0.1391" style="stop-color:#130C0E;stop-opacity:0"/>
				<stop  offset="0.6804" style="stop-color:#130C0E;stop-opacity:0.6512"/>
				<stop  offset="1" style="stop-color:#130C0E;stop-opacity:0.95"/>
			</linearGradient>
			<polygon style="opacity:0.34;fill:url(#SVGID_00000054251048111797175400000007109693393588081286_);" points="699.689,477.311 
				664.76,477.392 853.38,555.084 887.566,555.084 			"/>
			<g>
				<g>
					<path style="fill:#4DBB00;" d="M681.446,429.208c-0.508,1.02-1.341,1.838-2.055,2.726c-0.031,0.038-0.06,0.079-0.091,0.118
						c-1.543,1.965-2.514,4.356-2.855,6.825c-0.169,1.235-0.184,2.493-0.031,3.73c0.074,0.619,0.191,1.232,0.35,1.835
						c0.069,0.263,0.241,0.598,0.228,0.869c-0.057,0.97-0.696,2.012-1.412,2.624c-0.468,0.402-1.018,0.684-1.607,0.852
						c-0.454,0.131-0.931,0.193-1.404,0.182c-1.116-0.016-2.222-0.415-3.033-1.183c-2.447-2.32-1.764-6.7-4.167-9.07
						c-2.12-2.094-5.799-1.771-8.195-3.398c-0.294-0.202-0.571-0.431-0.819-0.698c-2.079-2.214-1.392-5.729-0.75-8.694
						c0.415-1.905,0.67-4.026,0.061-5.919c-0.313-0.977-0.889-1.54-1.523-2.299c-1.81-2.164-5.556-2-6.895-4.656
						c-1.002-1.99,0.228-4.351,1.565-6.131c1.158-1.543,2.885-3.512,2.695-5.565c-0.191-2.069-1.724-3.837-3.09-5.279
						c-1.821-1.922-3.798-4.407-2.981-6.923c0.91-2.797,4.725-3.667,5.942-6.344c0.757-1.67,0.308-3.634-0.394-5.326
						c-0.704-1.692-1.657-3.32-1.914-5.134c-0.276-1.931,0.58-3.243,1.648-4.731c0.55-0.768,1.334-1.222,2.225-1.542
						c3.341-1.201,7.622,0.393,9.07,3.708c1.253,2.87,0.651,6.606,2.879,8.805c2.145,2.119,5.871,1.683,8.183,3.614
						c2.623,2.192,2.269,6.286,1.379,9.583c-0.891,3.3-2.053,6.976-0.4,9.965c1.754,3.173,6.318,4.733,6.601,8.346
						c0.284,3.634-4.209,6.619-3.305,10.151c0.309,1.198,1.187,2.129,2.042,2.975c0.422,0.417,0.856,0.825,1.256,1.264
						c0.344,0.375,0.745,0.791,0.904,1.285C681.921,426.912,681.996,428.113,681.446,429.208z"/>
					<path style="fill:#027F02;" d="M673.971,448.787c-0.454,0.131-0.931,0.193-1.404,0.182c-0.942-5.53-1.947-11.058-3.03-16.563
						c-2.002-10.192-4.224-20.352-6.526-30.48c-1.13-4.97-2.241-9.945-3.504-14.885c-0.644-2.523-1.303-5.042-1.995-7.553
						c-0.727-2.642-1.191-5.366-1.943-7.995c-0.088-0.309,0.351-0.475,0.472-0.173c1.131,2.826,2.411,5.539,3.37,8.441
						c0.911,2.76,1.758,5.537,2.56,8.327c2.84,9.883,5.093,19.901,7.248,29.95C671.387,428.165,673.934,438.379,673.971,448.787z"/>
					<path style="fill:#027F02;" d="M671.131,384.761c-2.846,3.875-5.609,7.713-8.749,11.365c-0.805,0.936,0.59,2.263,1.4,1.32
						c3.144-3.656,5.98-7.94,7.695-12.455C671.556,384.785,671.282,384.555,671.131,384.761z"/>
					<path style="fill:#027F02;" d="M663.971,397.946c-0.925-0.926-2.375-1.381-3.537-1.959c-1.266-0.63-2.512-1.297-3.759-1.962
						c-2.375-1.267-4.751-2.555-7.097-3.875c-0.236-0.133-0.45,0.218-0.254,0.389c2.13,1.849,4.323,3.537,6.696,5.067
						c1.139,0.734,2.31,1.425,3.485,2.099c1.203,0.69,2.448,1.58,3.841,1.749C664.145,399.55,664.47,398.445,663.971,397.946z"/>
					<path style="fill:#027F02;" d="M668.071,414.978c-0.611-0.834-1.255-0.804-2.21-1.019c-1.056-0.238-2.1-0.602-3.11-0.985
						c-2.446-0.926-4.878-2.086-7.165-3.364c-0.211-0.118-0.373,0.178-0.221,0.333c1.68,1.72,3.544,3.177,5.704,4.254
						c0.998,0.498,2.028,0.934,3.074,1.323c1.18,0.439,2.411,1.194,3.618,0.615C668.141,415.952,668.327,415.328,668.071,414.978z"
						/>
					<path style="fill:#027F02;" d="M674.318,407.553c-2.238,4.114-5.232,8.048-6.927,12.425c-0.34,0.879,0.986,1.391,1.464,0.646
						c1.227-1.911,2.077-4.181,2.991-6.258c0.967-2.199,1.87-4.436,2.893-6.609C674.869,407.482,674.461,407.29,674.318,407.553z"/>
					<path style="fill:#027F02;" d="M671.754,433.231c-0.405-0.943-1.392-1.364-2.221-1.917c-0.911-0.607-1.829-1.195-2.761-1.769
						c-1.958-1.204-3.924-2.324-6.022-3.268c-0.382-0.172-0.66,0.342-0.366,0.606c1.735,1.555,3.579,2.911,5.497,4.232
						c0.906,0.624,1.819,1.229,2.748,1.82c0.788,0.501,1.554,1.222,2.521,1.187C671.623,434.104,671.954,433.698,671.754,433.231z"
						/>
					<path style="fill:#027F02;" d="M678.789,426.648c-1.264,1.466-2.511,2.927-3.725,4.437c-1.328,1.652-2.845,3.147-4.161,4.801
						c-0.772,0.97,0.452,2.106,1.385,1.312c3.096-2.632,5.566-6.496,6.89-10.297C679.261,426.664,678.975,426.432,678.789,426.648z"
						/>
				</g>
				<g>
					<path style="fill:#4DBB00;" d="M679.303,427.642c0.21,1.12,0.787,2.135,1.231,3.184c0.019,0.046,0.036,0.092,0.055,0.138
						c0.947,2.313,1.226,4.877,0.878,7.346c-0.175,1.234-0.505,2.448-0.99,3.596c-0.24,0.575-0.521,1.133-0.839,1.669
						c-0.138,0.234-0.396,0.509-0.457,0.773c-0.211,0.949,0.119,2.125,0.64,2.911c0.34,0.514,0.792,0.937,1.313,1.26
						c0.401,0.25,0.842,0.44,1.301,0.559c1.077,0.29,2.251,0.209,3.241-0.308c2.988-1.562,3.53-5.962,6.49-7.583
						c2.613-1.434,6.062-0.116,8.813-1.026c0.338-0.114,0.667-0.258,0.979-0.447c2.605-1.561,2.906-5.13,3.1-8.157
						c0.123-1.946,0.458-4.056,1.561-5.71c0.568-0.854,1.277-1.238,2.094-1.795c2.333-1.586,5.891-0.403,7.906-2.592
						c1.508-1.64,0.972-4.247,0.173-6.325c-0.691-1.801-1.814-4.168-1.069-6.09c0.75-1.937,2.708-3.219,4.417-4.232
						c2.277-1.35,4.859-3.2,4.762-5.843c-0.11-2.939-3.541-4.82-3.979-7.728c-0.271-1.814,0.698-3.579,1.836-5.015
						c1.141-1.435,2.502-2.74,3.246-4.414c0.793-1.781,0.33-3.278-0.29-5.001c-0.319-0.889-0.949-1.54-1.719-2.092
						c-2.885-2.069-7.438-1.708-9.738,1.084c-1.991,2.418-2.434,6.176-5.179,7.681c-2.643,1.451-6.107,0.012-8.86,1.237
						c-3.122,1.39-3.903,5.425-3.948,8.84c-0.046,3.418,0.066,7.271-2.343,9.695c-2.555,2.572-7.372,2.823-8.633,6.221
						c-1.268,3.418,2.237,7.518,0.401,10.668c-0.625,1.068-1.725,1.723-2.778,2.303c-0.52,0.286-1.049,0.56-1.554,0.872
						c-0.433,0.267-0.933,0.557-1.221,0.988C679.475,425.303,679.074,426.437,679.303,427.642z"/>
					<path style="fill:#027F02;" d="M720.644,398.794c-2.618,0.628-5.255,1.216-7.887,1.785c-1.382,0.299-2.762,0.599-4.152,0.859
						c-0.471,0.088-0.975,0.153-1.481,0.228c1.579-2.875,3.171-5.743,4.822-8.579c1.31-2.25,2.633-4.493,3.986-6.719
						c1.422-2.342,2.614-4.835,4.057-7.158c0.169-0.273-0.208-0.553-0.407-0.296c-1.861,2.409-3.834,4.668-5.551,7.196
						c-1.632,2.405-3.206,4.844-4.741,7.309c-1.174,1.884-2.313,3.788-3.441,5.697c-1.631-3.752-3.028-7.554-4.461-11.402
						c-0.089-0.24-0.415-0.093-0.396,0.126c0.391,4.537,1.801,9.143,3.656,13.323c-3.42,5.879-6.672,11.851-9.87,17.857
						c-0.739-3.447-1.929-6.861-2.692-10.257c-0.066-0.293-0.511-0.219-0.461,0.08c0.39,2.37,0.645,4.769,0.974,7.149
						c0.25,1.808,0.438,3.719,0.839,5.531c-2.328,4.357-4.704,8.721-6.853,13.183c-0.567-1.164-1.152-2.322-1.657-3.515
						c-0.755-1.785-1.554-3.531-2.368-5.287c-0.12-0.259-0.458-0.114-0.444,0.137c0.216,3.732,1.38,7.776,3.352,11.042
						c-1.695,3.713-3.199,7.504-4.332,11.433c0.401,0.25,0.842,0.44,1.301,0.559c2.229-4.663,4.516-9.307,6.854-13.918
						c0.446-0.117,0.889-0.296,1.322-0.426c1.054-0.314,2.098-0.646,3.141-0.999c2.206-0.745,4.351-1.545,6.445-2.566
						c0.356-0.173,0.228-0.744-0.186-0.683c-2.276,0.334-4.474,0.873-6.687,1.496c-0.959,0.269-1.909,0.559-2.857,0.861
						c2.308-4.511,4.66-9.002,7.046-13.475c0.706,0.045,1.464-0.099,2.179-0.156c1.112-0.088,2.222-0.226,3.319-0.432
						c2.372-0.445,4.563-1.336,6.65-2.531c0.188-0.108,0.114-0.436-0.122-0.381c-2.55,0.603-5.206,1.054-7.813,1.275
						c-1.014,0.086-2.052,0.14-3.072,0.097c1.934-3.607,3.882-7.207,5.845-10.795c0.443-0.81,0.889-1.619,1.332-2.429
						c1.076-0.057,2.162-0.417,3.194-0.673c1.315-0.327,2.63-0.671,3.927-1.065c2.701-0.822,5.272-1.845,7.827-3.041
						C721.017,399.127,720.907,398.73,720.644,398.794z"/>
				</g>
				<g>
					<path style="fill:#047E04;" d="M670.405,435.838c0.654,0.934,1.598,1.619,2.436,2.392c0.037,0.033,0.071,0.069,0.108,0.103
						c1.817,1.715,3.131,3.936,3.834,6.327c0.35,1.196,0.551,2.438,0.583,3.684c0.019,0.623-0.007,1.247-0.075,1.866
						c-0.029,0.271-0.15,0.627-0.097,0.893c0.2,0.951,0.986,1.887,1.785,2.386c0.522,0.328,1.108,0.526,1.716,0.605
						c0.468,0.062,0.949,0.053,1.415-0.028c1.101-0.181,2.136-0.739,2.824-1.619c2.076-2.657,0.752-6.887,2.778-9.587
						c1.787-2.385,5.473-2.61,7.602-4.574c0.261-0.243,0.501-0.51,0.707-0.811c1.728-2.497,0.528-5.872-0.546-8.709
						c-0.692-1.823-1.258-3.883-0.937-5.845c0.164-1.013,0.652-1.655,1.166-2.499c1.47-2.408,5.199-2.8,6.13-5.626
						c0.696-2.116-0.869-4.269-2.455-5.832c-1.373-1.354-3.373-3.046-3.489-5.105c-0.117-2.074,1.137-4.05,2.275-5.678
						c1.516-2.17,3.103-4.921,1.923-7.288c-1.314-2.632-5.216-2.928-6.815-5.395c-0.996-1.54-0.842-3.548-0.399-5.326
						c0.446-1.778,1.147-3.528,1.133-5.361c-0.013-1.95-1.054-3.122-2.33-4.435c-0.658-0.678-1.5-1.011-2.429-1.195
						c-3.482-0.693-7.48,1.517-8.421,5.009c-0.815,3.024,0.334,6.629-1.544,9.134c-1.808,2.413-5.557,2.534-7.558,4.786
						c-2.269,2.556-1.314,6.552,0.055,9.681c1.369,3.132,3.063,6.595,1.87,9.797c-1.265,3.397-5.548,5.616-5.293,9.231
						c0.257,3.636,5.143,5.923,4.771,9.55c-0.128,1.231-0.859,2.281-1.579,3.244c-0.355,0.475-0.724,0.943-1.055,1.437
						c-0.284,0.422-0.62,0.892-0.704,1.404C669.596,433.638,669.699,434.836,670.405,435.838z"/>
					<path style="fill:#004D02;" d="M680.697,454.094c0.468,0.062,0.949,0.053,1.415-0.028c0.113-5.608,0.289-11.224,0.545-16.829
						c0.472-10.376,1.165-20.753,1.942-31.11c0.381-5.082,0.744-10.167,1.262-15.24c0.263-2.59,0.542-5.179,0.855-7.765
						c0.328-2.72,0.384-5.483,0.739-8.195c0.041-0.318-0.418-0.418-0.492-0.102c-0.7,2.962-1.564,5.835-2.083,8.847
						c-0.493,2.864-0.92,5.736-1.299,8.614c-1.346,10.195-2.091,20.435-2.735,30.693
						C680.199,433.318,679.192,443.796,680.697,454.094z"/>
					<path style="fill:#004D02;" d="M674.028,390.354c3.388,3.411,6.689,6.798,10.335,9.944c0.934,0.806-0.248,2.325-1.19,1.513
						c-3.65-3.15-7.089-6.968-9.454-11.179C673.612,390.44,673.847,390.172,674.028,390.354z"/>
					<path style="fill:#004D02;" d="M683.06,402.333c0.778-1.053,2.144-1.717,3.208-2.461c1.159-0.81,2.292-1.654,3.427-2.497
						c2.161-1.605,4.32-3.23,6.445-4.883c0.214-0.166,0.478,0.149,0.309,0.347c-1.833,2.144-3.752,4.138-5.872,6.002
						c-1.018,0.895-2.073,1.751-3.136,2.592c-1.088,0.86-2.187,1.925-3.54,2.298C683.126,403.945,682.641,402.901,683.06,402.333z"
						/>
					<path style="fill:#004D02;" d="M681.527,419.784c0.48-0.915,1.122-0.981,2.035-1.335c1.009-0.391,1.988-0.906,2.93-1.434
						c2.282-1.278,4.515-2.785,6.589-4.388c0.191-0.148,0.395,0.121,0.268,0.296c-1.407,1.95-3.034,3.667-5.011,5.052
						c-0.914,0.64-1.867,1.224-2.844,1.764c-1.102,0.608-2.207,1.538-3.487,1.144C681.602,420.759,681.325,420.169,681.527,419.784z
						"/>
					<path style="fill:#004D02;" d="M674.25,413.366c2.822,3.738,6.366,7.185,8.689,11.263c0.467,0.819-0.769,1.522-1.353,0.855
						c-1.496-1.708-2.673-3.827-3.884-5.746c-1.282-2.032-2.506-4.111-3.84-6.108C673.694,413.378,674.069,413.127,674.25,413.366z"
						/>
					<path style="fill:#004D02;" d="M680.586,438.382c0.261-0.992,1.175-1.555,1.913-2.225c0.811-0.735,1.632-1.453,2.469-2.158
						c1.759-1.481,3.537-2.88,5.472-4.124c0.352-0.226,0.704,0.24,0.451,0.545c-1.486,1.795-3.109,3.409-4.81,4.999
						c-0.804,0.751-1.617,1.485-2.448,2.206c-0.705,0.612-1.356,1.439-2.318,1.547C680.844,439.226,680.457,438.873,680.586,438.382
						z"/>
					<path style="fill:#004D02;" d="M672.654,432.913c1.467,1.263,2.916,2.523,4.341,3.837c1.558,1.437,3.279,2.691,4.826,4.133
						c0.907,0.845-0.135,2.15-1.176,1.503c-3.451-2.145-6.467-5.6-8.338-9.164C672.19,432.998,672.438,432.727,672.654,432.913z"/>
				</g>
				<g>
					<polygon style="fill:#F09755;" points="708.047,443.491 699.689,477.311 664.76,477.392 656.247,443.61 					"/>
					<g>
						<polygon style="fill:#D47046;" points="678.452,477.36 671.237,477.377 666.585,443.586 676.848,443.563 						"/>
						<polygon style="fill:#D47046;" points="697.37,443.515 692.875,477.327 685.664,477.343 687.107,443.539 						"/>
					</g>
				</g>
				
					<rect x="652.624" y="438.085" transform="matrix(1 -0.0023 0.0023 1 -1.0192 1.576)" style="fill:#B55D46;" width="59.04" height="8.323"/>
			</g>
		</g>
		<g style="clip-path:url(#SVGID_00000160895158807601525770000006391848610894581408_);">
			<g>
				<g>
					<path style="fill:#4DBB00;" d="M51.422,434.017c0.511,1.019,1.345,1.835,2.062,2.721c0.031,0.038,0.06,0.079,0.091,0.117
						c1.548,1.962,2.524,4.35,2.871,6.818c0.172,1.234,0.19,2.492,0.04,3.73c-0.072,0.619-0.189,1.232-0.346,1.836
						c-0.068,0.263-0.24,0.598-0.226,0.869c0.059,0.97,0.701,2.01,1.418,2.621c0.468,0.401,1.02,0.682,1.61,0.849
						c0.454,0.13,0.931,0.19,1.404,0.178c1.115-0.019,2.221-0.42,3.03-1.19c2.441-2.326,1.748-6.704,4.146-9.08
						c2.115-2.099,5.795-1.784,8.188-3.417c0.293-0.202,0.57-0.432,0.818-0.7c2.074-2.219,1.378-5.733,0.729-8.695
						c-0.419-1.904-0.679-4.024-0.075-5.919c0.31-0.978,0.886-1.542,1.518-2.303c1.805-2.168,5.552-2.012,6.884-4.672
						c0.997-1.993-0.238-4.35-1.579-6.127c-1.161-1.54-2.893-3.505-2.708-5.559c0.186-2.069,1.715-3.841,3.078-5.286
						c1.816-1.926,3.787-4.416,2.965-6.93c-0.917-2.795-4.733-3.656-5.956-6.33c-0.761-1.668-0.316-3.633,0.382-5.327
						c0.701-1.694,1.649-3.323,1.902-5.139c0.271-1.931-0.587-3.242-1.659-4.727c-0.552-0.767-1.337-1.219-2.229-1.536
						c-3.344-1.193-7.621,0.41-9.062,3.729c-1.247,2.873-0.636,6.607-2.859,8.812c-2.14,2.124-5.867,1.697-8.175,3.633
						c-2.618,2.198-2.255,6.291-1.356,9.586c0.898,3.298,2.069,6.971,0.423,9.965c-1.746,3.177-6.307,4.747-6.582,8.361
						c-0.276,3.635,4.224,6.609,3.329,10.143c-0.306,1.199-1.182,2.132-2.035,2.98c-0.421,0.418-0.854,0.827-1.253,1.267
						c-0.343,0.376-0.743,0.793-0.901,1.287C50.942,431.722,50.869,432.923,51.422,434.017z"/>
					<path style="fill:#027F02;" d="M58.942,453.578c0.454,0.13,0.931,0.19,1.404,0.178c0.93-5.532,1.921-11.063,2.992-16.57
						c1.979-10.197,4.177-20.361,6.456-30.495c1.118-4.972,2.218-9.951,3.469-14.894c0.638-2.524,1.291-5.044,1.978-7.558
						c0.721-2.643,1.179-5.368,1.925-8c0.087-0.309-0.352-0.474-0.472-0.172c-1.125,2.829-2.398,5.544-3.35,8.449
						c-0.905,2.762-1.746,5.541-2.541,8.333c-2.817,9.89-5.047,19.912-7.179,29.967C61.478,432.951,58.955,443.17,58.942,453.578z"
						/>
					<path style="fill:#027F02;" d="M61.634,389.546c2.855,3.868,5.627,7.7,8.775,11.344c0.807,0.934-0.585,2.264-1.397,1.323
						c-3.152-3.648-5.998-7.926-7.724-12.438C61.21,389.571,61.482,389.34,61.634,389.546z"/>
					<path style="fill:#027F02;" d="M68.825,402.714c0.923-0.928,2.371-1.386,3.532-1.967c1.264-0.633,2.509-1.303,3.754-1.971
						c2.372-1.273,4.745-2.566,7.088-3.892c0.236-0.133,0.451,0.217,0.255,0.389c-2.126,1.854-4.315,3.547-6.684,5.082
						c-1.138,0.737-2.306,1.43-3.481,2.107c-1.202,0.693-2.444,1.586-3.837,1.758C68.655,404.318,68.327,403.214,68.825,402.714z"/>
					<path style="fill:#027F02;" d="M64.764,419.755c0.609-0.836,1.253-0.807,2.208-1.024c1.055-0.24,2.098-0.607,3.108-0.992
						c2.444-0.932,4.873-2.098,7.158-3.381c0.211-0.118,0.373,0.177,0.222,0.332c-1.676,1.724-3.536,3.185-5.694,4.267
						c-0.997,0.5-2.026,0.939-3.071,1.33c-1.179,0.441-2.408,1.2-3.617,0.624C64.696,420.73,64.508,420.107,64.764,419.755z"/>
					<path style="fill:#027F02;" d="M58.5,412.345c2.247,4.109,5.251,8.036,6.955,12.409c0.342,0.879-0.982,1.394-1.463,0.649
						c-1.231-1.908-2.087-4.176-3.005-6.251c-0.972-2.197-1.88-4.432-2.908-6.603C57.949,412.276,58.356,412.082,58.5,412.345z"/>
					<path style="fill:#027F02;" d="M61.123,438.017c0.403-0.944,1.389-1.367,2.217-1.922c0.909-0.609,1.826-1.2,2.757-1.775
						c1.956-1.209,3.919-2.333,6.015-3.283c0.381-0.173,0.661,0.341,0.367,0.605c-1.732,1.559-3.572,2.919-5.487,4.245
						c-0.905,0.626-1.817,1.233-2.743,1.826c-0.786,0.503-1.551,1.226-2.519,1.193C61.256,438.89,60.924,438.484,61.123,438.017z"/>
					<path style="fill:#027F02;" d="M54.072,431.45c1.267,1.463,2.518,2.921,3.735,4.428c1.332,1.649,2.852,3.14,4.172,4.792
						c0.774,0.969-0.447,2.107-1.382,1.315c-3.102-2.625-5.581-6.483-6.914-10.281C53.601,431.467,53.886,431.235,54.072,431.45z"/>
				</g>
				<g>
					<path style="fill:#4DBB00;" d="M53.561,432.445c-0.207,1.121-0.782,2.136-1.224,3.187c-0.02,0.046-0.036,0.093-0.055,0.138
						c-0.941,2.315-1.214,4.88-0.862,7.348c0.178,1.233,0.511,2.447,0.999,3.594c0.242,0.574,0.524,1.131,0.842,1.667
						c0.139,0.234,0.397,0.508,0.458,0.772c0.213,0.948-0.114,2.126-0.634,2.912c-0.339,0.515-0.79,0.939-1.31,1.263
						c-0.4,0.251-0.841,0.442-1.299,0.562c-1.077,0.292-2.25,0.214-3.242-0.301c-2.992-1.555-3.544-5.954-6.507-7.569
						c-2.616-1.428-6.062-0.102-8.815-1.005c-0.338-0.113-0.667-0.257-0.98-0.445c-2.609-1.555-2.918-5.123-3.119-8.149
						c-0.127-1.946-0.467-4.055-1.574-5.707c-0.57-0.853-1.28-1.235-2.098-1.79c-2.337-1.58-5.892-0.389-7.912-2.573
						c-1.512-1.637-0.981-4.245-0.187-6.325c0.687-1.802,1.804-4.172,1.055-6.093c-0.754-1.936-2.716-3.213-4.427-4.222
						c-2.28-1.345-4.866-3.189-4.775-5.832c0.103-2.94,3.53-4.828,3.961-7.737c0.267-1.814-0.707-3.578-1.848-5.011
						c-1.144-1.432-2.508-2.734-3.256-4.407c-0.798-1.78-0.337-3.277,0.279-5.002c0.317-0.89,0.945-1.542,1.714-2.096
						c2.88-2.076,7.434-1.725,9.741,1.061c1.997,2.413,2.448,6.17,5.197,7.669c2.646,1.445,6.108-0.002,8.863,1.216
						c3.126,1.383,3.915,5.416,3.969,8.831c0.054,3.418-0.049,7.271,2.365,9.689c2.561,2.566,7.378,2.806,8.647,6.201
						c1.276,3.415-2.22,7.523-0.376,10.669c0.627,1.067,1.729,1.719,2.784,2.296c0.521,0.284,1.051,0.557,1.556,0.869
						c0.434,0.266,0.934,0.555,1.223,0.985C53.384,430.107,53.787,431.24,53.561,432.445z"/>
					<path style="fill:#027F02;" d="M51.777,453.326c-0.4,0.251-0.841,0.442-1.299,0.562c-2.431-5.055-4.922-10.092-7.482-15.084
						c-4.736-9.244-9.674-18.397-14.681-27.497c-2.457-4.465-4.898-8.941-7.474-13.341c-1.315-2.247-2.643-4.486-4.002-6.709
						c-1.427-2.339-2.625-4.829-4.074-7.149c-0.169-0.273,0.207-0.553,0.406-0.297c1.867,2.404,3.845,4.659,5.568,7.184
						c1.637,2.401,3.218,4.837,4.758,7.298c5.456,8.716,10.386,17.723,15.229,26.788C43.604,434.218,48.87,443.332,51.777,453.326z"
						/>
					<path style="fill:#027F02;" d="M31.384,392.569c-1.667,4.51-3.263,8.961-5.274,13.337c-0.515,1.121,1.191,2.012,1.71,0.883
						c2.013-4.381,3.557-9.282,3.961-14.095C31.799,392.475,31.472,392.328,31.384,392.569z"/>
					<path style="fill:#027F02;" d="M28.139,407.217c-1.145-0.635-2.663-0.672-3.94-0.908c-1.39-0.256-2.772-0.554-4.154-0.849
						c-2.633-0.563-5.272-1.145-7.891-1.767c-0.264-0.063-0.373,0.334-0.137,0.444c2.558,1.19,5.131,2.207,7.834,3.023
						c1.298,0.392,2.613,0.732,3.929,1.056c1.347,0.331,2.789,0.843,4.174,0.622C28.749,408.71,28.756,407.559,28.139,407.217z"/>
					<path style="fill:#027F02;" d="M36.779,422.457c-0.817-0.633-1.428-0.426-2.406-0.37c-1.08,0.063-2.184,0.001-3.261-0.088
						c-2.607-0.215-5.264-0.66-7.816-1.257c-0.235-0.055-0.309,0.274-0.121,0.381c2.09,1.19,4.283,2.076,6.656,2.516
						c1.097,0.203,2.207,0.339,3.319,0.424c1.255,0.096,2.647,0.483,3.647-0.407C37.115,423.374,37.122,422.723,36.779,422.457z"/>
					<path style="fill:#027F02;" d="M40.735,413.597c-1.016,4.572-2.809,9.179-3.23,13.854c-0.085,0.939,1.331,1.066,1.586,0.217
						c0.652-2.175,0.843-4.591,1.148-6.84c0.323-2.381,0.573-4.78,0.958-7.151C41.245,413.377,40.8,413.304,40.735,413.597z"/>
					<path style="fill:#027F02;" d="M45.354,438.986c-0.649-0.794-1.714-0.927-2.664-1.23c-1.043-0.332-2.088-0.645-3.142-0.938
						c-2.215-0.617-4.413-1.152-6.69-1.48c-0.414-0.06-0.541,0.511-0.184,0.684c2.097,1.016,4.243,1.811,6.451,2.551
						c1.043,0.35,2.088,0.68,3.143,0.991c0.895,0.265,1.83,0.746,2.751,0.445C45.47,439.86,45.675,439.379,45.354,438.986z"/>
					<path style="fill:#027F02;" d="M50.301,430.717c-0.81,1.758-1.606,3.506-2.356,5.293c-0.821,1.954-1.866,3.81-2.675,5.763
						c-0.474,1.146,1.015,1.9,1.694,0.879c2.249-3.384,3.558-7.78,3.782-11.798C50.759,430.602,50.42,430.458,50.301,430.717z"/>
				</g>
				<g>
					<path style="fill:#027F02;" d="M62.478,440.621c-0.651,0.935-1.595,1.623-2.431,2.397c-0.037,0.034-0.071,0.07-0.107,0.103
						c-1.813,1.719-3.122,3.943-3.819,6.336c-0.348,1.197-0.546,2.439-0.575,3.686c-0.017,0.623,0.01,1.247,0.079,1.866
						c0.03,0.27,0.152,0.626,0.099,0.893c-0.197,0.952-0.982,1.889-1.78,2.391c-0.521,0.329-1.107,0.529-1.715,0.609
						c-0.468,0.063-0.949,0.055-1.416-0.025c-1.101-0.179-2.138-0.734-2.828-1.613c-2.082-2.652-0.768-6.886-2.8-9.58
						c-1.792-2.381-5.479-2.597-7.613-4.556c-0.261-0.242-0.502-0.509-0.709-0.81c-1.734-2.493-0.542-5.871,0.526-8.71
						c0.688-1.824,1.249-3.885,0.923-5.847c-0.167-1.012-0.655-1.653-1.172-2.497c-1.476-2.405-5.206-2.788-6.143-5.611
						c-0.701-2.115,0.859-4.271,2.442-5.837c1.37-1.358,3.366-3.054,3.478-5.113c0.112-2.074-1.146-4.048-2.288-5.673
						c-1.521-2.166-3.115-4.914-1.94-7.283c1.308-2.635,5.209-2.94,6.803-5.41c0.992-1.542,0.834-3.55,0.387-5.327
						c-0.45-1.777-1.155-3.525-1.146-5.358c0.009-1.95,1.047-3.124,2.319-4.44c0.657-0.68,1.498-1.014,2.426-1.201
						c3.481-0.701,7.483,1.499,8.433,4.99c0.822,3.022-0.319,6.63,1.565,9.131c1.814,2.409,5.563,2.521,7.569,4.768
						c2.275,2.551,1.329,6.549-0.033,9.681c-1.362,3.135-3.048,6.602-1.848,9.801c1.273,3.395,5.561,5.603,5.314,9.219
						c-0.248,3.637-5.129,5.935-4.749,9.561c0.131,1.231,0.864,2.279,1.587,3.241c0.357,0.474,0.727,0.941,1.058,1.434
						c0.285,0.421,0.622,0.891,0.707,1.403C63.282,438.419,63.182,439.617,62.478,440.621z"/>
					<path style="fill:#004D02;" d="M52.229,458.901c-0.468,0.063-0.949,0.055-1.416-0.025c-0.126-5.608-0.314-11.224-0.584-16.828
						c-0.496-10.375-1.212-20.75-2.014-31.106c-0.393-5.081-0.768-10.166-1.297-15.237c-0.269-2.589-0.554-5.177-0.873-7.763
						c-0.334-2.72-0.397-5.482-0.757-8.193c-0.042-0.318,0.417-0.418,0.492-0.103c0.707,2.961,1.578,5.831,2.104,8.842
						c0.499,2.863,0.933,5.734,1.319,8.611c1.369,10.192,2.139,20.43,2.805,30.687C52.678,438.123,53.709,448.599,52.229,458.901z"
						/>
					<path style="fill:#004D02;" d="M58.75,395.145c-3.38,3.419-6.673,6.813-10.312,9.968c-0.932,0.808,0.254,2.325,1.193,1.51
						c3.643-3.159,7.073-6.984,9.428-11.201C59.167,395.231,58.93,394.963,58.75,395.145z"/>
					<path style="fill:#004D02;" d="M49.745,407.146c-0.78-1.051-2.148-1.712-3.214-2.454c-1.161-0.807-2.296-1.649-3.433-2.489
						c-2.165-1.6-4.328-3.22-6.456-4.868c-0.214-0.166-0.478,0.15-0.308,0.348c1.838,2.14,3.761,4.13,5.886,5.988
						c1.02,0.893,2.077,1.746,3.142,2.585c1.09,0.858,2.191,1.92,3.545,2.29C49.684,408.758,50.166,407.712,49.745,407.146z"/>
					<path style="fill:#004D02;" d="M51.319,424.593c-0.483-0.914-1.124-0.978-2.038-1.33c-1.01-0.389-1.99-0.902-2.934-1.427
						c-2.285-1.273-4.521-2.775-6.598-4.373c-0.192-0.147-0.395,0.122-0.267,0.297c1.412,1.947,3.043,3.659,5.023,5.04
						c0.915,0.638,1.87,1.22,2.848,1.757c1.103,0.606,2.211,1.533,3.49,1.136C51.247,425.568,51.522,424.977,51.319,424.593z"/>
					<path style="fill:#004D02;" d="M58.581,418.159c-2.813,3.744-6.349,7.2-8.663,11.283c-0.465,0.82,0.772,1.52,1.355,0.852
						c1.492-1.711,2.664-3.833,3.871-5.755c1.278-2.035,2.496-4.117,3.826-6.117C59.137,418.168,58.762,417.919,58.581,418.159z"/>
					<path style="fill:#004D02;" d="M52.303,443.188c-0.263-0.992-1.178-1.552-1.918-2.22c-0.812-0.733-1.635-1.449-2.474-2.152
						c-1.762-1.477-3.544-2.872-5.482-4.111c-0.353-0.226-0.703,0.242-0.45,0.546c1.49,1.791,3.117,3.402,4.821,4.988
						c0.806,0.75,1.621,1.481,2.453,2.201c0.706,0.611,1.359,1.436,2.322,1.542C52.047,444.033,52.433,443.679,52.303,443.188z"/>
					<path style="fill:#004D02;" d="M60.223,437.701c-1.464,1.266-2.911,2.53-4.332,3.847c-1.555,1.44-3.273,2.699-4.816,4.144
						c-0.905,0.848,0.14,2.15,1.179,1.5c3.446-2.153,6.454-5.615,8.317-9.183C60.687,437.785,60.438,437.514,60.223,437.701z"/>
				</g>
				<g>
					<polygon style="fill:#F09755;" points="24.854,448.361 33.29,482.161 68.219,482.161 76.654,448.361 					"/>
					<g>
						<polygon style="fill:#D47046;" points="54.527,482.161 61.743,482.161 66.316,448.361 56.053,448.361 						"/>
						<polygon style="fill:#D47046;" points="35.531,448.361 40.104,482.161 47.315,482.161 45.794,448.361 						"/>
					</g>
				</g>
				
					<rect x="21.234" y="442.896" transform="matrix(-1 -1.224647e-16 1.224647e-16 -1 101.5086 894.1138)" style="fill:#B55D46;" width="59.04" height="8.323"/>
			</g>
			
				<linearGradient id="SVGID_00000084507686409447602740000005747129849969178042_" gradientUnits="userSpaceOnUse" x1="133.0312" y1="565.0848" x2="133.0312" y2="464.2306">
				<stop  offset="0.1391" style="stop-color:#130C0E;stop-opacity:0"/>
				<stop  offset="0.6804" style="stop-color:#130C0E;stop-opacity:0.6512"/>
				<stop  offset="1" style="stop-color:#130C0E;stop-opacity:0.95"/>
			</linearGradient>
			<polyline style="opacity:0.34;fill:url(#SVGID_00000084507686409447602740000005747129849969178042_);" points="33.29,482.161 
				126.645,561.039 232.773,561.039 68.219,482.161 33.29,482.161 			"/>
		</g>
		<g style="clip-path:url(#SVGID_00000160895158807601525770000006391848610894581408_);">
			<g>
				<g>
					<path style="fill:#6198E5;" d="M258.076,335.191h-82.661c0,0-23.705-93.182-18.843-166.058c0.11-1.648,0.246-3.287,0.408-4.913
						c6.883-69.751,59.076-117.51,59.759-118.128c0.003-0.006,0.007-0.01,0.007-0.01s52.834,47.928,59.762,118.137
						c0.162,1.626,0.298,3.264,0.408,4.913C281.778,242.008,258.076,335.191,258.076,335.191z"/>
					<path style="fill:#EF5B5B;" d="M276.508,164.22H156.98c6.928-70.21,59.766-118.137,59.766-118.137
						S269.579,94.01,276.508,164.22z"/>
					<path style="fill:#C63939;" d="M216.739,46.092c-0.557,0.824-34.943,47.288-42.823,118.128H156.98
						C163.863,94.468,216.056,46.709,216.739,46.092z"/>
					<path style="fill:#4482CC;" d="M184.752,335.191h-9.337c0,0-23.705-93.182-18.843-166.058c0.11-1.648,0.246-3.287,0.408-4.913
						h16.936c-1.353,12.142-1.926,25.003-1.415,38.474C174.968,267.806,182.965,317.245,184.752,335.191z"/>
					
						<radialGradient id="SVGID_00000003789997991740608320000008077918676428832646_" cx="206.1801" cy="179.3405" r="91.2195" gradientUnits="userSpaceOnUse">
						<stop  offset="0.5744" style="stop-color:#FFFFFF;stop-opacity:0"/>
						<stop  offset="0.7977" style="stop-color:#FFFFFF;stop-opacity:0.6512"/>
						<stop  offset="1" style="stop-color:#FFFFFF;stop-opacity:0.95"/>
					</radialGradient>
					<path style="opacity:0.73;fill:url(#SVGID_00000003789997991740608320000008077918676428832646_);" d="M263.342,140.085
						c-0.238-2.095-1.005-4.195-1.524-6.235c-1.014-3.993-2.169-7.952-3.463-11.867c-2.556-7.734-5.655-15.272-9.302-22.571
						c-2.427-4.858-5.085-9.609-7.87-14.276c-1.127-1.89-2.432-3.677-3.724-5.46c-0.646-0.891-1.3-1.775-1.963-2.653
						c-0.331-0.438-0.653-0.89-1.003-1.314c-1.544-1.872-2.96-2.941-5.081-4.122c-7.013-3.908-16.403,2.8-15.448,10.438
						c0.322,2.578,1.217,4.583,2.542,6.806c0.442,0.742,0.903,1.472,1.347,2.213c0.777,1.297,1.534,2.606,2.281,3.921
						c0.98,1.732,1.976,3.455,2.97,5.179c3.862,6.882,7.258,13.998,10.222,21.299c3.099,7.63,5.45,15.426,7.62,23.348
						c0.947,3.455,3.256,6.41,6.642,7.923c4.661,2.082,9.814,0.716,13.16-2.934c1.876-2.046,2.721-5.106,2.493-7.807
						c-0.213-0.947-0.427-1.895-0.64-2.843C263.404,140.855,263.65,141.174,263.342,140.085z"/>
				</g>
				<g>
					<g>
						<ellipse style="fill:#C4EBFF;" cx="216.703" cy="211.061" rx="36.615" ry="35.984"/>
						<path style="fill:#3E3E64;" d="M236.156,211.065c0,10.56-8.71,19.12-19.45,19.12c-8.88,0-16.37-5.84-18.7-13.83
							c-0.5-1.68-0.76-3.46-0.76-5.29c0-10.56,8.71-19.13,19.46-19.13c6.96,0,13.07,3.6,16.5,9.01
							C235.076,203.885,236.156,207.345,236.156,211.065z"/>
						<path style="fill:#2E2E4C;" d="M236.156,211.065c0,10.56-8.71,19.12-19.45,19.12c-8.88,0-16.37-5.84-18.7-13.83
							c0.85,0.5,1.76,0.92,2.71,1.23c4.66,1.54,10.09,0.51,13.86-2.63c2.55-2.12,4.28-5.02,6.23-7.69c1.94-2.68,4.29-5.28,7.43-6.33
							c1.58-0.53,3.39-0.52,4.97,0.01C235.076,203.885,236.156,207.345,236.156,211.065z"/>
					</g>
					<g>
						<path style="fill:#3E3E64;" d="M229.964,297.352h-25.375c-6.247,0-11.312-5.064-11.312-11.312v-12.843
							c0-6.247,5.064-11.312,11.312-11.312h25.375c6.247,0,11.312,5.064,11.312,11.312v12.843
							C241.275,292.287,236.211,297.352,229.964,297.352z"/>
						<g>
							<path style="fill:#2E2E4C;" d="M232.224,273.952c0,2.279-1.88,4.127-4.199,4.127c-2.319,0-4.199-1.848-4.199-4.127
								c0-2.279,1.88-4.127,4.199-4.127C230.344,269.825,232.224,271.672,232.224,273.952z"/>
						</g>
						<g>
							<ellipse style="fill:#2E2E4C;" cx="228.025" cy="283.74" rx="4.199" ry="4.127"/>
						</g>
					</g>
				</g>
				<g>
					<path style="fill:#C63939;" d="M175.415,385.771l-52.183,76.641c0,0,0-86.011,0-93.139c0-7.128,3.868-14.494,15.473-19.958
						c11.605-5.465,36.71-14.123,36.71-14.123S192.058,350.235,175.415,385.771z"/>
					<path style="fill:#C63939;" d="M258.076,385.771l52.183,76.641c0,0,0-86.011,0-93.139c0-7.128-3.868-14.494-15.473-19.958
						c-11.605-5.465-36.71-14.123-36.71-14.123S241.432,350.235,258.076,385.771z"/>
					<rect x="175.415" y="335.191" style="fill:#EF5B5B;" width="82.661" height="50.581"/>
					<path style="fill:#C63939;" d="M223.505,341.303v124.141h-12.439V341.303c0-3.376,2.785-6.112,6.219-6.112l0,0
						C220.721,335.191,223.505,337.927,223.505,341.303z"/>
				</g>
			</g>
			
				<linearGradient id="SVGID_00000055709259095244668450000001901885309263101829_" gradientUnits="userSpaceOnUse" x1="299.5629" y1="547.2313" x2="299.5629" y2="446.377">
				<stop  offset="0.1391" style="stop-color:#130C0E;stop-opacity:0"/>
				<stop  offset="0.6804" style="stop-color:#130C0E;stop-opacity:0.6512"/>
				<stop  offset="1" style="stop-color:#130C0E;stop-opacity:0.95"/>
			</linearGradient>
			<polyline style="opacity:0.34;fill:url(#SVGID_00000055709259095244668450000001901885309263101829_);" points="211.067,464.308 
				345.736,543.185 388.059,543.185 223.505,464.308 211.067,464.308 			"/>
		</g>
		<g style="clip-path:url(#SVGID_00000160895158807601525770000006391848610894581408_);">
			
				<linearGradient id="SVGID_00000031920749499282971800000000655990773146025348_" gradientUnits="userSpaceOnUse" x1="674.1937" y1="551.9943" x2="674.1937" y2="452.2385">
				<stop  offset="0.1391" style="stop-color:#130C0E;stop-opacity:0"/>
				<stop  offset="0.6804" style="stop-color:#130C0E;stop-opacity:0.6512"/>
				<stop  offset="1" style="stop-color:#130C0E;stop-opacity:0.95"/>
			</linearGradient>
			<polygon style="opacity:0.34;fill:url(#SVGID_00000031920749499282971800000000655990773146025348_);" points="613.466,470.401 
				552.721,469.974 716.351,547.992 795.666,547.992 			"/>
			<g>
				<g>
					<path style="fill:#FFBA95;" d="M589.187,248.299c-1.495,1.701-6.385,1.199-6.385,1.199l-1.125,8.399
						c0,0-9.139-1.308-9.316-0.842l-0.003,0.003c0.006-0.162,1.067-4.978,2.261-10.367c1.555-7.002,3.336-14.973,3.336-14.973
						l11.76-0.853C589.715,230.867,590.678,246.598,589.187,248.299z"/>
					<path style="fill:#FF7668;" d="M582.802,249.499l-1.125,8.399c0,0-9.139-1.308-9.316-0.842l-0.003,0.003
						c0.006-0.162,1.067-4.977,2.26-10.364c0-0.001,0.002-0.002,0.003-0.001C579.504,249.399,582.802,249.499,582.802,249.499z"/>
				</g>
				<g>
					<path style="fill:#D1D1E0;" d="M552.707,260.956c-0.23-0.131-0.505-0.18-0.758-0.1c-5.741,1.814-9.386,19.317-10.146,26.823
						c-0.776,7.674-1.872,25.068-0.996,32.082c0.876,7.014,9.527,21.122,12.475,19.196c2.948-1.925,12.787-35.981,11.618-54.374
						C563.856,268.169,554.671,262.077,552.707,260.956z"/>
				</g>
				<g>
					<path style="fill:#FF7668;" d="M550.748,380.16l0.421,16.22c0.001,0.035,0,0.065-0.002,0.1
						c-0.063,0.822-0.918,12.349,0.291,22.639c1.221,10.396,2.435,32.049,1.948,40.132c-0.023,0.384,0.161,0.753,0.491,0.952
						c8.576,5.157,20.124,7.524,25.462,4.298c0.598-0.361,0.69-1.189,0.172-1.657c-1.805-1.628-3.37-3.074-4.684-4.309
						c-3.178-2.984-4.733-7.279-4.222-11.651l4.247-70.034c0.039-0.651-0.531-1.173-1.176-1.075l-22.075,3.345
						C551.108,379.198,550.734,379.643,550.748,380.16z"/>
					<path style="fill:#231F20;" d="M553.065,456.748c0.704-3.422,7.004-1.98,9.346,0.066c4.398,3.841,7.653,5.519,9.801,6.238
						c1.677,0.562,3.563-0.137,4.529-1.645l0.585-0.645c0.281-0.31,0.717-0.42,1.109-0.274c2.492,0.926,11.456,4.459,13.946,8.195
						c0.447,0.671-0.075,1.57-0.881,1.564l-38.781-0.273c-0.501-0.003-0.923-0.365-1.005-0.859
						C551.496,467.798,551.46,464.548,553.065,456.748z"/>
				</g>
				<g>
					<path style="fill:#FFBA95;" d="M572.712,380.314l0.421,16.22c0.001,0.035,0,0.065-0.002,0.1
						c-0.064,0.822-0.918,12.349,0.29,22.639c1.221,10.396,2.435,32.049,1.948,40.132c-0.023,0.384,0.16,0.753,0.491,0.952
						c8.576,5.156,20.125,7.524,25.462,4.298c0.598-0.361,0.69-1.189,0.172-1.658c-1.805-1.628-3.37-3.074-4.684-4.309
						c-3.177-2.984-4.733-7.279-4.222-11.651l4.247-70.034c0.039-0.651-0.531-1.173-1.176-1.075l-22.075,3.345
						C573.072,379.352,572.699,379.797,572.712,380.314z"/>
					<path style="fill:#3E3E64;" d="M575.03,456.902c0.704-3.422,7.004-1.98,9.346,0.066c4.398,3.841,7.653,5.519,9.801,6.238
						c1.677,0.562,3.563-0.137,4.529-1.645l0.585-0.645c0.281-0.31,0.717-0.42,1.109-0.274c2.492,0.927,11.456,4.459,13.946,8.195
						c0.447,0.671-0.075,1.57-0.881,1.564l-38.781-0.272c-0.501-0.004-0.923-0.365-1.005-0.859
						C573.461,467.953,573.424,464.703,575.03,456.902z"/>
				</g>
				<path style="fill:#63A2C1;" d="M546.466,380.09c29.26,0.206,54.02-0.326,54.02-0.326s6.99-32.589,0.312-54.425
					c0-0.001,0-0.001-0.001-0.002c-6.049-15.293-7.61-15.086-7.61-15.086l-36.125-0.472c-0.001,0-0.001-0.001-0.002,0
					c-0.032,0.06-13.951,26.103-10.601,70.302C546.458,380.087,546.462,380.09,546.466,380.09z"/>
				<g>
					<path style="fill:#FFFFFF;" d="M603.751,332.362l-2.59-0.018c-0.943-4.095-2.252-8.766-3.62-10.513
						c0,0-2.661,5.394-4.37,10.457l-44.885-0.315l7.575-26.62c0,0-6.161-16.806-7.817-23.668
						c-1.659-6.862-2.114-14.155,1.351-19.231c3.464-5.076,8.522-5.639,22.966-5.397c17.288,0.287,25.378,2.094,27.103,7.206
						c1.728,5.112,0.029,18.072-4.124,40.634c0,0.003,0,0.006,0.001,0.009C601.762,317.669,603.751,332.362,603.751,332.362z"/>
					<path style="fill:#D1D1E0;" d="M566.938,290.698c0,0,9.815,11.269,2.65,25.331c0,0-0.001,0-0.001,0
						C571.256,302.6,566.938,290.698,566.938,290.698z"/>
				</g>
				<g>
					<g>
						<path style="fill:#FF7668;" d="M613.874,261.626c-0.832-1.794-1.668-4.965-0.132-9.017c0.04-0.105,0.095-0.209,0.163-0.298
							c1.556-2.025,4.568-2.367,6.449-2.364c0.772,0.001,1.256,0.834,0.888,1.513l-5.536,10.223
							C615.304,262.428,614.23,262.394,613.874,261.626z"/>
						<path style="fill:#FFBA95;" d="M614.99,263.377c-0.084-0.062-0.153-0.132-0.217-0.214c-1.61-2.085-1.221-6.198-0.162-7.993
							c1.076-1.824,11.779-9.445,13.18-9.436c1.401,0.008,1.852,1.316-0.349,3.262c-1.051,0.929-1.828,1.687-2.354,2.225
							c-0.417,0.426-0.367,1.095,0.074,1.496c0.323,0.294,0.623,0.705,0.697,1.25c0.173,1.289,0.017,1.701,0.56,2.595
							c0.543,0.894,0.426,2.16-0.032,3.184c-0.459,1.024-4.475,4.944-7.573,4.69C616.391,264.238,615.335,263.632,614.99,263.377z"
							/>
						<path style="fill:#FFBA95;" d="M613.824,260.301l-3.42,11.249c-0.19,0.625,0.246,1.266,0.897,1.319l8.794,0.72
							c0.558,0.046,1.05-0.365,1.103-0.923l1.101-11.439c0.055-0.569-0.367-1.073-0.936-1.119l-6.475-0.53
							C614.407,259.539,613.964,259.84,613.824,260.301z"/>
						<path style="fill:#D1D1E0;" d="M609.732,266.828c0,0-5.779,25.013-6.48,28.21c-0.701,3.197-2.491,18.987,10.979,18.161
							c8.264-0.507,12.308-44.746,12.308-44.746L609.732,266.828z"/>
					</g>
					<g>
						<path style="fill:#FFFFFF;" d="M596.949,261.518c-6.133-2.895-12.733,8.094-9.411,16.324
							c4.383,10.857,13.422,33.486,19.008,35.279c6.732,2.161,12.704,0.236,12.107-6.221
							C617.904,298.792,602.358,264.071,596.949,261.518z"/>
						<path style="fill:#D1D1E0;" d="M596.097,298.349c-0.182-0.001-0.356-0.104-0.439-0.28c-3.203-6.734-6.286-14.373-8.325-19.427
							l-0.249-0.616c-1.085-2.688-1.22-5.881-0.38-8.989c0.071-0.261,0.34-0.416,0.6-0.345c0.261,0.071,0.416,0.339,0.345,0.6
							c-0.785,2.903-0.663,5.875,0.343,8.367l0.249,0.616c2.035,5.044,5.111,12.666,8.302,19.373
							c0.116,0.244,0.013,0.536-0.232,0.652C596.242,298.334,596.169,298.349,596.097,298.349z"/>
					</g>
				</g>
				<g>
					<g>
						<path style="fill:#231F20;" d="M587.469,223.534c0,0,4.654,0.64,3.538,6.719c-1.116,6.079-7.966,2.559-8.697,8.564
							c-0.177,3.516,1.256,3.643-2.566,7.859c-4.79,4.948,0.668,7.166-3.945,11.648c-4.613,4.482-1.674,6.724-0.88,10.269
							c0.794,3.545-4.821,5.726-3.038,12.744l-36.59-0.257c0,0,2.237-0.975,1.477-5.806s0.901-3.943,4.241-8.278
							s1.121-7.585,3.382-12.034c1.965-3.663,5.452-2.724,7.051-7.334c2.5-7.209,5.653-7.451,7.841-10.705
							c2.188-3.254,3.097-12.627,10.451-14.288C577.086,220.975,582.443,222.409,587.469,223.534z"/>
					</g>
					<g>
						<path style="fill:#FF7668;" d="M584.681,235.281c-1.053,0.492-2.324,1.399-2.384,2.929c-0.104,2.63,3.229,3.577,3.239,3.322
							c0.005-0.125-1.367-1.657-1.196-3.266L584.681,235.281z"/>
						<path style="fill:#FF9E73;" d="M586.112,234.411c-0.428-0.352-0.715-0.199-1.395,0.766c-0.68,0.965-1.453,2.239-1.335,3.326
							c0.118,1.087,0.735,3.766,1.878,3.27c1.144-0.496-0.55-2.331-0.429-3.377C584.952,237.35,587.118,235.239,586.112,234.411z"/>
					</g>
				</g>
			</g>
		</g>
		<g style="clip-path:url(#SVGID_00000160895158807601525770000006391848610894581408_);">
			<g>
				<g>
					<g>
						<polygon style="fill:#FFBA95;" points="418.809,271.108 425.939,278.36 434.158,270.804 425.007,262.982 						"/>
						<path style="fill:#FF7668;" d="M423.607,259.994c0,0-19.033-2.309-20.589-2.497c-1.556-0.189-1.261,2.833,0.109,2.999
							c3.831,0.465,9.217,1.118,9.217,1.118s0.289,7.815,2.515,9.458c4.021,2.967,11.355,1.583,11.942-5.554
							C427.201,260.672,423.607,259.994,423.607,259.994z"/>
						<path style="fill:#FFBA95;" d="M412.064,261.535c-2.213-0.167-2.142,2.198-0.535,2.594c-0.772,1.155-0.889,2.638,0.536,2.81
							c-0.953,1.53-0.148,2.714,0.752,2.823s4.028,0.564,5.091,0.693c2.189,0.265,2.283-2.518,0.418-2.819
							c1.02-0.849,1.144-2.544-0.31-3.095c1.62-0.776,1.133-1.448,0.083-2.174C417.048,261.643,412.064,261.535,412.064,261.535z"/>
						<path style="fill:#FFBA95;" d="M426.245,268.271c-1.356,0.702-3.618,0.83-3.983-2.833c-0.365-3.663-1.095-4.757-1.095-4.757
							s-2.188,0.234-3.868-0.033c-1.681-0.266-4.31-2.582-3.131-3.375c1.179-0.793,2.604,1.002,4.151,0.815
							c1.547-0.187,6.131-0.944,7.29,0.444C426.767,259.923,429.369,266.653,426.245,268.271z"/>
					</g>
					<g>
						<path style="fill:#FFFFFF;" d="M433.87,266.713l-10.618,12.174c0,0,19.742,30.572,35.024,29.996
							c11.429-0.431,32.665-38.257,32.665-38.257s-13.407-10.91-16.769-10.781c-8.67,11.868-16.633,24.26-16.633,24.26
							L433.87,266.713z"/>
					</g>
				</g>
				<g>
					<g>
						<polygon style="fill:#3E3E64;" points="506.67,352.753 499.879,352.419 496.642,466.043 468.98,452.862 472.715,332.731 
							505.991,330.395 						"/>
						<path style="fill:#2E2E4C;" d="M492.404,451.968c0.118-3.96,0.247-7.919,0.352-11.879c0.213-7.97,0.426-15.94,0.64-23.91
							c0.42-15.698,0.858-31.397,1.198-47.095c0.19-8.762,0.463-17.552,0.142-26.299c-0.01-0.273-0.4-0.236-0.423,0.023
							c-0.716,7.978-0.951,15.987-1.213,23.978c-0.257,7.83-0.494,15.659-0.716,23.489c-0.447,15.725-0.88,31.45-1.316,47.175
							c-0.122,4.422-0.228,8.844-0.337,13.266c-0.109,4.408-0.32,8.831-0.242,13.236c0.017,0.948,1.413,0.829,1.477-0.082
							C492.244,459.908,492.285,455.933,492.404,451.968z"/>
						<path style="fill:#231F20;" d="M496.642,466.043c0,0-5.476-12.443-21.626-14.459c-6.621-1.031-16.563,7.056-23.159,13.861
							C475.097,465.444,496.642,466.043,496.642,466.043z"/>
					</g>
					<g>
						<path style="fill:#3E3E64;" d="M531.254,466.494l-27.639-12.635l-1.7-109.448l-2.797-19.107
							c4.4,0.156,8.288,0.662,11.688,1.368c12.966,2.695,18.836,8.285,18.836,8.285l0.162,13.173L531.254,466.494z"/>
						<path style="fill:#2E2E4C;" d="M525.299,448.244c0.01-3.972,0.031-7.943,0.029-11.915c-0.004-7.994-0.008-15.989-0.011-23.983
							c-0.007-15.746,0.003-31.493-0.084-47.239c-0.049-8.789-0.015-17.605-0.574-26.38c-0.018-0.274-0.406-0.237-0.423,0.023
							c-0.499,8.002-0.515,16.036-0.56,24.051c-0.044,7.854-0.067,15.707-0.077,23.561c-0.018,15.773-0.023,31.547-0.031,47.32
							c-0.002,4.435,0.013,8.871,0.024,13.306c0.011,4.422-0.079,8.859,0.118,13.277c0.042,0.951,1.435,0.832,1.475-0.082
							C525.355,456.209,525.289,452.222,525.299,448.244z"/>
						<path style="fill:#2E2E4C;" d="M529.803,348.131c-10.645-6.809-16.606-16.73-18.998-21.458
							c12.966,2.695,18.836,8.285,18.836,8.285L529.803,348.131z"/>
						<path style="fill:#231F20;" d="M531.254,466.492c0,0-3.223-12.53-19.491-14.56c-6.681-1.038-16.716,7.106-22.913,13.958
							C512.09,465.889,531.254,466.492,531.254,466.492z"/>
					</g>
				</g>
				<g>
					<path style="fill:#D1D1E0;" d="M492.061,252.152c0,0-3.131,16.828,4.501,21.156c5.675-2.308,14.384-12.405,14.384-20.579
						C508.891,250.902,502.237,245.036,492.061,252.152z"/>
					<path style="fill:#EF5B5B;" d="M529.641,334.958h-58.179l0.372-10.306l2.337-64.807c0,0,1.661-2.253,5.679-3.242
						c2.393-0.585,6.291-1.696,9.055-2.494c1.884-0.547,3.241-0.951,3.241-0.951s-0.295,16.682,4.358,18.13
						c3.671-0.388,12.4-10.532,13.491-19.794c1.298,0.493,2.697,0.993,4.128,1.489c6.948,2.412,14.715,4.795,16.113,6.408
						c-0.075,10.945-0.489,47.231-0.602,65.262C529.599,330.554,529.593,334.5,529.641,334.958z"/>
					<path style="fill:#C63939;" d="M514.124,252.982c-1.444,9.224-12.823,22.717-18.318,22.476
						c-6.357-0.278-7.375-16.103-6.899-21.35c1.884-0.547,3.241-0.951,3.241-0.951s-0.295,16.682,4.358,18.13
						c3.671-0.388,12.4-10.532,13.491-19.794C511.294,251.986,512.693,252.486,514.124,252.982z"/>
					<path style="fill:#FFFFFF;" d="M496.1,262.672c0,0-1.126-4.612-2.347-5.258c-1.22-0.646-2.91,4.151-2.91,4.151
						s-0.751-11.531,5.162-14.944c5.913-3.413,11.263-1.937,12.671,0.554s3.67,5.313-3.015,16.65
						C503.785,257.922,500.887,254.277,496.1,262.672z"/>
					<path style="fill:#C63939;" d="M529.641,334.958h-58.179l0.372-10.306h57.8C529.599,330.554,529.593,334.5,529.641,334.958z"/>
				</g>
				<g>
					<g>
						<path style="fill:#FF7668;" d="M498.684,285.426c0,0-1.792-5.005-4.149-6.673c-2.358-1.668-9.525-0.834-9.525-0.834
							l5.187,8.527L498.684,285.426z"/>
						<polygon style="fill:#3E3E64;" points="491.383,282.193 486.094,267.565 451.057,267.565 466.396,305.047 498.835,305.047 
													"/>
						<g>
							<path style="fill:#FFBA95;" d="M506.775,290.919c0,0-8.288-6.749-10.3-8.029c-2.013-1.28-4.61-1.085-5.091-0.698
								c-0.481,0.387,0.051,2.434-3.433,2.327c-3.484-0.106-8.406,0-11.011,0c-2.605,0-2.249,2.793-0.592,2.793
								s2.486,0.116,2.486,0.116s-0.816,1.967,2.486,2.327c0.237,2.094,2.841,1.978,3.789,2.094
								c1.184,2.327,3.434,1.862,8.051,1.862c6.275,5.236,6.275,5.236,6.275,5.236L506.775,290.919z"/>
							<path style="fill:#FF7668;" d="M484.969,287.918h-6.136c-0.27,0-0.49-0.219-0.49-0.49c0-0.271,0.219-0.49,0.49-0.49h6.136
								c0.27,0,0.49,0.219,0.49,0.49C485.459,287.699,485.24,287.918,484.969,287.918z"/>
							<path style="fill:#FF7668;" d="M487.455,290.245h-6.136c-0.27,0-0.49-0.219-0.49-0.49s0.219-0.49,0.49-0.49h6.136
								c0.27,0,0.49,0.219,0.49,0.49S487.726,290.245,487.455,290.245z"/>
							<path style="fill:#FF7668;" d="M488.773,292.34h-3.665c-0.27,0-0.49-0.219-0.49-0.49c0-0.27,0.219-0.49,0.49-0.49h3.665
								c0.27,0,0.49,0.219,0.49,0.49C489.263,292.121,489.044,292.34,488.773,292.34z"/>
						</g>
					</g>
					<g>
						<path style="fill:#FFFFFF;" d="M496.012,299.289l9.905-13.025l14.788,7.952c0,0,1.116-25.365,3.069-29.89
							c1.953-4.525,3.577-5.348,6.462-4.936c2.885,0.412,6.513,3.017,9.024,17.002c2.511,13.985,4.743,36.334-1.814,41.681
							c-6.557,5.347-16.67,0.656-20.648-1.782C502.709,307.653,496.012,299.289,496.012,299.289z"/>
						<path style="fill:#D1D1E0;" d="M533.806,301.402c-0.075,0-0.151-0.017-0.222-0.054l-13.1-6.696
							c-0.241-0.123-0.336-0.418-0.213-0.659c0.123-0.241,0.419-0.336,0.659-0.213l13.1,6.696c0.241,0.123,0.336,0.418,0.213,0.659
							C534.155,301.304,533.984,301.402,533.806,301.402z"/>
					</g>
				</g>
				<g>
					<path style="fill:#231F20;" d="M486.902,232.153c0,0-0.695-4.35-0.569-6.711c0.126-2.361,3.414-4.163,3.414-4.163
						s-3.983,0.746-3.667-0.062c0.316-0.808,6.702-4.785,14.163-4.412s9.927,3.79,9.927,6.276c2.655-0.497,5.058,3.728,5.185,7.767
						c-0.443,0.124-1.707-1.491-1.707-1.491s-0.523,4.077-2.823,6.202C508.526,237.683,489.242,237.062,486.902,232.153z"/>
					<path style="fill:#FF7668;" d="M488.334,232.774c0,0-0.71-1.571-2.131-1.745c-1.421-0.174-2.131,2.618-1.243,4.189
						c0.888,1.571,3.139,4.058,3.108,3.84C488.036,238.839,489.311,236.439,488.334,232.774z"/>
					<g>
						<path style="fill:#FFBA95;" d="M507.969,236.825l-0.57,10.357c-0.175,3.179-1.987,6.052-4.807,7.62
							c-1.059,0.589-2.087,1.16-2.807,1.559c-2.215,1.222-3.047,4.486-3.047,4.486s-1.936-3.398-1.936-5.982
							c0-1.047,0.045-2.469,0.097-3.796c0.081-1.947,0.178-3.684,0.178-3.684s-6.501,0.137-7.194-3.672
							c-0.48-2.637-0.301-9.728-0.146-13.842c0.064-1.699,1.513-3.026,3.242-2.972l13.221,0.412l-0.025,2.946
							c-0.006,0.724,0.415,1.387,1.08,1.698l0,0c0.635,0.298,1.051,0.919,1.078,1.609
							C506.457,236.705,507.969,236.825,507.969,236.825z"/>
						<path style="fill:#FF7668;" d="M504.929,246.128c-2.399,3.061-6.964,4.381-10.03,4.941c0.081-1.947,0.178-3.684,0.178-3.684
							c4.97-0.655,6.928-1.359,9.182-3.363c2.253-2.005,2.214-7.515,2.214-7.515S507.302,243.103,504.929,246.128z"/>
					</g>
					<g>
						<path style="fill:#FFBA95;" d="M506.087,235.817c0,0,0.819-3.755,3.366-4.113c2.547-0.358,3.23,2.191,2.456,4.247
							s-1.911,3.8-3.639,3.755c-1.729-0.045-2.229-2.146-2.229-2.146L506.087,235.817z"/>
						<path style="fill:#FF7668;" d="M510.825,235.558c0,0,0.436-2.88-0.752-2.958c-1.188-0.078-2.416,1.44-2.812,2.724
							c0.99-0.078,1.465,0.272,1.386,1.206c-0.079,0.934-1.386,1.051-1.386,1.051s1.148,0.35,1.94-0.234
							c0.792-0.584,0.396-2.452-0.594-2.646c0.594-0.778,0.95-1.401,1.386-1.129C510.429,233.846,510.825,235.558,510.825,235.558z"
							/>
					</g>
					<g>
						<path style="fill:#231F20;" d="M499.333,232.408c-1.147-0.543-2.272,0.562-1.719,1.69c0.104,0.212,0.283,0.387,0.498,0.49
							c1.147,0.543,2.272-0.562,1.719-1.69C499.727,232.685,499.549,232.51,499.333,232.408z"/>
						<path style="fill:#231F20;" d="M496.727,231.661c0,0,1.126-0.654,2.354-0.503c1.228,0.151,2.354,0.704,2.354,0.704
							s-0.501-1.811-2.508-1.811C497.136,230.052,496.727,231.661,496.727,231.661z"/>
					</g>
					<g>
						<path style="fill:#231F20;" d="M491.605,232.408c-1.147-0.543-2.272,0.562-1.719,1.69c0.104,0.212,0.283,0.387,0.498,0.49
							c1.147,0.543,2.272-0.562,1.719-1.69C492,232.685,491.821,232.51,491.605,232.408z"/>
						<path style="fill:#231F20;" d="M488.589,231.46c0,0,0.979-0.654,2.047-0.503c1.068,0.151,2.047,0.704,2.047,0.704
							s-0.436-1.811-2.181-1.811C488.945,229.851,488.589,231.46,488.589,231.46z"/>
					</g>
					<path style="fill:#FF7668;" d="M493.285,232.122c0,0,0.73,1.993-0.06,3.226c-0.242,0.378-0.694,0.71-1.102,0.955
						c-0.413,0.247-0.774,0.687-0.196,1.332c0.578,0.645,1.448,1.206,1.448,1.206l-0.843-1.537
						c-0.128-0.305,0.301-0.586,0.564-0.792c0.391-0.307,0.879-0.777,1.032-1.282C494.641,233.542,493.285,232.122,493.285,232.122z
						"/>
					<g>
						<path style="fill:#FFFFFF;" d="M491.941,240.092c0,0,0.752,1.584,3.152,1.514c2.399-0.07,3.366-1.725,3.366-1.725
							L491.941,240.092z"/>
						<path style="fill:#FF7668;" d="M491.941,240.092c0,0,0.634,0.436,2.938,0.392s3.58-0.603,3.58-0.603
							S496.638,239.39,491.941,240.092z"/>
					</g>
				</g>
			</g>
			
				<linearGradient id="SVGID_00000160909370781765219470000001181376563509490582_" gradientUnits="userSpaceOnUse" x1="573.8322" y1="548.3673" x2="573.8322" y2="447.5132">
				<stop  offset="0.1391" style="stop-color:#130C0E;stop-opacity:0"/>
				<stop  offset="0.6804" style="stop-color:#130C0E;stop-opacity:0.6512"/>
				<stop  offset="1" style="stop-color:#130C0E;stop-opacity:0.95"/>
			</linearGradient>
			<polygon style="opacity:0.34;fill:url(#SVGID_00000160909370781765219470000001181376563509490582_);" points="451.857,465.444 
				623.37,544.321 695.808,544.321 531.254,465.444 			"/>
		</g>
		<g style="clip-path:url(#SVGID_00000160895158807601525770000006391848610894581408_);">
			<g>
				<g>
					<g>
						<polygon style="fill:#3E3E64;" points="313.654,335.254 313.457,349.989 311.916,465.444 307.697,465.444 306.156,349.989 
							305.958,335.254 						"/>
						<polygon style="fill:#3E3E64;" points="289.301,335.254 287.032,349.989 269.442,465.444 264.456,465.444 279.647,349.989 
							281.605,335.254 						"/>
						<polygon style="fill:#3E3E64;" points="355.322,465.444 350.336,465.444 332.746,349.989 330.477,335.254 338.169,335.254 
							340.131,349.989 						"/>
						<polygon style="fill:#2E2E4C;" points="281.605,335.254 289.301,335.254 287.032,349.989 279.647,349.989 						"/>
						<polygon style="fill:#2E2E4C;" points="305.958,335.254 313.654,335.254 313.457,349.989 306.156,349.989 						"/>
						<polygon style="fill:#2E2E4C;" points="340.131,349.989 332.746,349.989 330.477,335.254 338.169,335.254 						"/>
						<g>
							<rect x="275.359" y="330.196" style="fill:#231F20;" width="68.894" height="10.292"/>
							<rect x="266.521" y="326.766" style="fill:#2E2E4C;" width="86.572" height="6.861"/>
						</g>
					</g>
					<g>
						<rect x="273.51" y="314.457" style="fill:#596B85;" width="67.746" height="12.309"/>
						<rect x="273.51" y="314.457" style="fill:#425770;" width="40.795" height="12.309"/>
						<ellipse style="fill:#EF5B5B;" cx="295.922" cy="319.428" rx="1.588" ry="1.561"/>
						<path style="fill:#EF5B5B;" d="M301.89,319.428c0,0.862-0.711,1.561-1.588,1.561c-0.877,0-1.588-0.699-1.588-1.561
							s0.711-1.561,1.588-1.561C301.179,317.868,301.89,318.566,301.89,319.428z"/>
						<ellipse style="fill:#EF5B5B;" cx="304.682" cy="319.428" rx="1.588" ry="1.561"/>
						<path style="fill:#8EB427;" d="M310.65,319.428c0,0.862-0.711,1.561-1.588,1.561c-0.877,0-1.588-0.699-1.588-1.561
							s0.711-1.561,1.588-1.561C309.939,317.868,310.65,318.566,310.65,319.428z"/>
						<path style="fill:#425770;" d="M334.566,276.19v45.042c0,1.534-1.263,2.778-2.826,2.778c-1.561,0-2.826-1.244-2.826-2.778
							V276.19c0-1.534,1.266-2.778,2.826-2.778c0.784,0,1.489,0.312,2.001,0.815C334.251,274.73,334.566,275.424,334.566,276.19z"/>
						<rect x="328.913" y="282.144" style="fill:#596B85;" width="5.653" height="4.763"/>
					</g>
				</g>
				<g>
					<g>
						<path style="fill:#596B85;" d="M237.769,273.87c0,0.643-0.265,1.235-0.698,1.654c-0.426,0.426-1.029,0.686-1.683,0.686h-6.939
							c-1.316,0-2.381-1.047-2.381-2.34c0-0.643,0.265-1.235,0.698-1.654c0.426-0.426,1.029-0.686,1.683-0.686h6.939
							C236.703,271.53,237.769,272.577,237.769,273.87z"/>
						<path style="fill:#94A3B4;" d="M237.769,273.87c0,0.643-0.265,1.235-0.698,1.654c-0.426,0.426-1.029,0.686-1.683,0.686
							c-1.316,0-2.382-1.047-2.382-2.34c0-0.643,0.265-1.235,0.698-1.654c0.426-0.426,1.029-0.686,1.683-0.686
							C236.703,271.53,237.769,272.577,237.769,273.87z"/>
					</g>
					<g>
						<path style="fill:#231F20;" d="M279.397,454c-10.944,0-19.875-8.73-19.932-19.508l-0.651-112.33l-0.201-40.045
							c-0.02-3.876-3.245-7.016-7.196-7.016c-0.013,0-0.025,0-0.038,0l-15.735,0.049c-0.001,0-0.002,0-0.003,0
							c-0.629,0-1.141-0.509-1.142-1.139c-0.002-0.631,0.508-1.144,1.139-1.146l15.733-0.049c0.017,0,0.033,0,0.05,0
							c5.203,0,9.451,4.157,9.478,9.289l0.202,40.045l0.651,112.33c0.05,9.523,7.958,17.236,17.647,17.236c0.032,0,0.062,0,0.093,0
							c4.718-0.024,9.143-1.851,12.459-5.145c3.312-3.288,5.122-7.646,5.097-12.269l-0.633-108.833
							c-0.004-0.631,0.505-1.146,1.136-1.149c0.002,0,0.004,0,0.007,0c0.628,0,1.139,0.507,1.143,1.136l0.633,108.833
							c0.028,5.242-2.022,10.18-5.772,13.904c-3.745,3.719-8.737,5.781-14.058,5.808C279.467,454,279.432,454,279.397,454z"/>
					</g>
				</g>
			</g>
			<g>
				
					<linearGradient id="SVGID_00000051358296493219321120000014886300692160946594_" gradientUnits="userSpaceOnUse" x1="434.3108" y1="548.3673" x2="434.3108" y2="447.5131">
					<stop  offset="0.1391" style="stop-color:#130C0E;stop-opacity:0"/>
					<stop  offset="0.6804" style="stop-color:#130C0E;stop-opacity:0.6512"/>
					<stop  offset="1" style="stop-color:#130C0E;stop-opacity:0.95"/>
				</linearGradient>
				<polygon style="opacity:0.34;fill:url(#SVGID_00000051358296493219321120000014886300692160946594_);" points="267.98,465.444 
					264.456,465.444 409.1,544.321 604.165,544.321 439.611,465.444 				"/>
			</g>
			<g>
				<g>
					<polygon style="fill:#2C2C4C;" points="335.272,272.087 336.743,269.819 397.269,270.095 410.04,306.506 406.918,306.187 					
						"/>
					<polygon style="fill:#3E3E64;" points="395.387,272.087 407.342,306.187 347.227,306.187 335.272,272.087 					"/>
					
						<rect x="347.227" y="306.187" transform="matrix(-1 -1.224647e-16 1.224647e-16 -1 783.3969 618.1629)" style="fill:#3E3E64;" width="88.942" height="5.789"/>
					
						<rect x="406.918" y="306.187" transform="matrix(-1 -1.224647e-16 1.224647e-16 -1 843.0874 618.1629)" style="fill:#2C2C4C;" width="29.252" height="5.789"/>
					<path style="fill:#FFFFFF;" d="M367.896,291.956c0.902,2.44,3.556,4.418,5.926,4.418s3.561-1.978,2.659-4.418
						c-0.902-2.44-3.555-4.418-5.926-4.418C368.184,287.538,366.994,289.516,367.896,291.956z"/>
				</g>
				<g>
					<g>
						<polygon style="fill:#3E3E64;" points="439.612,465.444 434.569,465.444 428.01,330.852 427.148,313.675 434.928,313.675 
							435.479,330.852 						"/>
						<polygon style="fill:#2E2E4C;" points="435.479,330.852 428.01,330.852 427.148,313.675 434.928,313.675 						"/>
					</g>
					<g>
						<polygon style="fill:#3E3E64;" points="411.016,465.444 405.974,465.444 399.415,330.852 398.553,313.675 406.333,313.675 
							406.884,330.852 						"/>
						<polygon style="fill:#2E2E4C;" points="406.884,330.852 399.415,330.852 398.553,313.675 406.333,313.675 						"/>
					</g>
					<g>
						<polygon style="fill:#3E3E64;" points="346.01,465.444 351.053,465.444 357.612,330.852 358.474,313.675 350.694,313.675 
							350.143,330.852 						"/>
						<polygon style="fill:#2E2E4C;" points="350.143,330.852 357.612,330.852 358.474,313.675 350.694,313.675 						"/>
					</g>
					<g>
						<polygon style="fill:#3E3E64;" points="374.605,465.444 379.648,465.444 386.207,330.852 387.069,313.675 379.289,313.675 
							378.738,330.852 						"/>
						<polygon style="fill:#2E2E4C;" points="378.738,330.852 386.207,330.852 387.069,313.675 379.289,313.675 						"/>
					</g>
					<rect x="339.841" y="311.976" style="fill:#231F20;" width="103.843" height="6.852"/>
				</g>
				<g>
					<path style="fill:#596B85;" d="M237.769,283.659c0,0.643-0.265,1.235-0.698,1.654c-0.426,0.426-1.029,0.686-1.683,0.686h-6.939
						c-1.316,0-2.381-1.047-2.381-2.34c0-0.643,0.265-1.235,0.698-1.654c0.426-0.426,1.029-0.686,1.683-0.686h6.939
						C236.703,281.318,237.769,282.366,237.769,283.659z"/>
					<path style="fill:#94A3B4;" d="M237.769,283.659c0,0.643-0.265,1.235-0.698,1.654c-0.426,0.426-1.029,0.686-1.683,0.686
						c-1.316,0-2.382-1.047-2.382-2.34c0-0.643,0.265-1.235,0.698-1.654c0.426-0.426,1.029-0.686,1.683-0.686
						C236.703,281.318,237.769,282.366,237.769,283.659z"/>
					<g>
						<path style="fill:#231F20;" d="M276.424,463.431c-14.061,0.001-25.553-11.242-25.626-25.074l-0.622-106.832l-0.201-40.045
							c-0.02-3.876-3.245-7.017-7.196-7.017c-0.013,0-0.025,0-0.038,0l-7.093,0.049c-0.003,0-0.005,0-0.008,0
							c-0.627,0-1.138-0.506-1.142-1.135c-0.004-0.631,0.504-1.146,1.135-1.15l7.095-0.049c0.017,0,0.033,0,0.05,0
							c5.207,0,9.456,4.157,9.483,9.29l0.202,40.045l0.622,106.832c0.066,12.578,10.535,22.802,23.341,22.802
							c0.009,0,0.017,0,0.027,0l122.188-0.137c6.329-0.007,12.251-2.46,16.674-6.907c4.309-4.333,6.667-10.054,6.641-16.111
							l-0.624-128.904c-0.003-0.631,0.506-1.145,1.137-1.148c0.002,0,0.004,0,0.005,0c0.629,0,1.139,0.508,1.142,1.137
							l0.624,128.905c0.029,6.669-2.565,12.966-7.306,17.733c-4.854,4.881-11.35,7.573-18.292,7.581l-122.188,0.137
							C276.444,463.431,276.434,463.431,276.424,463.431z"/>
					</g>
				</g>
			</g>
		</g>
		<g style="clip-path:url(#SVGID_00000160895158807601525770000006391848610894581408_);">
			
				<linearGradient id="SVGID_00000045612191410663146690000011904833505470447234_" gradientUnits="userSpaceOnUse" x1="215.6272" y1="545.2551" x2="215.6272" y2="444.4009">
				<stop  offset="0.1391" style="stop-color:#130C0E;stop-opacity:0"/>
				<stop  offset="0.6804" style="stop-color:#130C0E;stop-opacity:0.6512"/>
				<stop  offset="1" style="stop-color:#130C0E;stop-opacity:0.95"/>
			</linearGradient>
			<polyline style="opacity:0.34;fill:url(#SVGID_00000045612191410663146690000011904833505470447234_);" points="87.134,462.332 
				255.077,541.209 344.121,541.209 179.567,462.332 87.134,462.332 			"/>
			<g>
				<g>
					<path style="fill:#FF7668;" d="M151.127,286.559c0,0,9.934,26.409,18.403,30.89c6.026-9.923,7.817-15.205,7.817-15.205
						l-10.423-19.046L151.127,286.559z"/>
					<path style="fill:#D1D1E0;" d="M155.88,255.783c0,0,4.27,1.685,7.04,6.699c2.769,5.014,8.304,22.518,8.304,22.518
						s-16.759,3.697-16.759,3.267C154.466,287.837,155.88,255.783,155.88,255.783z"/>
				</g>
				<g>
					<path style="fill:#3E3E64;" d="M136.328,462.039l0.89-111.452l-6.844-0.289v112.034l-27.383-11.117l1.528-111.156L104.684,328
						c0,0,6.372-4.165,15.129-6.644c4.121-1.168,8.774-1.963,13.536-1.775c3.717,0.146,7.395,0.744,10.817,1.559
						c10.282,2.45,18.286,6.86,18.286,6.86l0.197,14.503l1.483,109.775L136.328,462.039z"/>
					<path style="fill:#2E2E4C;" d="M162.649,342.502c-10.6-5.979-16.126-15.817-18.483-21.363c10.282,2.45,18.286,6.86,18.286,6.86
						L162.649,342.502z"/>
					<path style="fill:#2E2E4C;" d="M119.813,321.356c-3.587,11.05-10.707,16.342-15.294,18.703L104.684,328
						C104.684,328,111.056,323.835,119.813,321.356z"/>
					<polygon style="fill:#2E2E4C;" points="135.656,325.573 135.664,350.589 133.765,350.589 133.325,326.013 					"/>
					<path style="fill:#231F20;" d="M130.374,462.332h-43.24c0,0,0.896-2.889,6.269-6.48c5.372-3.59,9.588-4.636,9.588-4.636
						S117.957,449.512,130.374,462.332z"/>
					<path style="fill:#231F20;" d="M136.327,462.039h43.24c0,0-0.896-2.89-6.268-6.48c-5.372-3.59-9.588-4.636-9.588-4.636
						S148.743,449.219,136.327,462.039z"/>
					<path style="fill:#2E2E4C;" d="M118.932,351.523H151.4C151.4,351.523,140.036,344.001,118.932,351.523z"/>
				</g>
				<g>
					<path style="fill:#FFFFFF;" d="M162.452,328h-57.768c0,0,2.315-62.465,3.215-73.974c2.153-1.094,7.511-3.49,11.662-5.323
						c3.053-1.346,5.452-2.39,5.452-2.39s9.133,0,11.451,0.757c0.816,0.27,3.904,1.378,7.563,2.88
						c6.692,2.746,15.301,6.815,15.466,9.514C159.752,263.638,162.452,328,162.452,328z"/>
					<polygon style="fill:#D1D1E0;" points="137.134,328 135.664,328 135.664,317.866 135.894,284.524 137.056,283.77 					"/>
					<path style="fill:#D1D1E0;" d="M147.307,260.737c-4.316-2.676-8.097-2.72-9.952,0.41c-4.274-2.38-9.357-0.296-12.083,2.606
						c-4.996-5.673-5.724-11.913-5.711-15.05c3.053-1.346,5.452-2.39,5.452-2.39s9.133,0,11.451,0.757
						c0.816,0.27,3.904,1.378,7.563,2.88C145.895,253.078,147.177,256.68,147.307,260.737z"/>
				</g>
				<g>
					<path style="fill:#2E2E4C;" d="M138.471,261.313c0,0,5.313,34.582,4.912,42.956c-4.735,8.012-9.834,13.786-9.834,13.786
						s-7.111-9.542-8.314-14.271c1.203-14.384,9.426-42.57,9.426-42.57L138.471,261.313z"/>
					<path style="fill:#2E2E4C;" d="M127.928,254.529c0,0,4.581,6.527,8.291,6.618c3.619-0.18,5.497-4.457,4.855-7.653
						c-0.641-3.196-7.695-4.502-8.886-4.187C130.997,249.623,127.928,253.269,127.928,254.529z"/>
					<path style="fill:#2E2E4C;" d="M125.467,240.439c0,0-4.767-7.789-5.487-12.038c-0.721-4.249,0.222-6.264,2.383-8.334
						c2.162-2.07,14.41-5.501,16.572-4.848c2.161,0.654,1.718,3.323,1.718,3.323s5.21,1.525,6.54,3.159
						c1.33,1.634,0.998,8.279-2.217,12.692C141.762,238.805,125.467,240.439,125.467,240.439z"/>
					<path style="fill:#FFFFFF;" d="M134.429,242.668c-3.942-2.155-8.988-1.022-11.366,2.746c-0.506,0.801-0.875,1.664-0.961,2.542
						c-0.344,3.513,1.238,7.462,3.688,10.928c1.608-2.397,4.575-2.703,6.685-2.708c2.11-0.004,4.319,1.091,4.319,1.091
						s2.744-1.944,4.313-2.097c1.568-0.153,3.852,2.298,3.852,2.298s-0.548-6.081-4.694-10.539
						C138.735,245.285,136.568,243.837,134.429,242.668z"/>
					<path style="fill:#FFBA95;" d="M138.827,243.927c-0.301,1.772-0.392,2.924-0.469,4.012c-0.061,0.786-0.113,1.537-0.24,2.466
						c-0.346,2.568-1.606,5.781-1.606,5.781s-1.737-1.569-3.206-2.453c-1.47-0.885-6.137-1.83-7.225-2.791
						c-1.091-0.964-1.304-2.34-1.223-6.355c0.084-4.016,0.158-8.876,0.158-8.876c0.793-0.162,1.713-0.121,2.687,0.073
						C132.682,236.771,139.2,241.738,138.827,243.927z"/>
					<path style="fill:#FF7668;" d="M138.827,243.927c-0.301,1.772-0.392,2.924-0.469,4.012c-3.843,0.366-7.333-0.684-9.23-3.335
						c-2.13-2.972-2.214-8.079-2.214-8.079l0.79-0.741C132.682,236.771,139.2,241.738,138.827,243.927z"/>
					<path style="fill:#FFBA95;" d="M139.034,222.767c0,0,0.165,0.593,2.084,1.725c1.92,1.132,3.502,1.072,4.059,3.019
						c0.557,1.947,0.439,4.42,0.658,6.361c0.219,1.941,0,8.14-2.633,10.674c-2.523,0.809-7.734,0.377-10.148-0.323
						c-2.414-0.701-4.114-2.156-4.827-6.631c-0.713-4.474-0.603-7.439,0.055-7.924c0.658-0.485,2.688-0.593,5.54-1.779
						S138.869,224.708,139.034,222.767z"/>
					<path style="fill:#FF7668;" d="M139.654,228.883c0,0-0.719,2.408,0.176,3.496c0.5,0.607,1.205,1.213,1.205,1.213l-1.382,1.676
						c0,0,2.263-1.011,2.234-1.878C141.859,232.523,139.713,232.927,139.654,228.883z"/>
					<path style="fill:#2E2E4C;" d="M136.107,230.677c-0.55,0-0.996,0.438-0.996,0.979s0.446,0.979,0.996,0.979
						s0.996-0.438,0.996-0.979S136.657,230.677,136.107,230.677z"/>
					<path style="fill:#2E2E4C;" d="M142.723,230.677c-0.55,0-0.996,0.438-0.996,0.979s0.446,0.979,0.996,0.979
						c0.55,0,0.996-0.438,0.996-0.979S143.273,230.677,142.723,230.677z"/>
					<path style="fill:#2E2E4C;" d="M139.025,240.44h-0.026c-1.454-0.016-2.8-0.216-3.555-1.165c-0.35-0.436-0.544-1.021-0.55-1.566
						c-0.007-0.391,0.084-0.764,0.285-1.047c0.123-0.178,0.288-0.324,0.502-0.417c1.02-0.442,1.405,0.061,2.655,0.328
						c0.958,0.204,1.732,0.096,2.315,0.092c0.683-0.013,1.101,0.115,1.243,1.047C142.117,239.243,140.802,240.51,139.025,240.44z"/>
					<path style="fill:#FFFFFF;" d="M140.65,236.666c-0.466,0.671-1.227,1.2-2.979,0.954c-1.324-0.184-2.114-0.659-2.493-0.958
						c0.123-0.178,0.288-0.324,0.502-0.417c1.02-0.442,1.405,0.061,2.655,0.328C139.294,236.778,140.067,236.669,140.65,236.666z"/>
					<path style="fill:#EF5B5B;" d="M138.999,240.44c-1.454-0.016-2.8-0.216-3.555-1.165c-0.35-0.436-0.544-1.021-0.55-1.566
						c0.667,0.032,1.81,0.172,2.538,0.729C138.264,239.075,138.798,240.033,138.999,240.44z"/>
					<path style="fill:#FF7668;" d="M134.894,237.71c0,0,0.292-1.258,1.143-1.33c0.85-0.071,1.21,0.565,2.863,0.577
						c1.393,0.01,1.939-0.329,2.463-0.027c0.525,0.302,0.531,0.783,0.531,0.783s0.369-1.552-1.82-1.321
						c-2.189,0.231-2.516-0.235-3.282-0.412C136.114,235.824,134.85,236.086,134.894,237.71z"/>
					<path style="fill:#2E2E4C;" d="M133.204,229.53c0,0,0.945-0.435,2.275-0.583c1.483-0.203,2.517,0.021,2.517,0.021
						s-1.047-1.341-2.666-1.154C133.676,228.006,133.204,229.53,133.204,229.53z"/>
					<path style="fill:#2E2E4C;" d="M144.81,229.09c0,0-0.842-0.112-1.93-0.174c-1.321-0.075-1.982,0.307-1.982,0.307
						s0.768-1.52,2.098-1.439C144.354,227.867,144.81,229.09,144.81,229.09z"/>
					<g>
						<path style="fill:#FFBA95;" d="M128.166,234.063c0,0-0.979-2.372-2.251-3.013c-1.272-0.641-2.25-0.16-2.935,0.865
							s-0.131,2.628,0.489,3.237c0.62,0.609,0.783,0.897,1.305,1.571c0.522,0.673,1.076,1.571,1.957,1.795s1.761-0.096,1.892-1.218
							C128.753,236.178,128.166,234.063,128.166,234.063z"/>
						<path style="fill:#FF7668;" d="M127.795,234.312c-0.306-0.2-0.555-0.413-0.765-0.713c-0.186-0.265-0.343-0.548-0.524-0.816
							c-0.351-0.521-0.828-1.002-1.488-1.093c-0.618-0.086-1.156,0.279-1.364,0.847c-0.21,0.575-0.063,1.278,0.314,1.755
							c0.031,0.04,0.097,0.013,0.083-0.038c-0.161-0.569-0.365-1.183,0.037-1.706c0.353-0.459,0.96-0.419,1.391-0.09
							c0.428,0.326,0.666,0.832,0.955,1.268c0.275,0.414,0.641,0.887,1.144,1.039C127.856,234.847,128.039,234.472,127.795,234.312z
							"/>
						<path style="fill:#FF7668;" d="M128.211,236.032c-0.49,0.599-1.433,0.501-1.846-0.129c-0.213-0.324-0.285-0.713-0.209-1.092
							c0.045-0.225,0.14-0.434,0.255-0.632c0.11-0.189,0.214-0.39,0.351-0.561c0.075-0.094-0.051-0.225-0.153-0.171
							c-0.219,0.115-0.405,0.235-0.566,0.425c-0.132,0.155-0.232,0.349-0.306,0.537c-0.15,0.384-0.182,0.814-0.071,1.212
							c0.216,0.768,0.893,1.364,1.729,1.31c0.486-0.031,0.931-0.274,1.179-0.689C128.697,236.033,128.357,235.854,128.211,236.032z"
							/>
						<path style="fill:#FF7668;" d="M125.789,232.217c-0.336-0.117-0.753,0.045-0.975,0.308c-0.221,0.263-0.29,0.606-0.244,0.939
							c0.003,0.024,0.042,0.022,0.047,0c0.065-0.277,0.195-0.539,0.418-0.725c0.03-0.025,0.091-0.066,0.141-0.092
							c0.013-0.007,0.026-0.014,0.039-0.02c0.005-0.002,0.029-0.012,0.03-0.012c0.032-0.012,0.066-0.023,0.1-0.032
							c0.003-0.001,0.018-0.004,0.027-0.006c0.009-0.001,0.031-0.005,0.035-0.005c0.032-0.004,0.063-0.006,0.095-0.006
							c0.006,0,0.06,0.003,0.018-0.001c0.017,0.002,0.034,0.003,0.051,0.005c0.033,0.005,0.066,0.009,0.1,0.013
							c0.098,0.012,0.191-0.038,0.221-0.133C125.92,232.366,125.882,232.25,125.789,232.217z"/>
					</g>
					<path style="fill:#3E3E64;" d="M134.421,258.128c0,0-1.03,2.287-0.706,3.817c0.617,1.127,5.523,0.482,6.038-0.166
						c0.514-0.648-0.937-3.899-1.421-4.104C137.848,257.47,135.153,257.158,134.421,258.128z"/>
				</g>
				<g>
					<path style="fill:#FF7668;" d="M92.717,287.535c-0.378,1.412-4.117,19.473-2.316,23.393c1.801,3.92,14.024-0.253,16.083-5.311
						s2.316-17.197,2.316-17.197L92.717,287.535z"/>
					<path style="fill:#FFFFFF;" d="M107.9,254.027c-4.313,1.429-8.431,4.799-12.455,12.115c-4.024,7.316-6.74,23.233-6.74,23.233
						l19.873,1.509l1.977,0.15c0,0,1.548-13.077,1.463-23.706C111.955,259.499,111.006,252.998,107.9,254.027z"/>
					<path style="fill:#D1D1E0;" d="M111.13,291.732l-2.601-0.198c-0.36-0.027-0.629-0.341-0.602-0.7
						c0.027-0.36,0.341-0.631,0.7-0.602l1.35,0.102c0.301-2.721,1.461-13.844,1.388-23.003c-0.003-0.361,0.287-0.655,0.648-0.658
						c0.376-0.001,0.655,0.287,0.658,0.648c0.085,10.549-1.452,23.657-1.467,23.789L111.13,291.732z"/>
				</g>
				<g>
					<path style="fill:#D64343;" d="M130.425,264.401c-0.161,0.496-0.056,1.037,0.258,1.457c1.86,2.488,8.983,12.016,9.402,12.592
						c0.482,0.664,4.342,2.466,4.342,2.466l-1.448-4.647l-9.811-12.489c-0.318-0.405-0.809-0.667-1.33-0.647
						C131.325,263.153,130.743,263.423,130.425,264.401z"/>
					<g>
						<g>
							<path style="fill:#FFBA95;" d="M124.168,281.462c0,0-22.271,13.469-26.696,17.257c-4.426,3.788-7.709,6.594-7.424,10.943
								c0.285,4.349,3.426,10.944,11.564,8.418c8.137-2.526,27.696-27.92,28.552-31.147
								C131.02,283.707,128.165,280.48,124.168,281.462z"/>
						</g>
						<g>
							<path style="fill:#FFBA95;" d="M133.31,271.15c-1.74,0.402-7.548,7.924-9.549,10.733c-2.001,2.81,0.858,5.058,3.66,5.844
								c2.802,0.787,5.718-1.63,5.718-1.63s1.715,1.517,3.545,0.899c1.83-0.618,2.173-1.742,2.23-3.147
								c1.544,0.955,3.602,0.112,3.374-2.304c1.715-0.843,1.544-2.192,1.029-3.372c-0.515-1.18-6.519-3.821-7.662-4.383
								c4.975,0.618,10.235,2.248,10.864,1.798c0.629-0.449,0.801-1.068-0.572-2.079C144.575,272.499,137.199,270.251,133.31,271.15
								z"/>
							<path style="fill:#FF7668;" d="M142.834,280.936c-0.181-0.327-0.479-0.579-0.768-0.815c-0.314-0.256-0.622-0.52-0.951-0.759
								c-0.586-0.426-1.219-0.785-1.878-1.088c-1.329-0.611-2.801-0.87-4.261-0.809c-0.155,0.007-0.198,0.252-0.032,0.278
								c1.294,0.202,2.575,0.623,3.726,1.239c0.629,0.337,1.232,0.719,1.781,1.173c0.265,0.219,0.524,0.451,0.753,0.706
								c0.228,0.255,0.421,0.563,0.693,0.774C142.399,282.023,143.179,281.559,142.834,280.936z"/>
							<path style="fill:#FF7668;" d="M139.307,283.696c-0.191-0.487-0.568-0.891-0.959-1.235c-0.377-0.333-0.786-0.633-1.223-0.885
								c-0.395-0.227-0.845-0.372-1.275-0.522c-0.438-0.152-0.886-0.268-1.345-0.342c-0.148-0.024-0.265,0.194-0.105,0.26
								c0.383,0.159,0.756,0.346,1.106,0.566c0.378,0.239,0.685,0.541,1.013,0.837c0.173,0.156,0.337,0.321,0.497,0.49
								c0.069,0.073,0.137,0.146,0.204,0.221c0.056,0.063,0.164,0.19,0.186,0.218c0.081,0.102,0.232,0.322,0.346,0.463
								c0.155,0.193,0.294,0.406,0.473,0.577c0.201,0.191,0.56,0.239,0.796,0.081C139.248,284.276,139.413,283.966,139.307,283.696z
								"/>
							<path style="fill:#FF7668;" d="M134.144,283.539c-0.117,1.056-0.643,2.116-1.517,2.762c-0.427,0.316-0.934,0.534-1.454,0.653
								c-0.255,0.058-0.513,0.108-0.774,0.122c-0.283,0.014-0.563-0.017-0.845,0.012c-0.298,0.031-0.558,0.194-0.599,0.508
								c-0.036,0.274,0.13,0.593,0.429,0.654c0.694,0.141,1.492-0.076,2.124-0.368c0.568-0.263,1.071-0.639,1.499-1.087
								c0.848-0.888,1.373-2.036,1.397-3.259C134.407,283.366,134.161,283.38,134.144,283.539z"/>
							<path style="fill:#FF7668;" d="M136.01,284.525c-0.254-0.464-0.7-0.818-1.137-1.112c-0.209-0.14-0.425-0.272-0.645-0.396
								c-0.21-0.118-0.451-0.192-0.678-0.27c-0.136-0.047-0.224,0.141-0.131,0.231c0.178,0.171,0.339,0.357,0.52,0.524
								c0.175,0.162,0.299,0.286,0.459,0.463c0.324,0.357,0.615,0.756,0.991,1.062C135.705,285.284,136.204,284.88,136.01,284.525z"
								/>
						</g>
					</g>
				</g>
				<g>
					<polygon style="fill:#B55D46;" points="146.711,264.451 129.778,305.251 166.601,305.251 183.432,264.251 					"/>
					<g>
						<path style="fill:#FF7668;" d="M181.288,280.68c0,0-1.442-5.742-4.447-9.216c-3.005-3.474-5.443-3.439-5.832-2.784
							c-0.317,0.534-0.265,1.124,1.944,2.948s3.739,7.228,3.739,7.228L181.288,280.68z"/>
						<path style="fill:#FFBA95;" d="M179.544,276.924c-1.419-1.267-9.577,0.582-11.058,1.844c-1.481,1.261,0.215,2.95,0.807,2.756
							c0,0-2.091,2.289,0.18,3.454c-1.382,2.62,0.592,2.717,2.271,2.717c0,1.891,0.617,3.68,1.666,5.223
							c0.882,1.298,0.963,2.971,0.288,4.384c-3.24,6.782-8.438,9.984-7.999,15.246c0.494,5.919,10.192,7.459,12.858,3.772
							s5.134-11.45,5.035-21.25C183.494,285.269,180.63,277.894,179.544,276.924z"/>
						<path style="fill:#FF7668;" d="M176.108,278.823c-0.87,1.181-2.566,1.13-3.892,1.28c-0.673,0.076-1.312,0.195-1.953,0.416
							c-0.58,0.2-1.3,0.486-1.64,1.02c-0.211,0.332,0.116,0.874,0.534,0.65c0.289-0.155,0.532-0.371,0.822-0.523
							c0.29-0.152,0.592-0.268,0.911-0.345c0.727-0.176,1.474-0.262,2.204-0.428c1.281-0.291,2.472-0.845,3.219-1.954
							C176.398,278.813,176.196,278.703,176.108,278.823z"/>
						<path style="fill:#FF7668;" d="M176.007,282.599c-0.137,0.695-1.06,0.764-1.622,0.839c-0.612,0.081-1.221,0.167-1.827,0.286
							c-0.61,0.12-1.214,0.266-1.812,0.435c-0.657,0.186-1.42,0.342-1.979,0.736c-0.416,0.293-0.047,0.92,0.408,0.848
							c0.357-0.056,0.676-0.221,1.006-0.356c0.344-0.14,0.693-0.268,1.044-0.388c0.73-0.25,1.474-0.461,2.228-0.633
							c1.134-0.259,2.547-0.347,2.813-1.7C176.297,282.501,176.039,282.433,176.007,282.599z"/>
						<path style="fill:#FF7668;" d="M174.832,286.853c-0.32,0.096-0.645,0.16-0.956,0.279c-0.297,0.113-0.574,0.195-0.891,0.231
							c-0.306,0.035-0.614,0.058-0.921,0.09c-0.152,0.016-0.306,0.021-0.458,0.036c-0.142,0.013-0.309,0.013-0.411,0.121
							c-0.051,0.054-0.044,0.124,0.001,0.179c0.16,0.194,0.602,0.144,0.831,0.146c0.348,0.002,0.675-0.042,1.015-0.113
							c0.335-0.069,0.67-0.126,1.006-0.193c0.348-0.07,0.655-0.233,0.966-0.399C175.232,287.113,175.057,286.786,174.832,286.853z"
							/>
					</g>
				</g>
			</g>
		</g>
	</g>
</g>
</svg>
