<?xml version="1.0" encoding="utf-8"?>
<!-- Generator: Adobe Illustrator 27.5.0, SVG Export Plug-In . SVG Version: 6.00 Build 0)  -->
<svg version="1.1" xmlns="http://www.w3.org/2000/svg" xmlns:xlink="http://www.w3.org/1999/xlink" x="0px" y="0px"
	 viewBox="0 0 750 500" style="enable-background:new 0 0 750 500;" xml:space="preserve">
<g id="BACKGROUND">
	<rect style="fill:#D6E0F4;" width="750" height="500"/>
</g>
<g id="OBJECTS">
	<g>
		<g>
			<polygon style="opacity:0.2;fill:#FFF9F2;" points="359.04,463.097 137.83,463.097 0,187.143 0,0 127.75,0 			"/>
			<polygon style="opacity:0.3;fill:#FFF9F2;" points="750,0 478.967,463.097 149.45,463.097 420.471,0 			"/>
		</g>
		<g>
			<g>
				<path style="fill:#B8C9EA;" d="M581.923,373.131H168.077c-11.046,0-20-8.954-20-20V106.963c0-11.046,8.954-20,20-20h413.847
					c11.046,0,20,8.954,20,20v246.168C601.923,364.177,592.969,373.131,581.923,373.131z"/>
				<rect x="312.672" y="373.131" style="fill:#B8C9EA;" width="124.656" height="89.966"/>
				<path style="fill:#B8C9EA;" d="M471.889,442.569H278.111c-5.668,0-10.264,4.595-10.264,10.264v0
					c0,5.668,4.595,10.264,10.264,10.264h193.778c5.668,0,10.264-4.595,10.264-10.264v0
					C482.153,447.165,477.557,442.569,471.889,442.569z"/>
				<path style="fill:#D6E0F4;" d="M587.01,116.965v225.47c0,5.52-4.48,10-10,10H172.99c-5.52,0-10-4.48-10-10v-225.47
					c0-5.53,4.48-10,10-10h404.02C582.53,106.965,587.01,111.435,587.01,116.965z"/>
				
					<line style="fill:none;stroke:#92A9D1;stroke-linecap:round;stroke-linejoin:round;stroke-miterlimit:10;" x1="312.672" y1="442.942" x2="437.328" y2="442.942"/>
				
					<line style="fill:none;stroke:#92A9D1;stroke-linecap:round;stroke-linejoin:round;stroke-miterlimit:10;" x1="577.007" y1="352.432" x2="172.993" y2="352.432"/>
				<polygon style="fill:#92A9D1;" points="437.328,393.575 437.328,373.131 338.997,372.787 				"/>
				
					<line style="fill:none;stroke:#252126;stroke-width:0.75;stroke-linecap:round;stroke-linejoin:round;stroke-miterlimit:10;" x1="36.181" y1="463.097" x2="713.819" y2="463.097"/>
			</g>
			<path style="opacity:0.6;fill:#FFFFFF;" d="M587.01,291.285v51.15c0,5.52-4.48,10-10,10H172.99c-5.52,0-10-4.48-10-10v-37.6
				c4.99-1.19,10.27-1.16,15.21,0.25c10.64,3.05,18.28,12.5,20.42,23.36c-0.17-5.5,2.74-11,7.39-13.94
				c4.64-2.95,10.86-3.24,15.76-0.73c4.9,2.5,9.49,8.1,9.83,13.59c9.22-8.96,16.17-20.25,20.06-32.51h46.12
				c2.6,11.25,9.36,21.7,18.55,28.61c2.57-6.43,9.38-11.84,16.29-12.29c6.92-0.45,13.93,3.36,17.32,9.4
				c-0.88-10.44,5.75-21.78,14.04-28.17c8.29-6.4,19.09-9.02,29.55-8.58c8.72,0.37,17.59,2.91,24.23,8.57
				c6.64,5.67,10.66,14.78,8.85,23.32c5.63-8.28,17.42-12.97,27.2-10.79c9.78,2.18,17.81,10.72,19.39,20.61
				c2.94-9.65,13.47-17.62,23.54-17.9c10.08-0.29,19.98,6.42,23.45,15.88c0.28-12.66,9.01-23.83,20.32-29.54
				c11.3-5.72,24.58-6.41,37.13-4.63C580.79,289.795,583.96,290.395,587.01,291.285z"/>
			<g style="opacity:0.8;">
				<path style="fill:#FFFFFF;" d="M425.18,348.765c0,1.24-0.07,2.46-0.2,3.67h-68.03c-0.13-1.21-0.2-2.43-0.2-3.67
					c0-18.89,15.32-34.21,34.21-34.21C409.86,314.555,425.18,329.875,425.18,348.765z"/>
				<path style="fill:#FFFFFF;" d="M193.63,348.765c0,1.25-0.11,2.48-0.33,3.67h-20.31c-5.52,0-10-4.48-10-10v-11.71
					c2.96-1.65,6.37-2.59,10-2.59C184.39,328.135,193.63,337.375,193.63,348.765z"/>
				<path style="fill:#FFFFFF;" d="M587.01,328.265v14.17c0,5.52-4.48,10-10,10h-44.17c-0.69-2.51-1.05-5.14-1.05-7.86
					c0-16.58,13.44-30.02,30.02-30.02C572.38,314.555,581.67,320.015,587.01,328.265z"/>
				<circle style="fill:#FFFFFF;" cx="333.385" cy="333.495" r="9.08"/>
				
					<ellipse transform="matrix(0.1605 -0.987 0.987 0.1605 186.0885 820.2155)" style="fill:#FFFFFF;" cx="575.25" cy="300.706" rx="7.323" ry="7.323"/>
				<path style="fill:#FFFFFF;" d="M285.307,305.131c0-3.229,2.617-5.846,5.846-5.846c3.229,0,5.846,2.617,5.846,5.846
					c0,3.229-2.618,5.846-5.846,5.846C287.925,310.978,285.307,308.36,285.307,305.131z"/>
				<circle style="fill:#FFFFFF;" cx="216.615" cy="333.495" r="10.35"/>
				
					<ellipse transform="matrix(0.2412 -0.9705 0.9705 0.2412 -111.2966 514.4697)" style="fill:#FFFFFF;" cx="273.35" cy="328.408" rx="13.47" ry="13.47"/>
			</g>
			<g>
				<g>
					<path style="opacity:0.4;fill:#FFFFFF;" d="M343.504,279.406H206.495c-8.25,0-15-6.75-15-15V139.757c0-8.25,6.75-15,15-15
						h137.009c8.25,0,15,6.75,15,15v124.649C358.504,272.656,351.754,279.406,343.504,279.406z"/>
					<g>
						<g>
							<path style="opacity:0.4;fill:#FFFFFF;" d="M457.105,268.767h-69.072c-8.25,0-15-6.75-15-15v-114.01c0-8.25,6.75-15,15-15
								h69.072c8.25,0,15,6.75,15,15v114.01C472.105,262.017,465.355,268.767,457.105,268.767z"/>
							<path style="opacity:0.4;fill:#FFFFFF;" d="M551.821,268.767h-51.19c-6.9,0-12.545-5.645-12.545-12.545v-118.92
								c0-6.9,5.645-12.545,12.545-12.545h48.734c8.25,0,15,6.75,15,15v116.465C564.365,263.122,558.72,268.767,551.821,268.767z"/>
						</g>
						<g>
							<g>
								<g>
									
										<line style="fill:none;stroke:#B8C9EA;stroke-linecap:round;stroke-linejoin:round;stroke-miterlimit:10;" x1="381.267" y1="171.349" x2="463.87" y2="171.349"/>
									
										<line style="fill:none;stroke:#B8C9EA;stroke-linecap:round;stroke-linejoin:round;stroke-miterlimit:10;" x1="390.582" y1="137.477" x2="390.582" y2="171.349"/>
									
										<line style="fill:none;stroke:#B8C9EA;stroke-linecap:round;stroke-linejoin:round;stroke-miterlimit:10;" x1="405.299" y1="149.967" x2="405.299" y2="171.349"/>
									
										<line style="fill:none;stroke:#B8C9EA;stroke-linecap:round;stroke-linejoin:round;stroke-miterlimit:10;" x1="419.374" y1="142.143" x2="419.374" y2="171.349"/>
									
										<line style="fill:none;stroke:#B8C9EA;stroke-linecap:round;stroke-linejoin:round;stroke-miterlimit:10;" x1="453.246" y1="140.229" x2="453.246" y2="171.349"/>
									
										<line style="fill:none;stroke:#B8C9EA;stroke-linecap:round;stroke-linejoin:round;stroke-miterlimit:10;" x1="438.427" y1="143.616" x2="438.427" y2="171.349"/>
								</g>
								<g>
									
										<line style="fill:none;stroke:#B8C9EA;stroke-linecap:round;stroke-linejoin:round;stroke-miterlimit:10;" x1="381.267" y1="196.904" x2="463.87" y2="196.904"/>
									
										<line style="fill:none;stroke:#B8C9EA;stroke-linecap:round;stroke-linejoin:round;stroke-miterlimit:10;" x1="381.267" y1="216.904" x2="463.87" y2="216.904"/>
									
										<line style="fill:none;stroke:#B8C9EA;stroke-linecap:round;stroke-linejoin:round;stroke-miterlimit:10;" x1="381.267" y1="246.904" x2="463.87" y2="246.904"/>
									<g>
										<circle style="fill:#B8C9EA;" cx="390.582" cy="196.904" r="3.217"/>
										<circle style="fill:#B8C9EA;" cx="411.564" cy="216.904" r="3.217"/>
										<circle style="fill:#B8C9EA;" cx="390.582" cy="246.752" r="3.217"/>
									</g>
								</g>
							</g>
							<g>
								<g>
									<polygon style="fill:none;stroke:#B8C9EA;stroke-linecap:round;stroke-linejoin:round;stroke-miterlimit:10;" points="
										511.485,135.614 495.876,182.405 527.094,182.405 									"/>
									<polygon style="fill:none;stroke:#B8C9EA;stroke-linecap:round;stroke-linejoin:round;stroke-miterlimit:10;" points="
										541.869,149.339 527.163,182.405 556.575,182.405 									"/>
									<polygon style="fill:#B8C9EA;" points="511.485,135.614 502.468,162.644 520.502,162.644 									"/>
								</g>
								<g>
									<g>
										<polyline style="fill:none;stroke:#B8C9EA;stroke-linecap:round;stroke-linejoin:round;stroke-miterlimit:10;" points="
											497.467,249.969 513.838,226.423 529.993,236.977 552.61,198.205 										"/>
										<polyline style="fill:none;stroke:#B8C9EA;stroke-linecap:round;stroke-linejoin:round;stroke-miterlimit:10;" points="
											552.61,206.973 552.61,198.205 544.517,202.317 										"/>
									</g>
									<polyline style="fill:none;stroke:#B8C9EA;stroke-linecap:round;stroke-linejoin:round;stroke-miterlimit:10;" points="
										559.396,198.205 559.396,253.606 495.876,253.606 									"/>
								</g>
							</g>
						</g>
					</g>
				</g>
				<g>
					<g>
						
							<path style="fill:none;stroke:#92A9D1;stroke-linecap:round;stroke-linejoin:round;stroke-miterlimit:10;stroke-dasharray:12,10;" d="
							M36.409,188.124c16.511-15.915,33.114-31.935,46.625-50.465c13.511-18.531,23.901-39.892,26.388-62.689
							c0.957-8.772,0.697-17.866-2.461-26.106c-3.158-8.24-9.537-15.545-17.924-18.287c-7.746-2.533-16.377-0.962-23.704,2.605
							c-13.565,6.604-23.491,20.191-25.656,35.122c-2.166,14.931,3.49,30.779,14.62,40.965c9.294,8.506,21.719,12.906,34.17,14.837
							c23.056,3.575,47.277-0.856,67.574-12.362c20.298-11.506,36.54-30.012,45.315-51.631"/>
						<polygon style="fill:#B8C9EA;" points="186.096,66.608 212.312,42.713 203.573,77.636 199.204,66.381 						"/>
					</g>
					<g>
						
							<path style="fill:none;stroke:#92A9D1;stroke-linecap:round;stroke-linejoin:round;stroke-miterlimit:10;stroke-dasharray:12,10;" d="
							M697.523,196.016c11.297-20.756,9.771-47.071-0.909-68.152c-10.68-21.081-29.595-37.205-50.704-47.828
							c-25.583-12.875-57.696-17.782-82.227-3.002c-5.747,3.463-11.024,8.066-14.007,14.076c-2.983,6.011-3.338,13.587,0.252,19.256
							c6.347,10.024,22.102,9.709,31.521,2.496c11.176-8.558,15.63-24.2,12.657-37.958c-2.973-13.758-12.508-25.517-24.248-33.283
							c-11.74-7.766-25.553-11.877-39.432-14.225c-34.594-5.853-70.906-1.117-102.841,13.412
							c-31.936,14.529-65.029,40.883-79.882,73.242"/>
						<polygon style="fill:#B8C9EA;" points="337.12,108.784 343.406,121.246 358.592,117.095 332.982,145.405 						"/>
					</g>
				</g>
			</g>
		</g>
		<g>
			<g>
				<path style="fill:#FFFFFF;" d="M315.57,170.675c-0.47,18.94-2.64,37.78-5.86,55.94c-3.13,17.74-7.25,34.84-11.73,50.77
					l8.57,17.47h-63.1l8.57-17.47c-3.75-13.32-7.24-27.45-10.11-42.1c-0.56-2.87-1.11-5.76-1.62-8.67
					c-8.25-46.64-9.69-97.7,7.08-143.66c6.37-17.47,15.37-34.2,27.63-49.67c12.26,15.47,21.26,32.2,27.63,49.67
					C312.87,111.015,316.32,140.975,315.57,170.675z"/>
				<g>
					<path style="fill:#CA4646;" d="M246.857,257.755c-12.77,12.08-22.14,27.73-26.66,44.72c-3.45-16.29-5.06-33.44-1.84-49.78
						c2.86-14.53,9.46-28.57,19.83-39.05C240.397,228.815,243.417,243.625,246.857,257.755z"/>
					<path style="fill:#CA4646;" d="M303.143,257.755c12.77,12.08,22.14,27.73,26.66,44.72c3.45-16.29,5.06-33.44,1.84-49.78
						c-2.86-14.53-9.46-28.57-19.83-39.05C309.603,228.815,306.583,243.625,303.143,257.755z"/>
				</g>
			</g>
			<path style="fill:#CA4646;" d="M302.63,82.955h-55.26c6.37-17.47,15.37-34.2,27.63-49.67
				C287.26,48.755,296.26,65.485,302.63,82.955z"/>
			<path style="fill:#C8C3CA;" d="M297.98,277.385l8.57,17.47h-63.1l8.57-17.47c-4.48-15.93-8.6-33.03-11.73-50.77h69.42
				C306.58,244.355,302.46,261.455,297.98,277.385z"/>
			
				<ellipse transform="matrix(0.1643 -0.9864 0.9864 0.1643 112.7053 370.4963)" style="fill:#CA4646;" cx="275" cy="118.735" rx="18.962" ry="18.962"/>
			<path style="fill:#C8C3CA;" d="M287.61,118.735c0,6.97-5.64,12.61-12.61,12.61c-0.97,0-1.91-0.11-2.81-0.32
				c-1.09-0.24-2.13-0.63-3.09-1.14c-1.47-0.78-2.77-1.84-3.81-3.11c-0.66-0.79-1.22-1.65-1.66-2.58c-0.36-0.75-0.65-1.54-0.85-2.37
				c-0.11-0.38-0.18-0.77-0.24-1.17v-0.01c-0.1-0.62-0.15-1.26-0.15-1.91c0-6.97,5.64-12.61,12.61-12.61c0.65,0,1.29,0.05,1.92,0.15
				c0.4,0.06,0.79,0.13,1.17,0.24c0.84,0.2,1.65,0.5,2.41,0.87c0.93,0.45,1.79,1,2.57,1.67c1.24,1.02,2.29,2.3,3.05,3.74
				c0.52,0.96,0.91,2,1.16,3.09C287.5,116.795,287.61,117.755,287.61,118.735z"/>
			
				<ellipse transform="matrix(0.164 -0.9865 0.9865 0.164 56.2347 418.4602)" style="fill:#CA4646;" cx="275" cy="176.053" rx="24.279" ry="24.279"/>
			<path style="fill:#C8C3CA;" d="M291.15,176.055c0,8.92-7.23,16.15-16.15,16.15c-0.36,0-0.72-0.01-1.08-0.04
				c-1.24-0.08-2.44-0.3-3.58-0.65c-1.39-0.41-2.69-1.01-3.89-1.76c-1.43-0.89-2.71-2-3.79-3.29c-0.91-1.07-1.67-2.25-2.28-3.53
				c-0.47-1-0.84-2.06-1.09-3.16c-0.24-0.97-0.38-1.97-0.42-2.99c-0.01-0.24-0.02-0.48-0.02-0.73c0-0.23,0-0.46,0.02-0.68
				c0.34-8.37,7.05-15.09,15.42-15.45c0.23-0.01,0.47-0.02,0.71-0.02s0.48,0.01,0.71,0.02c1.03,0.04,2.04,0.18,3.01,0.42
				c1.1,0.25,2.15,0.62,3.15,1.09c1.3,0.61,2.49,1.38,3.57,2.31c1.28,1.07,2.39,2.36,3.28,3.79c0.73,1.18,1.32,2.45,1.73,3.81
				c0.35,1.14,0.58,2.35,0.66,3.59C291.14,175.305,291.15,175.675,291.15,176.055z"/>
			<g style="opacity:0.5;">
				<path style="fill:#FFF9F2;" d="M286.12,112.795l-17.02,17.09c0.96,0.51,2,0.9,3.09,1.14c5.03-5.05,10.06-10.09,15.09-15.14
					C287.03,114.795,286.64,113.755,286.12,112.795z M280.5,107.385c-5.63,5.6-11.25,11.21-16.87,16.81c0.44,0.93,1,1.79,1.66,2.58
					l17.78-17.72C282.29,108.385,281.43,107.835,280.5,107.385z M278.09,106.515c-0.38-0.11-0.77-0.18-1.17-0.24
					c-4.79,4.79-9.59,9.58-14.38,14.37v0.01c0.06,0.4,0.13,0.79,0.24,1.17l12.73-12.73
					C276.37,108.235,277.23,107.375,278.09,106.515z"/>
				<path style="fill:#FFF9F2;" d="M290.45,171.345c-6.7,6.72-13.41,13.45-20.11,20.17c1.14,0.35,2.34,0.57,3.58,0.65
					c5.74-5.74,11.46-11.49,17.19-17.23C291.03,173.695,290.8,172.485,290.45,171.345z M285.44,163.745
					c-7.59,7.57-15.19,15.15-22.78,22.72c1.08,1.29,2.36,2.4,3.79,3.29l22.27-22.22C287.83,166.105,286.72,164.815,285.44,163.745z
					 M278.72,160.345l-19.43,19.43c0.25,1.1,0.62,2.16,1.09,3.16c7.16-7.17,14.33-14.34,21.49-21.5
					C280.87,160.965,279.82,160.595,278.72,160.345z M275.71,159.925c-0.23-0.01-0.47-0.02-0.71-0.02s-0.48,0.01-0.71,0.02
					l-15.42,15.45c-0.02,0.22-0.02,0.45-0.02,0.68c0,0.25,0.01,0.49,0.02,0.73c4.41-4.42,8.83-8.84,13.24-13.26
					C273.31,162.325,274.51,161.125,275.71,159.925z"/>
			</g>
			<g>
				<line style="fill:none;stroke:#ADA7B0;stroke-miterlimit:10;" x1="297.98" y1="277.385" x2="252.02" y2="277.385"/>
				<line style="fill:none;stroke:#ADA7B0;stroke-miterlimit:10;" x1="309.71" y1="226.615" x2="240.29" y2="226.615"/>
				<line style="fill:none;stroke:#ADA7B0;stroke-miterlimit:10;" x1="304.971" y1="250" x2="245.03" y2="250"/>
				<g>
					<circle style="fill:none;stroke:#ADA7B0;stroke-miterlimit:10;" cx="275" cy="238.307" r="6.827"/>
					<circle style="fill:none;stroke:#ADA7B0;stroke-miterlimit:10;" cx="253" cy="238.307" r="6.827"/>
					<circle style="fill:none;stroke:#ADA7B0;stroke-miterlimit:10;" cx="297" cy="238.307" r="6.827"/>
				</g>
			</g>
			<g>
				<path style="fill:none;stroke:#E1DEE2;stroke-miterlimit:10;" d="M256.767,84.436c-15.044,44.649-18.176,93.251-8.987,139.462"
					/>
				<path style="fill:none;stroke:#E1DEE2;stroke-miterlimit:10;" d="M297.602,85.03c9.979,45.331,11.176,92.579,3.506,138.358"/>
			</g>
			<path style="opacity:0.15;fill:#522840;" d="M315.57,170.675c-0.47,18.94-2.64,37.78-5.86,55.94
				c-3.13,17.74-7.25,34.84-11.73,50.77h-45.96c-3.75-13.32-7.24-27.45-10.11-42.1c17.68-5.83,34.39-14.65,48.08-27.18
				C301.23,197.835,310.28,184.895,315.57,170.675z"/>
			<g>
				
					<circle style="fill:none;stroke:#BA3232;stroke-width:0.75;stroke-linecap:round;stroke-linejoin:round;stroke-miterlimit:10;" cx="275" cy="75.054" r="4.016"/>
				<g>
					
						<circle style="fill:none;stroke:#BA3232;stroke-width:0.75;stroke-linecap:round;stroke-linejoin:round;stroke-miterlimit:10;" cx="233.596" cy="235.256" r="4.016"/>
					
						<circle style="fill:none;stroke:#BA3232;stroke-width:0.75;stroke-linecap:round;stroke-linejoin:round;stroke-miterlimit:10;" cx="316.576" cy="235.256" r="4.016"/>
					
						<circle style="fill:none;stroke:#BA3232;stroke-width:0.75;stroke-linecap:round;stroke-linejoin:round;stroke-miterlimit:10;" cx="326.555" cy="267.671" r="4.016"/>
					
						<path style="fill:none;stroke:#BA3232;stroke-width:0.75;stroke-linecap:round;stroke-linejoin:round;stroke-miterlimit:10;" d="
						M231.736,249.15c0,2.218-1.798,4.016-4.016,4.016c-2.218,0-4.016-1.798-4.016-4.016s1.798-4.016,4.016-4.016
						C229.938,245.134,231.736,246.932,231.736,249.15z"/>
					
						<path style="fill:none;stroke:#BA3232;stroke-width:0.75;stroke-linecap:round;stroke-linejoin:round;stroke-miterlimit:10;" d="
						M327.48,250.618c0,2.218-1.798,4.016-4.016,4.016c-2.218,0-4.016-1.798-4.016-4.016c0-2.218,1.798-4.016,4.016-4.016
						C325.682,246.602,327.48,248.4,327.48,250.618z"/>
					
						<path style="fill:none;stroke:#BA3232;stroke-width:0.75;stroke-linecap:round;stroke-linejoin:round;stroke-miterlimit:10;" d="
						M228.537,264.751c0,2.218-1.798,4.016-4.016,4.016c-2.218,0-4.016-1.798-4.016-4.016c0-2.218,1.798-4.016,4.016-4.016
						C226.739,260.735,228.537,262.533,228.537,264.751z"/>
				</g>
				
					<circle style="fill:none;stroke:#BA3232;stroke-width:0.75;stroke-linecap:round;stroke-linejoin:round;stroke-miterlimit:10;" cx="261" cy="75.054" r="4.016"/>
				
					<circle style="fill:none;stroke:#BA3232;stroke-width:0.75;stroke-linecap:round;stroke-linejoin:round;stroke-miterlimit:10;" cx="289" cy="75.054" r="4.016"/>
			</g>
		</g>
	</g>
	<g>
		<g>
			<g>
				<polygon style="fill:#B1705B;" points="654.046,451.749 654.855,443.46 643.613,443.46 644.814,452.553 646.349,457.725 
					650.93,458.652 653.383,456.525 				"/>
				<path style="fill:#444145;" d="M655.19,463.097H630c-0.923,0-1.672-0.749-1.672-1.672v-1.261c0-0.651,0.378-1.243,0.968-1.517
					l13.708-6.358c0.602-0.279,1.313-0.176,1.81,0.263l3.174,2.803c0.647,0.571,1.622,0.556,2.251-0.034l3.808-3.573
					c0.31-0.291,0.719-0.453,1.144-0.453l0,0c0.923,0,1.672,0.749,1.672,1.672v8.457
					C656.862,462.348,656.114,463.097,655.19,463.097z"/>
			</g>
			<g>
				<polygon style="fill:#B1705B;" points="679.237,426.822 673.497,420.788 666.143,429.292 673.807,434.331 678.723,436.553 
					682.42,433.695 682.417,430.448 				"/>
				<path style="fill:#444145;" d="M688.569,433.379l-16.477,19.054c-0.604,0.698-1.66,0.775-2.358,0.171l-0.954-0.825
					c-0.492-0.426-0.693-1.099-0.514-1.724l4.157-14.527c0.183-0.638,0.725-1.108,1.383-1.197l4.196-0.567
					c0.855-0.116,1.481-0.863,1.446-1.725l-0.212-5.217c-0.017-0.425,0.128-0.84,0.406-1.161l0,0
					c0.604-0.698,1.66-0.775,2.358-0.171l6.397,5.531C689.097,431.625,689.173,432.681,688.569,433.379z"/>
			</g>
		</g>
		<path style="fill:#444145;" d="M630.104,184.342c-1.698-2.989-2.617-6.37-2.588-9.755c0.029-3.385,1.013-6.766,2.876-9.668
			c0.403-0.628,0.861-1.248,1.507-1.663c0.645-0.415,1.516-0.59,2.223-0.277c0.708,0.313,1.117,1.202,0.718,1.833
			c0.405-0.892,1.15-1.698,2.053-2.174c0.601-0.317,1.35-0.506,1.975-0.235c0.571,0.248,0.907,0.836,0.979,1.421
			s-0.079,1.173-0.254,1.739c0.529-0.789,1.391-1.61,2.256-2.071c0.475-0.253,1.01-0.449,1.554-0.408
			c0.845,0.065,1.559,0.733,1.75,1.506c0.191,0.773-0.089,1.605-0.617,2.226c0.668-0.582,1.544-1.202,2.442-1.361
			c0.897-0.159,1.948,0.169,2.336,0.942c0.215,0.427,0.203,0.93,0.067,1.384c-0.136,0.454-0.388,0.87-0.646,1.276
			c0.364-0.271,0.803-0.477,1.244-0.615c0.441-0.138,0.936-0.163,1.367,0c0.772,0.291,1.183,1.126,1.169,1.905
			c-0.014,0.778-0.368,1.513-0.741,2.209c0.364-0.732,1.385-0.926,2.195-0.646c0.81,0.28,1.37,1.012,1.592,1.792
			c0.222,0.78,0.15,1.607,0.01,2.403c-0.708,4.031-3.106,7.661-6.06,10.67C643.016,186.879,636.302,186.162,630.104,184.342z"/>
		<g>
			<g>
				<g>
					<path style="fill:#B1705B;" d="M649.16,191.135c-1.29,2.74-3,5.32-5.25,7.35c-2.24,2.03-5.05,3.5-8.06,3.88
						c-1.42,0.18-3,0.07-4.1-0.85c-1.08-0.91-1.46-2.4-1.7-3.79c-0.36-2.08-0.57-4.18-0.64-6.29c-0.04-0.96-0.05-1.93-0.03-2.9
						c0.04-2.92,0.29-5.85,0.64-8.77c5.49-2.33,11.85-2.28,17.32,0.18c-0.08,2.05,0.32,4.12,1.16,5.99
						c0.44-0.07,0.85-0.13,1.25-0.24C649.97,187.595,649.95,189.465,649.16,191.135z"/>
					<circle style="fill:#B1705B;" cx="649.87" cy="188.791" r="4.375"/>
					<path style="fill:#B1705B;" d="M651.358,209.11c-1.34,3.42-4.79,5.95-8.45,6.15c-3.67,0.2-7.14-2.31-8.84-5.56
						c0.31-0.91,0.57-1.82,0.78-2.73c0.34-1.5,0.56-3.02,0.67-4.58c0.11,0,0.22-0.01,0.33-0.03c3.01-0.38,5.82-1.85,8.06-3.88
						c1.22-1.1,2.28-2.37,3.19-3.73c0.47-0.68,0.89-1.38,1.28-2.1C648.748,198.22,649.748,203.76,651.358,209.11z"/>
					<g>
						
							<path style="fill:none;stroke:#252126;stroke-width:0.75;stroke-linecap:round;stroke-linejoin:round;stroke-miterlimit:10;" d="
							M635.209,184.876c-0.052,1.29-0.103,2.581-0.154,3.871c-0.451-0.226-1.054-0.081-1.353,0.324
							c-0.299,0.406-0.259,1.025,0.09,1.388c0.349,0.363,0.966,0.429,1.384,0.146"/>
						
							<path style="fill:none;stroke:#252126;stroke-width:0.75;stroke-linecap:round;stroke-linejoin:round;stroke-miterlimit:10;" d="
							M640.878,183.673c-0.122-0.89-0.918-1.641-1.814-1.71c-0.896-0.069-1.798,0.55-2.055,1.41"/>
						
							<path style="fill:none;stroke:#252126;stroke-width:0.75;stroke-linecap:round;stroke-linejoin:round;stroke-miterlimit:10;" d="
							M634.162,183.626c-0.315-0.736-1.069-1.263-1.869-1.306c-0.8-0.042-1.606,0.402-1.996,1.101"/>
					</g>
					<path style="fill:#FFFFFF;" d="M639.056,192.666c-0.588-0.205-1.279,0.036-1.796,0.327c-0.528,0.298-0.975,0.727-1.371,1.181
						c-0.908-0.215-2.075-0.058-2.228,1.004c-0.085,0.591,0.298,1.149,0.823,1.392c0.494,0.229,1.076,0.255,1.61,0.199
						c1.066-0.111,2.075-0.553,2.86-1.289c0.415-0.389,0.816-0.88,0.888-1.462C639.915,193.438,639.623,192.863,639.056,192.666z"/>
					<path style="fill:#9E5942;" d="M638.737,189.979c0,0.813,1.13,1.472,2.524,1.472c1.394,0,2.523-0.659,2.523-1.472
						c0-0.813-1.13-1.472-2.523-1.472C639.867,188.507,638.737,189.166,638.737,189.979z"/>
					<path style="fill:#9E5942;" d="M632.228,189.98c0,0.81-1.13,1.47-2.52,1.47c-0.1,0-0.2,0-0.3-0.02
						c-0.04-0.96-0.05-1.93-0.03-2.9c0.11-0.02,0.22-0.02,0.33-0.02C631.098,188.51,632.228,189.17,632.228,189.98z"/>
					<path style="fill:#9E5942;" d="M647.098,194.75c-0.14,3.3-1.75,6.49-4.23,8.7c-2.22,1.98-5.07,3.17-8.02,3.52
						c0.34-1.5,0.56-3.02,0.67-4.58c0.11,0,0.22-0.01,0.33-0.03c3.01-0.38,5.82-1.85,8.06-3.88
						C645.128,197.38,646.188,196.11,647.098,194.75z"/>
					
						<path style="fill:none;stroke:#9E5942;stroke-width:0.75;stroke-linecap:round;stroke-linejoin:round;stroke-miterlimit:10;" d="
						M651.766,186.802c-1.636,0.705-2.885,2.246-3.236,3.993c0.658-0.812,1.69-1.308,2.735-1.313"/>
				</g>
			</g>
			<g>
				
					<path style="fill:none;stroke:#252126;stroke-width:0.75;stroke-linecap:round;stroke-linejoin:round;stroke-miterlimit:10;" d="
					M638.407,185.351c-0.464,0.363-0.784,0.905-0.877,1.486c0.781-0.621,1.813-0.915,2.803-0.799"/>
				
					<path style="fill:none;stroke:#252126;stroke-width:0.75;stroke-linecap:round;stroke-linejoin:round;stroke-miterlimit:10;" d="
					M632.304,185.219c0.423,0.29,0.751,0.717,0.921,1.2c-0.796-0.147-1.619-0.151-2.417-0.013"/>
			</g>
		</g>
		<g>
			<path style="fill:#5A86CC;" d="M648.753,219.431c-0.497,9.076,0.06,18.368,2.103,27.225c7.933-0.018,16.128-1.605,23.531-4.457
				c-0.606-4.609-0.718-9.279-1.476-13.866c-0.759-4.587-2.23-9.187-5.196-12.766c-3.849-4.644-10.324-6.456-16.356-6.456
				L648.753,219.431z"/>
			<path style="fill:#5A86CC;" d="M620.841,249.081c-5.567-1.715-10.615-4.277-15.234-7.825c2.698-6.979,5.454-14.061,9.985-20.015
				c4.531-5.954,11.015-10.974,18.476-11.54C631.263,223.087,626.913,236.825,620.841,249.081z"/>
			<path style="fill:#5A86CC;" d="M674.01,293.045c-0.59,0.18-1.18,0.35-1.77,0.51c-1.62,0.46-3.26,0.87-4.91,1.23
				c-5.11,1.12-10.32,1.79-15.55,2.06c-0.78,0.04-1.57,0.07-2.35,0.08c-0.08,0-0.15,0-0.23,0.01c-0.79,0.02-1.59,0.03-2.38,0.03
				c-1.93,0-3.86-0.06-5.78-0.17c-0.48-0.02-0.95-0.05-1.43-0.09c-0.96-0.07-1.92-0.15-2.87-0.25c-0.47-0.04-0.94-0.09-1.4-0.15
				c-0.4-0.04-0.8-0.09-1.19-0.14c-0.42-0.05-0.85-0.11-1.27-0.17c-1.57-0.21-3.13-0.47-4.68-0.76c-0.47-0.08-0.94-0.17-1.41-0.27
				c-0.47-0.09-0.94-0.19-1.41-0.29c-0.47-0.1-0.93-0.2-1.4-0.31h-0.01c-0.76-0.17-1.51-0.35-2.26-0.54
				c-1.02-6.2-1.79-12.4-2.34-18.6c-1.43-16.49-1.22-33,0.59-49.59c4.28-5.75,8.82-11.09,14.11-15.93c1.7,3.25,5.17,5.76,8.84,5.56
				c3.66-0.2,7.11-2.73,8.45-6.15c6.19,6.48,11.95,13.8,14.51,22.4c2.28,7.65,3.96,15.6,5.19,23.67
				C672.98,267.755,673.8,280.625,674.01,293.045z"/>
			<path style="fill:#B1705B;" d="M671.5,267.725c-2.49,18.48-4.97,37.09-11.88,54.41l-7.43-8.73c-0.83-12.19-1.04-31.58,4.04-46.76
				c-1.49-6.59-1.96-13.37-1.65-20.11c5.72-0.36,11.48-1.49,16.91-3.31C672.6,251.345,672.6,259.605,671.5,267.725z"/>
			<path style="fill:#B1705B;" d="M618.49,258.915c-3.15,3.64-6.8,6.84-10.81,9.49c-1.85,1.22-3.95,2.37-6.15,2.11
				c-2.17-0.24-3.94-1.8-5.48-3.37c-7.78-7.94-13.802-20.074-18.872-29.964c1.47-1.72,3.265-1.632,5.345-2.521
				c6.83,5.13,14.267,11.285,20.417,17.215c1.34-3.14,3.14-6.09,5.32-8.73c3.2,2.14,6.6,3.84,10.24,5.15
				C618.41,251.835,618.41,255.375,618.49,258.915z"/>
			<g>
				<g>
					<path style="fill:#A29AA5;" d="M575.586,223.329l-4.171,2.33c-1.071,0.598-2.425,0.215-3.023-0.856l-6.579-11.779
						c-0.598-1.071-0.215-2.425,0.856-3.023l4.171-2.33c1.071-0.598,2.425-0.215,3.023,0.856l6.579,11.779
						C577.041,221.377,576.657,222.731,575.586,223.329z"/>
					<path style="fill:#A29AA5;" d="M578.824,218.321l-2.66,1.486l-6.021-10.781l2.66-1.486c2.977-1.663,6.738-0.597,8.401,2.38l0,0
						C582.866,212.897,581.801,216.658,578.824,218.321z"/>
					<path style="fill:#A29AA5;" d="M549.239,245.594l19.153-20.792l-6.579-11.779l-27.748,5.404
						c-1.843,0.359-2.797,2.414-1.881,4.053l12.618,22.591C545.717,246.709,547.967,246.975,549.239,245.594z"/>
				</g>
				<path style="fill:#A29AA5;" d="M583.514,242.422L583.514,242.422c-1.152,0.643-2.607,0.231-3.25-0.921l-11.872-16.699
					l8.051-4.497l7.992,18.866C585.078,240.324,584.666,241.779,583.514,242.422z"/>
				
					<line style="fill:none;stroke:#8A7F8F;stroke-width:0.75;stroke-linecap:round;stroke-linejoin:round;stroke-miterlimit:10;" x1="568.392" y1="224.802" x2="561.813" y2="213.023"/>
				
					<line style="fill:none;stroke:#8A7F8F;stroke-width:0.75;stroke-linecap:round;stroke-linejoin:round;stroke-miterlimit:10;" x1="570.142" y1="209.026" x2="576.164" y2="219.807"/>
			</g>
			<path style="fill:#B1705B;" d="M576.625,237.483c-0.442,0.229-0.98,0.202-1.387-0.085c-1.056-0.745-2.03-1.609-2.895-2.569
				c-0.88-0.977-1.688-2.188-1.555-3.496c0.187-1.83,2.161-3.045,3.673-4.093c0.525-0.364,1.139-0.701,1.771-0.603
				c0.65,0.102,1.139,0.636,1.521,1.172c0.998,1.399,1.654,3.041,1.895,4.742c0.115,0.81,0.132,1.661-0.179,2.417
				c-0.283,0.688-0.82,1.247-1.429,1.673C577.638,236.925,577.124,237.225,576.625,237.483z"/>
			<path style="fill:#B1705B;" d="M578.671,225.804c-0.01-0.549,0.188-1.141,0.65-1.437c0.461-0.296,1.095-0.225,1.553,0.075
				c0.459,0.3,0.763,0.791,0.955,1.305c0.188,0.5,0.281,1.059,0.119,1.568c-0.141,0.444-0.488,0.779-0.927,0.928
				c-0.42,0.142-0.794-0.047-1.147-0.285C579.169,227.481,578.686,226.661,578.671,225.804z"/>
			<g>
				
					<path style="fill:none;stroke:#4572BA;stroke-width:0.75;stroke-linecap:round;stroke-linejoin:round;stroke-miterlimit:10;" d="
					M649.033,220.985c-1.155,8.477-0.556,17.188,1.748,25.427c1.766,0.14,3.678,0.106,5.416-0.234"/>
				
					<path style="fill:none;stroke:#4572BA;stroke-width:0.75;stroke-linecap:round;stroke-linejoin:round;stroke-miterlimit:10;" d="
					M620.104,225.8c-1.047,7.558-1.546,15.193-1.492,22.823"/>
				
					<path style="fill:none;stroke:#4572BA;stroke-width:0.75;stroke-linecap:round;stroke-linejoin:round;stroke-miterlimit:10;" d="
					M654.058,210.116c-1.281,2.357-2.964,4.535-5.141,6.102s-4.879,2.487-7.55,2.243c-4.054-0.369-7.566-3.444-9.099-7.215"/>
				
					<path style="fill:none;stroke:#4572BA;stroke-width:0.75;stroke-linecap:round;stroke-linejoin:round;stroke-miterlimit:10;" d="
					M626.139,237.918c1.831,16.619,10.211,32.427,22.936,43.272"/>
				
					<path style="fill:none;stroke:#4572BA;stroke-width:0.75;stroke-linecap:round;stroke-linejoin:round;stroke-miterlimit:10;" d="
					M623.972,272.495c4.343,4.397,10.233,7.234,16.378,7.89"/>
			</g>
		</g>
		<g>
			<path style="fill:#444145;" d="M675.93,420.665c-2.62,4.27-6.21,8.62-9.95,11.96c-2.75-1.94-5.23-4.23-6.99-7.1
				c-0.16,7.17-0.43,12.42-0.59,19.54c-0.01,0.1-0.01,0.21-0.01,0.32c-0.21,0.03-0.42,0.05-0.63,0.07
				c-5.68,0.69-11.51,0.66-17.19,0.02c-2.2-11.89-3.69-21.95-5-33.42c-0.68-6.12-1.32-12.64-1.98-20.05
				c-4.56-7.14-9.2-14.46-11.04-22.72c-1.2-5.43-1.15-11.05-1.05-16.61c0.11-6.33,0.27-12.69,0.49-19.05
				c0.43-13.11,1.09-26.25,1.98-39.26h0.01c0.47,0.11,0.93,0.21,1.4,0.31c0.47,0.1,0.94,0.2,1.41,0.29c0.47,0.1,0.94,0.19,1.41,0.27
				c1.55,0.29,3.11,0.55,4.68,0.76c0.42,0.06,0.85,0.12,1.27,0.17c0.39,0.05,0.79,0.1,1.19,0.14c0.46,0.06,0.93,0.11,1.4,0.15
				c0.95,0.1,1.91,0.18,2.87,0.25c0.48,0.04,0.95,0.07,1.43,0.09c1.92,0.11,3.85,0.17,5.78,0.17c0.79,0,1.59-0.01,2.38-0.03
				c0.08-0.01,0.15-0.01,0.23-0.01c0.78-0.02,1.57-0.05,2.35-0.09v0.01c-0.14,6.16,0.09,11.88,0.41,16.56l7.43,8.73
				c3.53-8.85,5.9-18.02,7.71-27.35v-0.01c1.65-0.36,3.29-0.77,4.91-1.22c4.04,10.49,1.84,23.64-4.44,32.96
				c-0.45,16.05-3.98,32.08-6.81,47.64c0.76,5.6,0.78,11.53,0.23,17.15C667.27,400.305,671.9,410.595,675.93,420.665z"/>
			<g>
				
					<path style="fill:none;stroke:#626063;stroke-width:0.75;stroke-linecap:round;stroke-linejoin:round;stroke-miterlimit:10;" d="
					M638.323,296.342c-4.529,31.25-8.622,61.787-4.732,95.658"/>
				
					<path style="fill:none;stroke:#626063;stroke-width:0.75;stroke-linecap:round;stroke-linejoin:round;stroke-miterlimit:10;" d="
					M661.737,389.372c-0.74,12.344-1.48,24.688-2.22,37.031"/>
				
					<path style="fill:none;stroke:#626063;stroke-width:0.75;stroke-linecap:round;stroke-linejoin:round;stroke-miterlimit:10;" d="
					M648.55,307.021c3.374,6.311,7.766,12.077,12.954,17.006"/>
				
					<path style="fill:none;stroke:#626063;stroke-width:0.75;stroke-linecap:round;stroke-linejoin:round;stroke-miterlimit:10;" d="
					M632.042,296.849c-0.183,3.977-0.366,7.953-0.549,11.93c-0.079,1.708-0.13,3.53,0.746,4.998c0.631,1.057,1.688,1.808,2.821,2.29
					c1.134,0.481,2.353,0.718,3.563,0.952"/>
				
					<path style="fill:none;stroke:#626063;stroke-width:0.75;stroke-linecap:round;stroke-linejoin:round;stroke-miterlimit:10;" d="
					M656.19,325.435c-0.826,18.068-2.547,36.095-5.153,53.993"/>
				
					<path style="fill:none;stroke:#626063;stroke-width:0.75;stroke-linecap:round;stroke-linejoin:round;stroke-miterlimit:10;" d="
					M651.029,386.158c1.344,19.595,1.836,39.248,1.474,58.886"/>
			</g>
		</g>
		<path style="opacity:0.15;fill:#522840;" d="M675.93,420.665c-2.62,4.27-6.21,8.62-9.95,11.96c-2.75-1.94-5.23-4.23-6.99-7.1
			c-0.16,7.17-0.43,12.42-0.59,19.54c-0.01,0.1-0.01,0.21-0.01,0.32c-0.21,0.03-0.42,0.05-0.63,0.07
			c-5.68,0.69-11.51,0.66-17.19,0.02c-2.2-11.89-3.69-21.95-5-33.42c11.57-10.09,18.09-26.04,16.13-41.33
			c-2.12-16.5-14.28-30.98-29.71-37.1c0.43-13.11,1.09-26.25,1.98-39.26c-0.76-0.17-1.51-0.35-2.26-0.54
			c-1.02-6.2-1.79-12.4-2.34-18.6c12.75,0.4,25.58-2.86,36.76-9.05c0.03,0.16,0.06,0.31,0.1,0.47c-5.08,15.18-4.87,34.57-4.04,46.76
			l7.43,8.73c6.91-17.32,9.39-35.93,11.88-54.41c0.24-1.74,0.42-3.49,0.55-5.24c1.22,10.21,1.79,20.53,1.96,30.56
			c-0.59,0.18-1.18,0.35-1.77,0.51c4.04,10.49,1.84,23.64-4.44,32.96c-0.45,16.05-3.98,32.08-6.81,47.64
			c0.76,5.6,0.78,11.53,0.23,17.15C667.27,400.305,671.9,410.595,675.93,420.665z"/>
	</g>
	<g>
		<g>
			<path style="fill:#663F3F;" d="M493.807,184.356c1.97-1.981,3.432-4.463,4.21-7.147c0.459-1.582,0.677-3.302,0.151-4.863
				c-0.526-1.561-1.945-2.904-3.592-2.929c-1.419-0.021-2.67,0.88-3.755,1.794C490.667,175.75,491.886,180.242,493.807,184.356z"/>
			<path style="fill:#663F3F;" d="M469.671,172.229c-0.956,4.093,0.012,8.593,2.565,11.932c0.861-2.59,1.202-5.483,0.944-8.2
				C473.031,174.38,470.944,173.179,469.671,172.229z"/>
			<g>
				<g>
					<path style="fill:#B1705B;" d="M491.692,188.602c-1.29,2.74-3,5.32-5.25,7.35c-2.24,2.03-5.05,3.5-8.06,3.88
						c-1.42,0.18-3,0.07-4.1-0.85c-1.08-0.91-1.46-2.4-1.7-3.79c-0.36-2.08-0.57-4.18-0.64-6.29c-0.04-0.96-0.05-1.93-0.03-2.9
						c0.05-3.83,0.46-7.68,0.99-11.49c3.13-1.54,7-2.43,10.37-1.53c3.37,0.89,7.87,2.48,8.37,5.93
						C492.102,182.122,493.072,185.672,491.692,188.602z"/>
					<circle style="fill:#B1705B;" cx="492.404" cy="186.263" r="4.375"/>
					<path style="fill:#B1705B;" d="M493.892,206.582c-1.34,3.42-4.79,5.95-8.45,6.15c-3.67,0.2-7.14-2.31-8.84-5.56
						c0.31-0.91,0.57-1.82,0.78-2.73c0.34-1.5,0.56-3.02,0.67-4.58c0.11,0,0.22-0.01,0.33-0.03c3.01-0.38,5.82-1.85,8.06-3.88
						c1.22-1.1,2.28-2.37,3.19-3.73c0.47-0.68,0.89-1.38,1.28-2.1C491.282,195.692,492.282,201.232,493.892,206.582z"/>
					<g>
						
							<path style="fill:none;stroke:#252126;stroke-width:0.75;stroke-linecap:round;stroke-linejoin:round;stroke-miterlimit:10;" d="
							M477.743,182.348c-0.052,1.29-0.103,2.581-0.155,3.871c-0.45-0.226-1.054-0.081-1.353,0.324
							c-0.299,0.406-0.259,1.025,0.09,1.388c0.349,0.363,0.966,0.429,1.384,0.146"/>
						
							<path style="fill:none;stroke:#252126;stroke-width:1.5;stroke-linecap:round;stroke-linejoin:round;stroke-miterlimit:10;" d="
							M480.766,183.068c-0.023,0.345-0.033,0.489-0.055,0.834"/>
						
							<path style="fill:none;stroke:#252126;stroke-width:1.5;stroke-linecap:round;stroke-linejoin:round;stroke-miterlimit:10;" d="
							M474.499,183.068c-0.023,0.345-0.033,0.489-0.055,0.834"/>
						
							<path style="fill:none;stroke:#252126;stroke-width:0.75;stroke-linecap:round;stroke-linejoin:round;stroke-miterlimit:10;" d="
							M483.412,181.145c-0.122-0.89-0.918-1.641-1.814-1.71c-0.896-0.069-1.798,0.55-2.055,1.41"/>
						
							<path style="fill:none;stroke:#252126;stroke-width:0.75;stroke-linecap:round;stroke-linejoin:round;stroke-miterlimit:10;" d="
							M476.696,181.097c-0.315-0.736-1.069-1.264-1.869-1.306c-0.799-0.042-1.605,0.402-1.996,1.101"/>
					</g>
					<path style="fill:#FFFFFF;" d="M481.589,190.137c-0.588-0.205-1.279,0.036-1.796,0.327c-0.529,0.298-0.975,0.727-1.371,1.181
						c-0.908-0.215-2.075-0.058-2.228,1.004c-0.085,0.591,0.298,1.149,0.823,1.392c0.494,0.229,1.076,0.255,1.61,0.199
						c1.066-0.111,2.075-0.553,2.86-1.289c0.415-0.389,0.816-0.88,0.888-1.462C482.448,190.909,482.157,190.335,481.589,190.137z"/>
					<path style="fill:#9E5942;" d="M481.271,187.451c0,0.813,1.13,1.472,2.524,1.472c1.394,0,2.524-0.659,2.524-1.472
						c0-0.813-1.13-1.472-2.524-1.472C482.401,185.979,481.271,186.638,481.271,187.451z"/>
					<path style="fill:#9E5942;" d="M474.762,187.452c0,0.81-1.13,1.47-2.52,1.47c-0.1,0-0.2,0-0.3-0.02
						c-0.04-0.96-0.05-1.93-0.03-2.9c0.11-0.02,0.22-0.02,0.33-0.02C473.632,185.982,474.762,186.642,474.762,187.452z"/>
					<path style="fill:#9E5942;" d="M489.632,192.222c-0.14,3.3-1.75,6.49-4.23,8.7c-2.22,1.98-5.07,3.17-8.02,3.52
						c0.34-1.5,0.56-3.02,0.67-4.58c0.11,0,0.22-0.01,0.33-0.03c3.01-0.38,5.82-1.85,8.06-3.88
						C487.662,194.852,488.722,193.582,489.632,192.222z"/>
					
						<path style="fill:none;stroke:#9E5942;stroke-width:0.75;stroke-linecap:round;stroke-linejoin:round;stroke-miterlimit:10;" d="
						M494.3,184.273c-1.636,0.705-2.885,2.246-3.236,3.993c0.658-0.812,1.69-1.308,2.735-1.313"/>
				</g>
			</g>
			<path style="fill:#663F3F;" d="M494.62,181.375c-0.02,0.35-0.07,0.69-0.14,1.03c-0.62-0.33-1.33-0.52-2.08-0.52
				c-0.42,0-0.84,0.06-1.23,0.18c-1.18-1.62-1.95-3.54-2.21-5.53c-3.26,1.3-6.87,1.64-10.35,1.24c-2.59-0.3-5.17-1.09-7.26-2.65
				c-2.08-1.56-3.64-3.93-3.85-6.53c-0.12-1.47,0.29-3.12,1.51-3.95c1.2-0.82,2.83-0.61,4.18-0.08c1.35,0.54,2.59,1.38,3.98,1.78
				c2.44,0.71,5.06,0.03,7.4-0.97c1.34-0.57,2.68-1.26,4.13-1.43c1.46-0.17,3.1,0.32,3.82,1.59c0.46,0.82,0.47,1.82,0.24,2.72
				c-0.24,0.9-0.71,1.73-1.17,2.54C493.74,173.835,494.88,177.655,494.62,181.375z"/>
		</g>
		<g>
			<path style="fill:#CA4646;" d="M516.54,294.315c-0.66,0.32-1.32,0.62-1.99,0.9c-0.43,0.18-0.86,0.36-1.3,0.53
				c-0.43,0.17-0.87,0.33-1.31,0.49c-0.33,0.12-0.66,0.23-0.99,0.34c-0.67,0.21-1.34,0.42-2.01,0.61c-0.34,0.09-0.68,0.18-1.02,0.27
				c-0.45,0.12-0.9,0.23-1.36,0.34c-0.91,0.21-1.83,0.39-2.75,0.55c-0.46,0.09-0.92,0.16-1.39,0.23c-0.46,0.07-0.92,0.14-1.39,0.19
				c-0.33,0.05-0.66,0.09-0.99,0.12c-0.35,0.04-0.71,0.08-1.07,0.11c-0.1,0.01-0.2,0.02-0.31,0.03c-0.44,0.04-0.89,0.07-1.34,0.1
				c-0.03,0.01-0.06,0.01-0.1,0.01c-1.52,0.1-3.05,0.15-4.58,0.15c-1.26,0-2.52-0.03-3.78-0.09c-0.9-0.04-1.79-0.09-2.69-0.15
				c-0.76-0.05-1.53-0.1-2.29-0.17c-0.55-0.04-1.1-0.09-1.66-0.14c-1.14-0.1-2.28-0.22-3.42-0.35c-0.48-0.06-0.96-0.13-1.43-0.19
				c-0.07-0.01-0.14-0.02-0.2-0.02c-0.48-0.07-0.95-0.14-1.42-0.21c-0.08-0.01-0.16-0.03-0.24-0.04c-0.49-0.07-0.97-0.15-1.44-0.24
				c-0.37-0.06-0.73-0.12-1.1-0.19c-0.58-0.1-1.16-0.22-1.74-0.34c-0.34-0.07-0.68-0.14-1.01-0.22c-0.37-0.08-0.74-0.16-1.1-0.25
				c-0.54-0.12-1.07-0.26-1.61-0.4c-0.48-0.12-0.95-0.25-1.43-0.39c-0.36-0.1-0.72-0.21-1.08-0.32c-0.75-0.22-1.49-0.46-2.23-0.72
				c-0.58-0.19-1.15-0.4-1.72-0.62c-0.5-4.38-0.9-8.76-1.19-13.15c-1.16-16.87-0.81-33.75,1.41-50.57
				c-9.68-4.09-18.67-10.66-28.41-14.59c-13.6-5.49-24.68-16.16-35.17-26.4c1-3.95,3.42-7.58,6.63-10.09
				c11.56,4.29,23.36,10.69,32.83,16.91c13.6,1.21,27.07,5.07,39.45,10.83c1.7,3.25,5.17,5.76,8.84,5.56
				c3.66-0.2,7.11-2.73,8.45-6.15c6.26,2.12,15.41,7.38,17.57,12.25c2.45,15.34,3.35,29.98,3.94,44.82
				C515.81,273.695,516.06,283.825,516.54,294.315z"/>
			<path style="fill:#CA4646;" d="M511.462,218.831c2.501,5.716,4.231,17.809,2.193,26.532c-2.038,8.723-6.834,16.779-13.53,22.729
				c-11.039,9.809-26.257,13.403-40.497,17.317c-2.594-3.139-4.567-7.082-5.333-11.081c9.348-7.684,19.949-14.139,31.225-18.532
				c3.712-11.283,8.692-22.626,14.495-32.99C500.014,222.804,507.615,219.415,511.462,218.831z"/>
			<g>
				
					<path style="fill:none;stroke:#BA3232;stroke-width:0.75;stroke-linecap:round;stroke-linejoin:round;stroke-miterlimit:10;" d="
					M512.763,248.6c-2.375,7.467-6.779,14.286-12.638,19.492c-10.9,9.685-25.873,13.311-39.956,17.168"/>
				
					<path style="fill:none;stroke:#BA3232;stroke-width:0.75;stroke-linecap:round;stroke-linejoin:round;stroke-miterlimit:10;" d="
					M459.327,270.401c8.056-5.959,16.894-10.984,26.192-14.606c3.712-11.283,8.692-22.626,14.495-32.99"/>
				
					<path style="fill:none;stroke:#BA3232;stroke-width:0.75;stroke-linecap:round;stroke-linejoin:round;stroke-miterlimit:10;" d="
					M464.751,215.989c-2.677,8.27-4.203,16.913-4.519,25.6"/>
				
					<path style="fill:none;stroke:#BA3232;stroke-width:0.75;stroke-linecap:round;stroke-linejoin:round;stroke-miterlimit:10;" d="
					M435.258,196.741c-1.899,2.132-3.027,4.937-3.132,7.791"/>
				
					<path style="fill:none;stroke:#BA3232;stroke-width:0.75;stroke-linecap:round;stroke-linejoin:round;stroke-miterlimit:10;" d="
					M485.657,255.852c1.261,2.655,3.497,4.833,6.184,6.023"/>
				
					<path style="fill:none;stroke:#BA3232;stroke-width:0.75;stroke-linecap:round;stroke-linejoin:round;stroke-miterlimit:10;" d="
					M497.261,209.033c-1.807,2.935-4.406,5.434-7.563,6.816c-3.157,1.382-6.884,1.574-10.051,0.214
					c-3.167-1.36-5.662-4.346-6.128-7.761"/>
				
					<path style="fill:none;stroke:#BA3232;stroke-width:0.75;stroke-linecap:round;stroke-linejoin:round;stroke-miterlimit:10;" d="
					M469.232,229.439c1.731,8.267,5.926,16.002,11.911,21.962"/>
				
					<path style="fill:none;stroke:#BA3232;stroke-width:0.75;stroke-linecap:round;stroke-linejoin:round;stroke-miterlimit:10;" d="
					M510.14,257.372c1.338,12.45,2.067,24.965,2.182,37.487"/>
				
					<path style="fill:none;stroke:#BA3232;stroke-width:0.75;stroke-linecap:round;stroke-linejoin:round;stroke-miterlimit:10;" d="
					M515.404,288.773c-8.303,3.509-17.414,4.848-26.428,4.771c-9.014-0.076-17.965-1.531-26.777-3.43"/>
			</g>
		</g>
		<g>
			<path style="fill:#B1705B;" d="M454.53,275.385c-0.75-0.28-1.53-0.5-2.32-0.64c-0.96-0.17-2.12-0.39-3.07-0.03
				c-0.87,0.33-1.47,1.19-1.43,2.13c0.02,0.65,0.34,1.25,0.82,1.67c-0.65,0.46-1.29,0.99-1.72,1.65c-0.63,0.94-0.58,2.07-0.42,3.14
				c0.31,2.11,1,4.54,2.74,5.92c1.84,1.46,4.15,0.98,6.01-0.18c1.66-1.04,2.95-2.52,4.14-4.07
				C457.08,282.195,455.37,278.835,454.53,275.385z"/>
			<path style="fill:#B1705B;" d="M403.92,179.755c-2.64,2.19-4.7,5.14-5.81,8.38c-2.83-0.18-5.74-1.13-7.75-3.05
				c-1.24-2.98-0.76-6.6,1.14-9.21c-1.8-1.61-3.43-3.42-4.83-5.4c-0.27-0.37-0.54-0.87-0.31-1.27c0.15-0.27,0.47-0.4,0.78-0.39
				c0.3,0.01,0.59,0.13,0.87,0.24C393.94,171.555,399.37,175.215,403.92,179.755z"/>
		</g>
		<g>
			<g>
				<g>
					<polygon style="fill:#B1705B;" points="463.046,451.749 463.855,443.46 452.613,443.46 453.814,452.553 455.349,457.725 
						459.93,458.652 462.383,456.525 					"/>
					<path style="fill:#444145;" d="M464.19,463.097H439c-0.923,0-1.672-0.749-1.672-1.672v-1.261c0-0.651,0.378-1.243,0.968-1.517
						l13.708-6.358c0.602-0.279,1.313-0.176,1.81,0.263l3.174,2.803c0.647,0.571,1.621,0.556,2.251-0.034l3.808-3.573
						c0.31-0.291,0.719-0.453,1.144-0.453l0,0c0.923,0,1.672,0.749,1.672,1.672v8.457
						C465.862,462.348,465.114,463.097,464.19,463.097z"/>
				</g>
				<g>
					<polygon style="fill:#B1705B;" points="516.046,451.749 516.855,443.46 505.613,443.46 506.814,452.553 508.349,457.725 
						512.93,458.652 515.383,456.525 					"/>
					<path style="fill:#444145;" d="M517.19,463.097H492c-0.923,0-1.672-0.749-1.672-1.672v-1.261c0-0.651,0.378-1.243,0.968-1.517
						l13.708-6.358c0.602-0.279,1.313-0.176,1.81,0.263l3.174,2.803c0.647,0.571,1.621,0.556,2.251-0.034l3.808-3.573
						c0.31-0.291,0.719-0.453,1.144-0.453l0,0c0.923,0,1.672,0.749,1.672,1.672v8.457
						C518.862,462.348,518.114,463.097,517.19,463.097z"/>
				</g>
			</g>
			<g>
				<path style="fill:#444145;" d="M519.85,444.755c-5.48,2.44-11.77,2.47-17.23-0.02c-3.84-14.65-7.33-28.65-10.45-42.64
					c-3.81-17.03-7.09-34.06-9.84-52.3c-1.05,9.57-4.06,18.31-8.84,26.68c1.15,14.2,1.11,26.91-0.29,39.7
					c-1.04,9.6-2.84,19.24-5.46,29.59c-6.19,1.86-13.18,1.16-19.01-1.64c0.41-9.1,0.84-17.63,1.28-26.01
					c0.78-15.06,1.59-29.6,2.32-45.95c0.54-12.01,2.05-24.09,3.87-36.15c2.1-13.78,4.61-27.55,6.57-41.16
					c0.74,0.26,1.48,0.5,2.23,0.72c0.36,0.11,0.72,0.22,1.08,0.32c0.48,0.14,0.95,0.27,1.43,0.39c0.54,0.14,1.07,0.28,1.61,0.4
					c0.36,0.09,0.73,0.17,1.1,0.25c0.33,0.08,0.67,0.15,1.01,0.22c0.58,0.12,1.16,0.24,1.74,0.34c0.37,0.07,0.73,0.13,1.1,0.19
					c0.47,0.09,0.95,0.17,1.44,0.24c0.08,0.01,0.16,0.03,0.24,0.04c0.47,0.07,0.94,0.14,1.42,0.21c0.06,0,0.13,0.01,0.2,0.02
					c0.47,0.06,0.95,0.13,1.43,0.19c1.14,0.13,2.28,0.25,3.42,0.35c0.56,0.05,1.11,0.1,1.66,0.14c0.76,0.07,1.53,0.12,2.29,0.17
					c0.9,0.06,1.79,0.11,2.69,0.15c1.26,0.06,2.52,0.09,3.78,0.09c1.53,0,3.06-0.05,4.58-0.15c0.04,0,0.07,0,0.1-0.01
					c0.45-0.03,0.9-0.06,1.34-0.1c0.11-0.01,0.21-0.02,0.31-0.03c0.36-0.03,0.72-0.07,1.07-0.11c0.33-0.03,0.66-0.07,0.99-0.12
					c0.47-0.05,0.93-0.12,1.39-0.19c0.47-0.07,0.93-0.14,1.39-0.23c0.92-0.16,1.84-0.34,2.75-0.55c0.46-0.11,0.91-0.22,1.36-0.34
					c0.34-0.09,0.68-0.18,1.02-0.27c0.67-0.19,1.34-0.4,2.01-0.61c0.33-0.11,0.66-0.22,0.99-0.34c0.44-0.16,0.88-0.32,1.31-0.49
					c0.44-0.17,0.87-0.35,1.3-0.53c1.31,9.47-0.25,19.24-4.54,27.79c2.25,15.4,2.66,31.06,0.66,46.49
					C516.54,394.945,520.51,418.085,519.85,444.755z"/>
				<g>
					
						<path style="fill:none;stroke:#626063;stroke-width:0.75;stroke-linecap:round;stroke-linejoin:round;stroke-miterlimit:10;" d="
						M482.898,351.017c-4.448-17.064-8.297-34.284-11.535-51.617"/>
					
						<path style="fill:none;stroke:#626063;stroke-width:0.75;stroke-linecap:round;stroke-linejoin:round;stroke-miterlimit:10;" d="
						M467.155,298.682c0.286,3.791,0.74,7.569,1.359,11.32c0.274,1.661,0.618,3.399,1.703,4.686c1.096,1.3,2.815,1.945,4.509,2.092
						c1.694,0.146,3.392-0.151,5.066-0.447"/>
					
						<path style="fill:none;stroke:#626063;stroke-width:0.75;stroke-linecap:round;stroke-linejoin:round;stroke-miterlimit:10;" d="
						M499.419,300.706c0.094,3.278,0.237,6.615,1.336,9.704c1.099,3.09,3.313,5.948,6.409,7.03"/>
					
						<path style="fill:none;stroke:#626063;stroke-width:0.75;stroke-linecap:round;stroke-linejoin:round;stroke-miterlimit:10;" d="
						M513.427,301.219c-16.243,5.216-34.066,5.392-50.409,0.497"/>
					
						<path style="fill:none;stroke:#626063;stroke-width:0.75;stroke-linecap:round;stroke-linejoin:round;stroke-miterlimit:10;" d="
						M487.772,373.065c3.312,0.629,6.76,0.533,10.033-0.278"/>
					
						<path style="fill:none;stroke:#626063;stroke-width:0.75;stroke-linecap:round;stroke-linejoin:round;stroke-miterlimit:10;" d="
						M453.927,371.077c3.242,1.192,6.747,1.661,10.188,1.364"/>
					
						<path style="fill:none;stroke:#626063;stroke-width:0.75;stroke-linecap:round;stroke-linejoin:round;stroke-miterlimit:10;" d="
						M480.183,348.769c-1.491,9.229-5.101,18.109-10.474,25.759"/>
					
						<path style="fill:none;stroke:#626063;stroke-width:0.75;stroke-linecap:round;stroke-linejoin:round;stroke-miterlimit:10;" d="
						M469.913,378.403c2.119,23.405,0.488,42.472-5.076,65.305"/>
					
						<path style="fill:none;stroke:#626063;stroke-width:0.75;stroke-linecap:round;stroke-linejoin:round;stroke-miterlimit:10;" d="
						M507.101,324.262c2.335,15.406,2.464,31.145,0.381,46.588"/>
					
						<path style="fill:none;stroke:#626063;stroke-width:0.75;stroke-linecap:round;stroke-linejoin:round;stroke-miterlimit:10;" d="
						M508.395,375.58c5.642,23.664,8.28,44.222,8.441,68.549"/>
				</g>
			</g>
		</g>
		<g style="opacity:0.15;">
			<path style="fill:#522840;" d="M473.2,416.175c-1.04,9.6-2.84,19.24-5.46,29.59c-6.19,1.86-13.18,1.16-19.01-1.64
				c0.41-9.1,0.84-17.63,1.28-26.01C457.69,419.635,465.82,418.885,473.2,416.175z"/>
			<path style="fill:#522840;" d="M519.85,444.755c-5.48,2.44-11.77,2.47-17.23-0.02c-3.84-14.65-7.33-28.65-10.45-42.64
				c10.27-14.16,10.32-35.05-0.09-49.16c-7.99-10.82-22.19-17.12-35.88-16.92c2.1-13.78,4.61-27.55,6.57-41.16
				c-0.58-0.19-1.15-0.4-1.72-0.62c-0.34-2.99-0.64-5.98-0.87-8.98c4.3-1.17,8.69-2.33,13.01-3.64c5.3-0.31,10.55-1.22,15.64-2.75
				c9.85-2.97,19-8.24,26.57-15.21c0.41,10.04,0.66,20.17,1.14,30.66c-0.66,0.32-1.32,0.62-1.99,0.9
				c1.31,9.47-0.25,19.24-4.54,27.79c2.25,15.4,2.66,31.06,0.66,46.49C516.54,394.945,520.51,418.085,519.85,444.755z"/>
		</g>
	</g>
	<g>
		<g>
			<polygon style="fill:#B1705B;" points="94.144,451.749 93.335,443.46 104.577,443.46 103.376,452.553 101.841,457.725 
				97.261,458.652 94.807,456.525 			"/>
			<path style="fill:#444145;" d="M93,463.097h25.19c0.923,0,1.672-0.749,1.672-1.672v-1.261c0-0.651-0.378-1.243-0.968-1.517
				l-13.707-6.358c-0.602-0.279-1.313-0.176-1.81,0.263l-3.174,2.803c-0.647,0.571-1.621,0.556-2.251-0.034l-3.808-3.573
				c-0.31-0.291-0.719-0.453-1.144-0.453l0,0c-0.923,0-1.672,0.749-1.672,1.672v8.457C91.328,462.348,92.076,463.097,93,463.097z"/>
		</g>
		<g>
			<polygon style="fill:#B1705B;" points="160.144,451.749 158.057,443.46 169.176,443.46 169.376,452.553 167.841,457.725 
				163.261,458.652 160.807,456.525 			"/>
			<path style="fill:#444145;" d="M159,463.097h25.19c0.923,0,1.672-0.749,1.672-1.672v-1.261c0-0.651-0.378-1.243-0.968-1.517
				l-13.707-6.358c-0.602-0.279-1.313-0.176-1.81,0.263l-3.174,2.803c-0.647,0.571-1.621,0.556-2.251-0.034l-3.808-3.573
				c-0.31-0.291-0.719-0.453-1.144-0.453l0,0c-0.923,0-1.672,0.749-1.672,1.672v8.457C157.328,462.348,158.076,463.097,159,463.097z
				"/>
		</g>
		<g>
			<path style="fill:#444145;" d="M103.637,185.255c-1.237,4.559-4.737,8.444-9.143,10.149c-2.253,0.872-4.759,1.191-7.111,0.637
				c-2.352-0.554-4.524-2.034-5.675-4.158c-1.058-1.954-1.199-4.284-0.959-6.493c0.456-4.191,2.285-8.203,5.48-10.954
				c-2.701-3.593-3.345-8.63-1.637-12.787c1.709-4.158,5.708-7.285,10.155-7.941c4.447-0.656,9.113,1.115,11.949,4.602
				c0.965-1.821,2.354-3.437,4.096-4.537c1.743-1.1,3.847-1.662,5.894-1.427c3.138,0.361,5.901,2.621,7.204,5.499
				c1.303,2.878,1.234,6.271,0.158,9.241c-1.077,2.97-3.099,5.536-5.5,7.589C113.955,178.603,108.596,181.796,103.637,185.255z"/>
			<path style="fill:#B1705B;" d="M120.741,181.202c-0.48-0.604-0.924-1.193-1.237-1.905c-0.191-0.434-0.315-0.894-0.408-1.36
				c-0.107-3.231-0.416-6.455-0.947-9.642c-2.23,2.88-6.18,4.37-9.76,3.61c-1.59,2.36-3.89,4.3-6.51,5.42
				c-0.7-0.84-1.7-1.41-2.83-1.56c-0.31,2.84-0.32,5.71,0.81,8.25c1.96,4.44,5.68,8.08,10.16,9.96c2.27,0.94,5.17,1.33,6.93-0.37
				c1.19-1.14,1.5-2.9,1.69-4.54c0.195-1.66,0.33-3.328,0.413-4.998c0.689,0.021,1.464-0.165,1.916-0.687
				C121.558,182.7,121.235,181.824,120.741,181.202z"/>
			<circle style="fill:#B1705B;" cx="98.413" cy="180.251" r="4.533"/>
			<path style="fill:#B1705B;" d="M112.97,203.815c-2.6,2.52-6,4.15-9.62,4.21c-3.62,0.06-7.28-1.75-9.96-4.18
				c2.64-6.03,4.3-12.5,4.85-19.07c0.05,0.01,0.11,0.01,0.17,0.01c0.56,0,1.09-0.1,1.59-0.29c0.04,0.01,0.07,0.03,0.11,0.04
				c0.53,1.11,1.17,2.16,1.91,3.14c2.04,2.76,4.83,4.97,8,6.3c0.45,0.19,0.92,0.35,1.41,0.48c-0.22,1.61-0.19,3.25,0.09,4.84
				C111.77,200.865,112.26,202.395,112.97,203.815z"/>
			<path style="fill:none;stroke:#252126;stroke-width:0.75;stroke-linecap:round;stroke-linejoin:round;stroke-miterlimit:10;" d="
				M117.566,175.972c-0.675-0.765-1.766-1.138-2.769-0.947c-1.002,0.191-1.88,0.939-2.227,1.899"/>
			<path style="fill:none;stroke:#252126;stroke-linecap:round;stroke-linejoin:round;stroke-miterlimit:10;" d="M115.588,177.588
				c0.014,0.376,0.028,0.753,0.042,1.129"/>
			<path style="fill:#FFFFFF;" d="M116.839,186.705c-0.307-0.332-0.751-0.346-1.166-0.225c-0.25-0.661-0.692-1.248-1.297-1.631
				c-0.429-0.272-0.962-0.46-1.475-0.41c-0.644,0.063-1.131,0.474-1.233,1.125c-0.193,1.237,0.658,2.41,1.646,3.064
				c0.969,0.641,2.269,0.704,3.166-0.101C116.953,188.102,117.344,187.251,116.839,186.705z"/>
			<path style="fill:#9E5942;" d="M107.955,181.901c0,0.911,1.235,1.649,2.759,1.649s2.759-0.738,2.759-1.649
				c0-0.911-1.235-1.65-2.759-1.65S107.955,180.99,107.955,181.901z"/>
			<path style="fill:#9E5942;" d="M111.52,199.295c-2.83-0.45-5.49-2.02-7.22-4.31c-1.58-2.08-2.38-4.71-2.28-7.31
				c2.04,2.76,4.83,4.97,8,6.3c0.45,0.19,0.92,0.35,1.41,0.48C111.21,196.065,111.24,197.705,111.52,199.295z"/>
			<path style="fill:none;stroke:#9E5942;stroke-width:0.75;stroke-linecap:round;stroke-linejoin:round;stroke-miterlimit:10;" d="
				M97.351,179.048c0.898,0.003,1.791,0.326,2.482,0.899c0.691,0.573,1.174,1.391,1.343,2.273c-0.782-0.618-1.796-0.845-2.775-0.654
				"/>
		</g>
		<g>
			<path style="fill:#B1705B;" d="M197.83,216.935c-1.02,2.23-2.3,4.33-3.82,6.25c0.86,2.26,1.47,4.64,1.03,7.02
				c-0.44,2.37-2.02,4.64-4.32,5.39c-5.77,7.99-12.45,15.3-19.57,22.12c-2.11,2.02-4.49,4.12-7.4,4.32c-2.8,0.2-5.38-1.41-7.62-3.11
				c-5.32-4.02-10-8.89-13.82-14.37c4.98-2.55,9.16-6.63,11.86-11.53c3.98,3.42,7.58,7.28,10.72,11.47
				c5.87-5.51,12.3-10.66,19.02-15.1c3.79-5.02,8-9.84,12.71-13.77c0.27-0.22,0.6-0.46,0.95-0.38c0.32,0.08,0.51,0.43,0.52,0.76
				C198.1,216.325,197.96,216.645,197.83,216.935z"/>
			<path style="fill:#B1705B;" d="M77.15,278.505c-1.38,2.63-2.44,5.44-3.21,8.35c-7.31-4.49-13.81-10.32-19.08-17.1
				c-2.23-2.87-4.29-6.03-4.87-9.62c-0.66-4,0.6-8.09,2.48-11.69c1.74-3.31,3.95-6.21,5.88-9.38c3.45,4.05,8.13,7.09,13.22,8.69
				c-2.14,3.74-4.7,7.24-7.63,10.4C69.12,264.315,73.6,271.255,77.15,278.505z"/>
		</g>
		<g>
			<path style="fill:#444145;" d="M171.99,444.065c-4.9,3.26-11.28,3.06-16.34,0.05c-2.16-7.22-4.24-14.47-6.19-21.74
				c-4.83-17.92-8.91-36.01-11.85-54.36c-9.45-10.78-18.55-22.25-26.77-34.12c-1.65-2.37-3.25-4.76-4.82-7.16
				c0.2,3.02,0.41,6.05,0.6,9.08c0.72,10.86,1.39,21.78,1.87,32.61c0.57,12.85,0.74,25.87,0.46,38.89
				c-0.27,12.72-0.97,25.44-2.15,37.96c-5.79,1.06-12.22,0.72-17.72-1.4c-4.14-25.33-7.2-53.03-5.24-76.97
				c-2.71-13.59-5.42-27.18-8.14-40.77c-1.86-9.37-3.74-18.85-3.36-28.4c0.32-8.12,2.46-16.41,7.1-23c0.53,0.14,1.07,0.27,1.61,0.39
				c0.79,0.18,1.58,0.35,2.37,0.51c1.41,0.29,2.82,0.54,4.24,0.75c0.38,0.06,0.75,0.11,1.13,0.16c2.49,0.35,5.01,0.58,7.53,0.71
				c0.51,0.03,1.01,0.06,1.51,0.07c0.35,0.02,0.69,0.03,1.04,0.03c0.26,0.01,0.53,0.02,0.8,0.02c1.05,0.01,2.1,0.01,3.16-0.01
				c0.42-0.01,0.84-0.02,1.26-0.03c0.49-0.02,0.98-0.04,1.47-0.07c0.53-0.02,1.06-0.05,1.59-0.09c0.68-0.04,1.36-0.1,2.04-0.16
				c0.56-0.05,1.11-0.1,1.66-0.16c0.81-0.09,1.61-0.19,2.41-0.3c0.68-0.09,1.35-0.19,2.03-0.29c0.67-0.11,1.34-0.23,2.01-0.35
				c0.67-0.12,1.34-0.25,2.01-0.39c0.67-0.13,1.34-0.27,2-0.43c0.62-0.14,1.25-0.29,1.87-0.45c0.07-0.02,0.14-0.03,0.22-0.06
				c0.62-0.15,1.25-0.31,1.87-0.49c0.66-0.18,1.31-0.37,1.96-0.57c0.59-0.18,1.17-0.36,1.75-0.55c0.12-0.03,0.24-0.07,0.35-0.11
				c0.68,4.02,1.76,8.1,1.57,11.99c7.44,16.41,14.67,33.03,20.86,49.99c2.92,7.96,5.6,16,7.96,24.13c5.87,20.19,9.04,41,10.81,61.96
				C171.19,428.635,171.65,436.355,171.99,444.065z"/>
			<g>
				
					<path style="fill:none;stroke:#626063;stroke-width:0.75;stroke-linecap:round;stroke-linejoin:round;stroke-miterlimit:10;" d="
					M106.72,326.911c-4.696-6.764-9.441-13.618-12.324-21.331c-2.884-7.713-3.755-16.503-0.627-24.12"/>
				
					<path style="fill:none;stroke:#626063;stroke-width:0.75;stroke-linecap:round;stroke-linejoin:round;stroke-miterlimit:10;" d="
					M84.235,366.641c3.396,0.331,6.823,0.331,10.219,0.001"/>
				
					<path style="fill:none;stroke:#626063;stroke-width:0.75;stroke-linecap:round;stroke-linejoin:round;stroke-miterlimit:10;" d="
					M138.807,367.824c3.007,0.246,6.065-0.15,8.911-1.152"/>
				
					<path style="fill:none;stroke:#626063;stroke-width:0.75;stroke-linecap:round;stroke-linejoin:round;stroke-miterlimit:10;" d="
					M128.734,291.168c11.941,23.729,21.318,48.748,27.917,74.48"/>
				
					<path style="fill:none;stroke:#626063;stroke-width:0.75;stroke-linecap:round;stroke-linejoin:round;stroke-miterlimit:10;" d="
					M157.9,370.343c6.075,23.769,9.899,48.112,11.404,72.599"/>
				
					<path style="fill:none;stroke:#626063;stroke-width:0.75;stroke-linecap:round;stroke-linejoin:round;stroke-miterlimit:10;" d="
					M104.781,368.708c1.253,24.612,0.823,49.309-1.285,73.862"/>
				
					<path style="fill:none;stroke:#626063;stroke-width:0.75;stroke-linecap:round;stroke-linejoin:round;stroke-miterlimit:10;" d="
					M129.699,280.378c-16.333,7.369-35.362,8.568-52.491,3.307"/>
			</g>
		</g>
		<g>
			<path style="fill:#5A86CC;" d="M155.8,229.495c-2.69,7.17-8.47,13.09-15.54,16.03c-0.9-0.61-2.02-0.96-2.92-1.57
				c-1.03,3.18-3.33,6.18-6.22,7.86c0.05,2.67,0.2,5.39,0.43,8.1c0.33,3.92,0.83,7.84,1.48,11.64c-1.22,0.46-2.45,0.9-3.7,1.31
				c-0.11,0.04-0.23,0.08-0.35,0.11c-0.58,0.19-1.16,0.37-1.75,0.55c-0.65,0.2-1.3,0.39-1.96,0.57c-0.62,0.17-1.25,0.34-1.87,0.49
				c-0.08,0.03-0.15,0.04-0.22,0.06c-0.62,0.16-1.25,0.31-1.87,0.45c-0.67,0.15-1.33,0.3-2,0.43c-0.67,0.14-1.34,0.27-2.01,0.39
				c-0.67,0.12-1.34,0.24-2.01,0.35c-0.68,0.1-1.35,0.2-2.03,0.29c-0.8,0.11-1.6,0.21-2.41,0.3c-0.55,0.06-1.1,0.11-1.66,0.16
				c-0.68,0.06-1.36,0.12-2.04,0.16c-0.53,0.04-1.06,0.07-1.59,0.09c-0.49,0.03-0.98,0.05-1.47,0.07c-0.42,0.01-0.84,0.02-1.26,0.03
				c-1.06,0.02-2.11,0.02-3.16,0.01c-0.27,0-0.54-0.01-0.8-0.02c-0.35,0-0.69-0.01-1.04-0.03c-0.5-0.01-1-0.04-1.51-0.07
				c-2.52-0.13-5.04-0.36-7.53-0.71c-0.38-0.05-0.75-0.1-1.13-0.16c-1.42-0.21-2.83-0.46-4.24-0.75c-0.79-0.16-1.58-0.33-2.37-0.51
				c-0.54-0.12-1.08-0.25-1.61-0.39c-1.19-0.3-2.37-0.62-3.54-0.97c2.59-6.93,4.38-13.98,5.65-21.27c-0.79-2.03-1.51-4.01-2.06-6.02
				c-0.53-1.91-0.89-3.85-1.03-5.91c-1.58,2.48-3.31,5.28-4.88,7.76c-6.92-1.64-13.3-5.94-17.21-11.87
				c3.69-7.75,9.16-14.49,14.57-21.15c1.73-2.13,3.49-4.29,5.67-5.96c4.73-3.62,10.89-4.64,16.78-5.5c2.68,2.43,6.34,4.24,9.96,4.18
				c3.62-0.06,7.02-1.69,9.62-4.21c6.05,0,12.3,0.31,17.71,3.01c3.42,1.71,6.26,4.35,9.05,6.96
				C145.11,218.815,150.43,224.465,155.8,229.495z"/>
			<g>
				
					<path style="fill:none;stroke:#4572BA;stroke-width:0.75;stroke-linecap:round;stroke-linejoin:round;stroke-miterlimit:10;" d="
					M76.979,220.928c-0.264,8.145,0.597,16.326,2.551,24.238"/>
				
					<path style="fill:none;stroke:#4572BA;stroke-width:0.75;stroke-linecap:round;stroke-linejoin:round;stroke-miterlimit:10;" d="
					M140.288,244.683c-6.604-2.096-12.147-7.301-14.655-13.76c-2.508-6.459-1.929-14.041,1.53-20.044"/>
				
					<path style="fill:none;stroke:#4572BA;stroke-width:0.75;stroke-linecap:round;stroke-linejoin:round;stroke-miterlimit:10;" d="
					M78.206,238.427c-1.718-2.205-2.8-4.9-3.082-7.681"/>
				
					<path style="fill:none;stroke:#4572BA;stroke-width:0.75;stroke-linecap:round;stroke-linejoin:round;stroke-miterlimit:10;" d="
					M130.879,268.4c-16.724,5.312-34.787,6.35-52.009,2.99"/>
				
					<path style="fill:none;stroke:#4572BA;stroke-width:0.75;stroke-linecap:round;stroke-linejoin:round;stroke-miterlimit:10;" d="
					M127.845,238.283c-4.373,10.709-3.819,23.318,1.477,33.603"/>
				
					<path style="fill:none;stroke:#4572BA;stroke-width:0.75;stroke-linecap:round;stroke-linejoin:round;stroke-miterlimit:10;" d="
					M115.94,205.283c-2.99,2.997-7.153,4.792-11.385,4.91c-4.232,0.117-8.488-1.445-11.639-4.272"/>
				
					<path style="fill:none;stroke:#4572BA;stroke-width:0.75;stroke-linecap:round;stroke-linejoin:round;stroke-miterlimit:10;" d="
					M116.429,224.167c-6.295,12.94-15.766,24.321-27.347,32.862"/>
			</g>
		</g>
		<path style="opacity:0.15;fill:#522840;" d="M170.53,420.935c-6.93,1.35-14.02,1.87-21.07,1.44c1.95,7.27,4.03,14.52,6.19,21.74
			c5.06,3.01,11.44,3.21,16.34-0.05C171.65,436.355,171.19,428.635,170.53,420.935z M130.9,284.855c0.19-3.89-0.89-7.97-1.57-11.99
			c1.25-0.41,2.48-0.85,3.7-1.31c-0.65-3.8-1.15-7.72-1.48-11.64c-5.77,0.91-11.62,1.26-17.45,0.92c-8.9-0.52-17.76-2.73-25.57-7.1
			c-3.37-1.88-6.69-4.18-9.04-7.26c0.55,2.01,1.27,3.99,2.06,6.02c-1.27,7.29-3.06,14.34-5.65,21.27c1.17,0.35,2.35,0.67,3.54,0.97
			c-4.64,6.59-6.78,14.88-7.1,23c-0.38,9.55,1.5,19.03,3.36,28.4c2.72,13.59,5.43,27.18,8.14,40.77
			c-1.96,23.94,1.1,51.64,5.24,76.97c5.5,2.12,11.93,2.46,17.72,1.4c1.18-12.52,1.88-25.24,2.15-37.96c-1.58-1.21-3.1-2.5-4.56-3.86
			c-10.74-9.98-18.84-24.39-17.67-39.45c0.55-7.1,3.46-13.76,8.16-19.1c3.29-3.73,7.32-6.8,11.74-9.09c-0.19-3.03-0.4-6.06-0.6-9.08
			c1.57,2.4,3.17,4.79,4.82,7.16c0.38-0.14,0.76-0.28,1.14-0.42c7.61-2.73,15.85-3.26,23.83-2.33c4.24,0.49,8.42,1.4,12.51,2.61
			c1.15,0.34,2.3,0.7,3.44,1.09C145.57,317.885,138.34,301.265,130.9,284.855z"/>
	</g>
</g>
</svg>
